<svg xmlns="http://www.w3.org/2000/svg" xmlns:xlink="http://www.w3.org/1999/xlink" width="337" height="300" fill="none" xmlns:v="https://vecta.io/nano"><style><![CDATA[.B{color-interpolation-filters:sRGB}.C{flood-opacity:0}.D{fill:#41ccdb}.E{stroke:#00b8cc}.F{fill-rule:evenodd}]]></style><path d="M151.428 142.135a2 2 0 0 1 1.965-1.629h34.464a2 2 0 0 1 1.965 1.629l3.228 17.123c.097.51.388.963.812 1.263l13.082 9.238c1.594 1.125.798 3.634-1.153 3.634h-71.96c-2.005 0-2.763-2.622-1.068-3.692l14.55-9.183a2 2 0 0 0 .898-1.32l3.217-17.063z" fill="#fff"/><g filter="url(#C)"><rect x="35.86" y="2.916" width="275.288" height="147.86" rx="10" fill="#fff"/><rect x="36.36" y="3.416" width="274.288" height="146.86" rx="9.5" stroke="#fff"/></g><rect x="44.031" y="8.065" width="258.946" height="137.562" rx="10" fill="#eef5fc"/><g filter="url(#D)"><g filter="url(#E)"><rect x="4.789" y="181.833" width="327.737" height="111.583" rx="10" fill="#eef5fc" fill-opacity=".99"/><rect x="5.289" y="182.333" width="326.737" height="110.583" rx="9.5" stroke="#fff"/></g><g filter="url(#F)"><rect x="9.964" y="189.981" width="20.256" height="15.408" rx="5" class="D"/><rect x="10.464" y="190.481" width="19.256" height="14.408" rx="4.5" class="E"/></g><g filter="url(#G)"><rect x="9.964" y="229.92" width="20.256" height="15.408" rx="5" class="D"/><rect x="10.464" y="230.42" width="19.256" height="14.408" rx="4.5" class="E"/></g><g filter="url(#H)"><rect x="9.964" y="249.889" width="29.507" height="15.408" rx="5" class="D"/><rect x="10.464" y="250.389" width="28.507" height="14.408" rx="4.5" class="E"/></g><g filter="url(#I)"><rect x="35.587" y="189.981" width="15.062" height="15.408" rx="5" class="D"/><rect x="36.087" y="190.481" width="14.062" height="14.408" rx="4.5" class="E"/></g><g filter="url(#J)"><rect x="35.587" y="229.92" width="15.062" height="15.408" rx="5" class="D"/><rect x="36.087" y="230.42" width="14.062" height="14.408" rx="4.5" class="E"/></g><g filter="url(#K)"><rect x="45.142" y="249.889" width="15.062" height="15.408" rx="5" class="D"/><rect x="45.642" y="250.389" width="14.062" height="14.408" rx="4.5" class="E"/></g><g filter="url(#L)"><rect x="127.484" y="249.889" width="15.062" height="15.408" rx="5" class="D"/><rect x="127.984" y="250.389" width="14.062" height="14.408" rx="4.5" class="E"/></g><g filter="url(#M)"><rect x="86.313" y="249.889" width="15.062" height="15.408" rx="5" class="D"/><rect x="86.813" y="250.389" width="14.062" height="14.408" rx="4.5" class="E"/></g><g filter="url(#N)"><rect x="168.655" y="249.889" width="15.062" height="15.408" rx="5" class="D"/><rect x="169.155" y="250.389" width="14.062" height="14.408" rx="4.5" class="E"/></g><g filter="url(#O)"><rect x="65.874" y="249.889" width="15.062" height="15.408" rx="5" class="D"/><rect x="66.374" y="250.389" width="14.062" height="14.408" rx="4.5" class="E"/></g><g filter="url(#P)"><rect x="148.216" y="249.889" width="15.062" height="15.408" rx="5" class="D"/><rect x="148.716" y="250.389" width="14.062" height="14.408" rx="4.5" class="E"/></g><g filter="url(#Q)"><rect x="107.045" y="249.889" width="15.062" height="15.408" rx="5" class="D"/><rect x="107.545" y="250.389" width="14.062" height="14.408" rx="4.5" class="E"/></g><g filter="url(#R)"><rect x="189.388" y="249.889" width="15.062" height="15.408" rx="5" class="D"/><rect x="189.888" y="250.389" width="14.062" height="14.408" rx="4.5" class="E"/></g><g filter="url(#S)"><rect x="209.826" y="249.889" width="15.062" height="15.408" rx="5" class="D"/><rect x="210.326" y="250.389" width="14.062" height="14.408" rx="4.5" class="E"/></g><g filter="url(#T)"><rect x="230.265" y="249.889" width="15.062" height="15.408" rx="5" class="D"/><rect x="230.765" y="250.389" width="14.062" height="14.408" rx="4.5" class="E"/></g><g filter="url(#U)"><rect x="9.964" y="209.95" width="15.062" height="15.408" rx="5" class="D"/><rect x="10.464" y="210.45" width="14.062" height="14.408" rx="4.5" class="E"/></g><g filter="url(#V)"><rect x="9.964" y="269.859" width="15.062" height="15.408" rx="5" class="D"/><rect x="10.464" y="270.359" width="14.062" height="14.408" rx="4.5" class="E"/></g><g filter="url(#W)"><rect x="30.393" y="269.859" width="15.062" height="15.408" rx="5" class="D"/><rect x="30.893" y="270.359" width="14.062" height="14.408" rx="4.5" class="E"/></g><g filter="url(#X)"><rect x="50.822" y="269.859" width="194.505" height="15.408" rx="5" class="D"/><rect x="51.322" y="270.359" width="193.505" height="14.408" rx="4.5" class="E"/></g><g filter="url(#Y)"><rect x="56.016" y="189.981" width="15.062" height="15.408" rx="5" class="D"/><rect x="56.516" y="190.481" width="14.062" height="14.408" rx="4.5" class="E"/></g><g filter="url(#Z)"><rect x="56.016" y="229.92" width="15.062" height="15.408" rx="5" class="D"/><rect x="56.516" y="230.42" width="14.062" height="14.408" rx="4.5" class="E"/></g><g filter="url(#a)"><rect x="30.393" y="209.95" width="15.062" height="15.408" rx="5" class="D"/><rect x="30.893" y="210.45" width="14.062" height="14.408" rx="4.5" class="E"/></g><g filter="url(#b)"><rect x="76.445" y="189.981" width="15.062" height="15.408" rx="5" class="D"/><rect x="76.945" y="190.481" width="14.062" height="14.408" rx="4.5" class="E"/></g><g filter="url(#c)"><rect x="76.445" y="229.92" width="15.062" height="15.408" rx="5" class="D"/><rect x="76.945" y="230.42" width="14.062" height="14.408" rx="4.5" class="E"/></g><g filter="url(#d)"><rect x="50.822" y="209.95" width="15.062" height="15.408" rx="5" class="D"/><rect x="51.322" y="210.45" width="14.062" height="14.408" rx="4.5" class="E"/></g><g filter="url(#e)"><rect x="96.873" y="189.981" width="15.062" height="15.408" rx="5" class="D"/><rect x="97.373" y="190.481" width="14.062" height="14.408" rx="4.5" class="E"/></g><g filter="url(#f)"><rect x="96.873" y="229.92" width="15.062" height="15.408" rx="5" class="D"/><rect x="97.373" y="230.42" width="14.062" height="14.408" rx="4.5" class="E"/></g><g filter="url(#g)"><rect x="71.251" y="209.95" width="15.062" height="15.408" rx="5" class="D"/><rect x="71.751" y="210.45" width="14.062" height="14.408" rx="4.5" class="E"/></g><g filter="url(#h)"><rect x="117.302" y="189.981" width="15.062" height="15.408" rx="5" class="D"/><rect x="117.802" y="190.481" width="14.062" height="14.408" rx="4.5" class="E"/></g><g filter="url(#i)"><rect x="117.302" y="229.92" width="15.062" height="15.408" rx="5" class="D"/><rect x="117.802" y="230.42" width="14.062" height="14.408" rx="4.5" class="E"/></g><g filter="url(#j)"><rect x="91.679" y="209.95" width="15.062" height="15.408" rx="5" class="D"/><rect x="92.179" y="210.45" width="14.062" height="14.408" rx="4.5" class="E"/></g><g filter="url(#k)"><rect x="214.251" y="209.95" width="15.062" height="15.408" rx="5" class="D"/><rect x="214.751" y="210.45" width="14.062" height="14.408" rx="4.5" class="E"/></g><g filter="url(#l)"><rect x="137.73" y="189.981" width="15.062" height="15.408" rx="5" class="D"/><rect x="138.23" y="190.481" width="14.062" height="14.408" rx="4.5" class="E"/></g><g filter="url(#m)"><rect x="137.73" y="229.92" width="15.062" height="15.408" rx="5" class="D"/><rect x="138.23" y="230.42" width="14.062" height="14.408" rx="4.5" class="E"/></g><g filter="url(#n)"><rect x="112.108" y="209.95" width="15.062" height="15.408" rx="5" class="D"/><rect x="112.608" y="210.45" width="14.062" height="14.408" rx="4.5" class="E"/></g><g filter="url(#o)"><rect x="158.16" y="189.981" width="15.062" height="15.408" rx="5" class="D"/><rect x="158.66" y="190.481" width="14.062" height="14.408" rx="4.5" class="E"/></g><g filter="url(#p)"><rect x="158.16" y="229.92" width="15.062" height="15.408" rx="5" class="D"/><rect x="158.66" y="230.42" width="14.062" height="14.408" rx="4.5" class="E"/></g><g filter="url(#q)"><rect x="132.537" y="209.95" width="15.062" height="15.408" rx="5" class="D"/><rect x="133.037" y="210.45" width="14.062" height="14.408" rx="4.5" class="E"/></g><g filter="url(#r)"><rect x="234.681" y="209.95" width="31.384" height="15.408" rx="5" class="D"/><rect x="235.181" y="210.45" width="30.384" height="14.408" rx="4.5" class="E"/></g><g filter="url(#s)"><rect x="178.588" y="189.981" width="15.062" height="15.408" rx="5" class="D"/><rect x="179.088" y="190.481" width="14.062" height="14.408" rx="4.5" class="E"/></g><g filter="url(#t)"><rect x="178.588" y="229.92" width="15.062" height="15.408" rx="5" class="D"/><rect x="179.088" y="230.42" width="14.062" height="14.408" rx="4.5" class="E"/></g><g filter="url(#u)"><rect x="152.966" y="209.95" width="15.062" height="15.408" rx="5" class="D"/><rect x="153.466" y="210.45" width="14.062" height="14.408" rx="4.5" class="E"/></g><g filter="url(#v)"><rect x="271.431" y="209.95" width="15.062" height="15.408" rx="5" class="D"/><rect x="271.931" y="210.45" width="14.062" height="14.408" rx="4.5" class="E"/></g><g filter="url(#w)"><rect x="199.017" y="189.981" width="15.062" height="15.408" rx="5" class="D"/><rect x="199.517" y="190.481" width="14.062" height="14.408" rx="4.5" class="E"/></g><g filter="url(#x)"><rect x="199.017" y="229.92" width="15.062" height="15.408" rx="5" class="D"/><rect x="199.517" y="230.42" width="14.062" height="14.408" rx="4.5" class="E"/></g><g filter="url(#y)"><rect x="173.394" y="209.95" width="15.062" height="15.408" rx="5" class="D"/><rect x="173.894" y="210.45" width="14.062" height="14.408" rx="4.5" class="E"/></g><g filter="url(#z)"><rect x="291.86" y="209.95" width="15.062" height="15.408" rx="5" class="D"/><rect x="292.36" y="210.45" width="14.062" height="14.408" rx="4.5" class="E"/></g><g filter="url(#AA)"><rect x="219.446" y="189.981" width="15.062" height="15.408" rx="5" class="D"/><rect x="219.946" y="190.481" width="14.062" height="14.408" rx="4.5" class="E"/></g><g filter="url(#AB)"><rect x="219.446" y="229.92" width="15.062" height="15.408" rx="5" class="D"/><rect x="219.946" y="230.42" width="14.062" height="14.408" rx="4.5" class="E"/></g><g filter="url(#AC)"><rect x="193.823" y="209.95" width="15.062" height="15.408" rx="5" class="D"/><rect x="194.323" y="210.45" width="14.062" height="14.408" rx="4.5" class="E"/></g><g filter="url(#AD)"><rect x="312.289" y="209.95" width="15.062" height="15.408" rx="5" class="D"/><rect x="312.789" y="210.45" width="14.062" height="14.408" rx="4.5" class="E"/></g><g filter="url(#AE)"><rect x="271.431" y="189.981" width="15.062" height="15.408" rx="5" class="D"/><rect x="271.931" y="190.481" width="14.062" height="14.408" rx="4.5" class="E"/></g><g filter="url(#AF)"><rect x="271.431" y="229.92" width="15.062" height="15.408" rx="5" class="D"/><rect x="271.931" y="230.42" width="14.062" height="14.408" rx="4.5" class="E"/></g><g filter="url(#AG)"><rect x="271.431" y="269.859" width="15.062" height="15.408" rx="5" class="D"/><rect x="271.931" y="270.359" width="14.062" height="14.408" rx="4.5" class="E"/></g><g filter="url(#AH)"><rect x="291.86" y="269.859" width="15.062" height="15.408" rx="5" class="D"/><rect x="292.36" y="270.359" width="14.062" height="14.408" rx="4.5" class="E"/></g><g filter="url(#AI)"><rect x="312.289" y="269.859" width="15.062" height="15.408" rx="5" class="D"/><rect x="312.789" y="270.359" width="14.062" height="14.408" rx="4.5" class="E"/></g><g filter="url(#AJ)"><rect x="291.86" y="249.889" width="15.062" height="15.408" rx="5" class="D"/><rect x="292.36" y="250.389" width="14.062" height="14.408" rx="4.5" class="E"/></g><g filter="url(#AK)"><rect x="291.86" y="189.981" width="15.062" height="15.408" rx="5" class="D"/><rect x="292.36" y="190.481" width="14.062" height="14.408" rx="4.5" class="E"/></g><g filter="url(#AL)"><rect x="291.86" y="229.92" width="15.062" height="15.408" rx="5" class="D"/><rect x="292.36" y="230.42" width="14.062" height="14.408" rx="4.5" class="E"/></g><g filter="url(#AM)"><rect x="312.289" y="189.981" width="15.062" height="15.408" rx="5" class="D"/><rect x="312.789" y="190.481" width="14.062" height="14.408" rx="4.5" class="E"/></g><g filter="url(#AN)"><rect x="312.29" y="229.92" width="15.062" height="15.408" rx="5" class="D"/><rect x="312.79" y="230.42" width="14.062" height="14.408" rx="4.5" class="E"/></g><g filter="url(#AO)"><rect x="239.875" y="189.981" width="26.19" height="15.408" rx="5" class="D"/><rect x="240.375" y="190.481" width="25.19" height="14.408" rx="4.5" class="E"/></g><g filter="url(#AP)"><rect x="239.875" y="229.92" width="26.19" height="15.408" rx="5" class="D"/><rect x="240.375" y="230.42" width="25.19" height="14.408" rx="4.5" class="E"/></g><g filter="url(#AQ)"><rect x="248.785" y="249.889" width="17.28" height="15.408" rx="5" class="D"/><rect x="249.285" y="250.389" width="16.28" height="14.408" rx="4.5" class="E"/></g><g filter="url(#AR)"><rect x="250.801" y="269.859" width="15.264" height="15.408" rx="5" class="D"/><rect x="251.301" y="270.359" width="14.264" height="14.408" rx="4.5" class="E"/></g></g><path d="M188.116 35.421h-37.683c-4.241 0-7.68 3.406-7.68 7.607v59.689c0 4.201 3.439 7.607 7.68 7.607h37.683c4.242 0 7.681-3.406 7.681-7.607V43.028c0-4.201-3.439-7.607-7.681-7.607z" fill="url(#AT)"/><path d="M188.116 35.801h-37.683c-4.03 0-7.296 3.236-7.296 7.227v59.689c0 3.991 3.266 7.227 7.296 7.227h37.683c4.03 0 7.296-3.236 7.296-7.227V43.028c0-3.991-3.266-7.227-7.296-7.227z" stroke="#41ccdb"/><path d="M148.635 49.593c-.616 0-1.168-.149-1.656-.447-.487-.305-.871-.746-1.15-1.321s-.419-1.271-.419-2.087.139-1.512.419-2.087.663-1.012 1.15-1.31c.488-.305 1.04-.458 1.656-.458.624 0 1.176.153 1.656.458.488.298.871.735 1.151 1.31s.419 1.271.419 2.087-.14 1.512-.419 2.087-.663 1.015-1.151 1.321c-.48.298-1.032.447-1.656.447zm0-1.459c.294 0 .549-.082.764-.245.222-.163.394-.422.516-.777.129-.355.193-.813.193-1.374s-.064-1.019-.193-1.374c-.122-.355-.294-.614-.516-.778-.215-.163-.47-.245-.764-.245-.286 0-.541.082-.763.245-.215.163-.387.422-.516.778-.122.355-.183.813-.183 1.374s.061 1.019.183 1.374c.129.355.301.614.516.777.222.163.477.245.763.245zm5.192 1.331v-6.816l.752.745h-2.258V42.01h3.248v7.455h-1.742zm6.275.128c-.617 0-1.169-.149-1.656-.447-.487-.305-.871-.746-1.151-1.321s-.419-1.271-.419-2.087.14-1.512.419-2.087.664-1.012 1.151-1.31c.487-.305 1.039-.458 1.656-.458.624 0 1.176.153 1.656.458.487.298.871.735 1.15 1.31s.42 1.271.42 2.087-.14 1.512-.42 2.087-.663 1.015-1.15 1.321c-.48.298-1.032.447-1.656.447zm0-1.459c.294 0 .548-.082.763-.245.223-.163.395-.422.516-.777.13-.355.194-.813.194-1.374s-.064-1.019-.194-1.374c-.121-.355-.293-.614-.516-.778-.215-.163-.469-.245-.763-.245a1.26 1.26 0 0 0-.764.245c-.215.163-.387.422-.516.778-.122.355-.182.813-.182 1.374s.06 1.019.182 1.374c.129.355.301.614.516.777.223.163.477.245.764.245zm5.191 1.331v-6.816l.753.745h-2.258V42.01h3.247v7.455h-1.742zM146.571 64.68v-6.816l.752.745h-2.258v-1.385h3.248v7.455h-1.742zm4.211 0v-6.816l.752.745h-2.258v-1.385h3.247v7.455h-1.741zm6.275.128c-.617 0-1.169-.149-1.656-.447-.488-.305-.871-.746-1.151-1.321s-.419-1.271-.419-2.087.14-1.512.419-2.087.663-1.012 1.151-1.31c.487-.305 1.039-.458 1.656-.458.623 0 1.175.153 1.656.458.487.298.871.735 1.15 1.31s.42 1.271.42 2.087-.14 1.512-.42 2.087-.663 1.015-1.15 1.321c-.481.298-1.033.447-1.656.447zm0-1.459c.294 0 .548-.082.763-.245.222-.163.394-.422.516-.777.129-.355.194-.813.194-1.374s-.065-1.019-.194-1.374c-.122-.355-.294-.614-.516-.778-.215-.163-.469-.245-.763-.245a1.26 1.26 0 0 0-.764.245c-.215.163-.387.422-.516.778-.122.355-.183.813-.183 1.374s.061 1.019.183 1.374c.129.355.301.614.516.777a1.26 1.26 0 0 0 .764.245zm5.191 1.331v-6.816l.753.745h-2.258v-1.385h3.247v7.455h-1.742zm4.211 0v-6.816l.753.745h-2.259v-1.385h3.248v7.455h-1.742zm-17.824 15.343c-.616 0-1.168-.149-1.656-.447-.487-.305-.871-.745-1.15-1.321s-.419-1.271-.419-2.088.139-1.512.419-2.087.663-1.012 1.15-1.31c.488-.305 1.04-.458 1.656-.458.624 0 1.176.153 1.656.458.488.298.871.735 1.151 1.31s.419 1.271.419 2.087-.14 1.512-.419 2.088-.663 1.015-1.151 1.321c-.48.298-1.032.447-1.656.447zm0-1.459c.294 0 .549-.082.764-.245.222-.163.394-.422.516-.778.129-.355.193-.813.193-1.374s-.064-1.019-.193-1.374c-.122-.355-.294-.614-.516-.777-.215-.163-.47-.245-.764-.245-.286 0-.541.082-.763.245-.215.163-.387.422-.516.777-.122.355-.183.813-.183 1.374s.061 1.019.183 1.374c.129.355.301.614.516.778.222.163.477.245.763.245zm7.298 1.459c-.616 0-1.168-.149-1.656-.447-.487-.305-.871-.745-1.15-1.321s-.42-1.271-.42-2.088.14-1.512.42-2.087.663-1.012 1.15-1.31c.488-.305 1.04-.458 1.656-.458.624 0 1.176.153 1.656.458.488.298.871.735 1.151 1.31s.419 1.271.419 2.087-.14 1.512-.419 2.088-.663 1.015-1.151 1.321c-.48.298-1.032.447-1.656.447zm0-1.459c.294 0 .549-.082.764-.245.222-.163.394-.422.516-.778.129-.355.193-.813.193-1.374s-.064-1.019-.193-1.374c-.122-.355-.294-.614-.516-.777-.215-.163-.47-.245-.764-.245-.287 0-.541.082-.763.245-.215.163-.387.422-.516.777-.122.355-.183.813-.183 1.374s.061 1.019.183 1.374c.129.355.301.614.516.778.222.163.476.245.763.245zm5.192 1.331v-6.816l.752.746h-2.258v-1.385h3.247v7.455h-1.741zm4.21 0v-6.816l.753.746h-2.258v-1.385h3.247v7.455h-1.742z" fill="#00b8cc"/><path d="M148.635 91.433c-.616 0-1.168-.149-1.656-.447-.487-.305-.871-.746-1.15-1.321s-.419-1.271-.419-2.088.139-1.512.419-2.087.663-1.012 1.15-1.31a3.06 3.06 0 0 1 1.656-.458c.624 0 1.176.153 1.656.458.488.298.871.735 1.151 1.31s.419 1.271.419 2.087-.14 1.512-.419 2.088-.663 1.016-1.151 1.321c-.48.298-1.032.447-1.656.447zm0-1.459c.294 0 .549-.081.764-.245.222-.163.394-.422.516-.777.129-.355.193-.812.193-1.374s-.064-1.019-.193-1.374c-.122-.354-.294-.614-.516-.777a1.23 1.23 0 0 0-.764-.245 1.26 1.26 0 0 0-.763.245c-.215.163-.387.423-.516.777-.122.355-.183.813-.183 1.374s.061 1.019.183 1.374c.129.355.301.615.516.777.222.163.477.245.763.245zm5.192 1.331v-6.816l.752.746h-2.258V83.85h3.248v7.455h-1.742zm6.275.128c-.617 0-1.169-.149-1.656-.447-.487-.305-.871-.746-1.151-1.321s-.419-1.271-.419-2.088.14-1.512.419-2.087.664-1.012 1.151-1.31c.487-.305 1.039-.458 1.656-.458.624 0 1.176.153 1.656.458.487.298.871.735 1.15 1.31s.42 1.271.42 2.087-.14 1.512-.42 2.088-.663 1.016-1.15 1.321c-.48.298-1.032.447-1.656.447zm0-1.459c.294 0 .548-.081.763-.245.223-.163.395-.422.516-.777.13-.355.194-.812.194-1.374s-.064-1.019-.194-1.374c-.121-.354-.293-.614-.516-.777-.215-.163-.469-.245-.763-.245a1.26 1.26 0 0 0-.764.245c-.215.163-.387.423-.516.777-.122.355-.182.813-.182 1.374s.06 1.019.182 1.374c.129.355.301.615.516.777.223.163.477.245.764.245zm5.191 1.331v-6.816l.753.746h-2.258V83.85h3.247v7.455h-1.742zm-18.722 15.215v-6.816l.752.745h-2.258v-1.384h3.248v7.455h-1.742zm4.211 0v-6.816l.752.745h-2.258v-1.384h3.247v7.455h-1.741zm6.275.128a3.1 3.1 0 0 1-1.656-.448c-.488-.305-.871-.745-1.151-1.32s-.419-1.271-.419-2.088.14-1.512.419-2.087.663-1.012 1.151-1.31c.487-.305 1.039-.458 1.656-.458.623 0 1.175.153 1.656.458.487.298.871.735 1.15 1.31s.42 1.271.42 2.087-.14 1.513-.42 2.088-.663 1.015-1.15 1.32c-.481.299-1.033.448-1.656.448zm0-1.459c.294 0 .548-.082.763-.245.222-.163.394-.423.516-.778.129-.354.194-.812.194-1.374s-.065-1.018-.194-1.374c-.122-.354-.294-.614-.516-.777-.215-.163-.469-.245-.763-.245a1.26 1.26 0 0 0-.764.245c-.215.163-.387.423-.516.777-.122.356-.183.814-.183 1.374s.061 1.02.183 1.374c.129.355.301.615.516.778a1.26 1.26 0 0 0 .764.245zm5.191 1.331v-6.816l.753.745h-2.258v-1.384h3.247v7.455h-1.742zm4.211 0v-6.816l.753.745h-2.259v-1.384h3.248v7.455h-1.742zm-17.824 15.342c-.616 0-1.168-.149-1.656-.447-.487-.305-.871-.745-1.15-1.321s-.419-1.27-.419-2.087.139-1.512.419-2.087.663-1.012 1.15-1.31c.488-.306 1.04-.458 1.656-.458.624 0 1.176.152 1.656.458.488.298.871.734 1.151 1.31s.419 1.271.419 2.087-.14 1.512-.419 2.087-.663 1.016-1.151 1.321c-.48.298-1.032.447-1.656.447zm0-1.459c.294 0 .549-.081.764-.245.222-.162.394-.422.516-.777.129-.355.193-.813.193-1.374s-.064-1.019-.193-1.374c-.122-.354-.294-.614-.516-.777a1.23 1.23 0 0 0-.764-.245c-.286 0-.541.082-.763.245-.215.163-.387.423-.516.777-.122.355-.183.813-.183 1.374s.061 1.019.183 1.374c.129.355.301.615.516.777a1.25 1.25 0 0 0 .763.245zm7.298 1.459c-.616 0-1.168-.149-1.656-.447-.487-.305-.871-.745-1.15-1.321s-.42-1.27-.42-2.087.14-1.512.42-2.087.663-1.012 1.15-1.31c.488-.306 1.04-.458 1.656-.458.624 0 1.176.152 1.656.458.488.298.871.734 1.151 1.31s.419 1.271.419 2.087-.14 1.512-.419 2.087-.663 1.016-1.151 1.321c-.48.298-1.032.447-1.656.447zm0-1.459c.294 0 .549-.081.764-.245.222-.162.394-.422.516-.777.129-.355.193-.813.193-1.374s-.064-1.019-.193-1.374c-.122-.354-.294-.614-.516-.777a1.23 1.23 0 0 0-.764-.245c-.287 0-.541.082-.763.245-.215.163-.387.423-.516.777-.122.355-.183.813-.183 1.374s.061 1.019.183 1.374c.129.355.301.615.516.777a1.25 1.25 0 0 0 .763.245zm5.192 1.332v-6.817l.752.746h-2.258v-1.385h3.247v7.456h-1.741zm4.21 0v-6.817l.753.746h-2.258v-1.385h3.247v7.456h-1.742z" fill="url(#AU)"/><path d="M172.627 49.593c-.617 0-1.169-.149-1.656-.447-.487-.305-.871-.746-1.15-1.321s-.42-1.271-.42-2.087.14-1.512.42-2.087.663-1.012 1.15-1.31c.487-.305 1.039-.458 1.656-.458.624 0 1.176.153 1.656.458.487.298.871.735 1.15 1.31s.42 1.271.42 2.087-.14 1.512-.42 2.087-.663 1.015-1.15 1.321c-.48.298-1.032.447-1.656.447zm0-1.459c.294 0 .548-.082.763-.245.223-.163.395-.422.517-.777.129-.355.193-.813.193-1.374s-.064-1.019-.193-1.374c-.122-.355-.294-.614-.517-.778-.215-.163-.469-.245-.763-.245-.287 0-.541.082-.763.245-.216.163-.388.422-.517.778-.121.355-.182.813-.182 1.374s.061 1.019.182 1.374c.129.355.301.614.517.777.222.163.476.245.763.245zm5.191 1.331v-6.816l.753.745h-2.258V42.01h3.247v7.455h-1.742zm6.275.128c-.616 0-1.168-.149-1.656-.447-.487-.305-.871-.746-1.15-1.321s-.419-1.271-.419-2.087.139-1.512.419-2.087.663-1.012 1.15-1.31c.488-.305 1.04-.458 1.656-.458.624 0 1.176.153 1.656.458.488.298.871.735 1.151 1.31s.419 1.271.419 2.087-.14 1.512-.419 2.087-.663 1.015-1.151 1.321c-.48.298-1.032.447-1.656.447zm0-1.459c.294 0 .549-.082.764-.245.222-.163.395-.422.516-.777.129-.355.193-.813.193-1.374s-.064-1.019-.193-1.374c-.121-.355-.294-.614-.516-.778-.215-.163-.47-.245-.764-.245-.286 0-.54.082-.763.245-.215.163-.387.422-.516.778-.122.355-.183.813-.183 1.374s.061 1.019.183 1.374c.129.355.301.614.516.777.223.163.477.245.763.245zm5.192 1.331v-6.816l.753.745h-2.258V42.01h3.247v7.455h-1.742zM170.562 64.68v-6.816l.753.745h-2.258v-1.385h3.247v7.455h-1.742zm4.211 0v-6.816l.753.745h-2.258v-1.385h3.247v7.455h-1.742zm6.276.128c-.617 0-1.169-.149-1.656-.447-.488-.305-.871-.746-1.151-1.321s-.419-1.271-.419-2.087.14-1.512.419-2.087.663-1.012 1.151-1.31c.487-.305 1.039-.458 1.656-.458.623 0 1.175.153 1.656.458.487.298.871.735 1.15 1.31s.42 1.271.42 2.087-.14 1.512-.42 2.087-.663 1.015-1.15 1.321c-.481.298-1.033.447-1.656.447zm0-1.459c.293 0 .548-.082.763-.245.222-.163.394-.422.516-.777.129-.355.194-.813.194-1.374s-.065-1.019-.194-1.374c-.122-.355-.294-.614-.516-.778-.215-.163-.47-.245-.763-.245-.287 0-.542.082-.764.245-.215.163-.387.422-.516.778-.122.355-.183.813-.183 1.374s.061 1.019.183 1.374c.129.355.301.614.516.777.222.163.477.245.764.245zm5.191 1.331v-6.816l.753.745h-2.258v-1.385h3.247v7.455h-1.742zm4.21 0v-6.816l.753.745h-2.258v-1.385h3.247v7.455h-1.742zm-17.823 15.343c-.617 0-1.169-.149-1.656-.447-.487-.305-.871-.745-1.15-1.321s-.42-1.271-.42-2.088.14-1.512.42-2.087.663-1.012 1.15-1.31c.487-.305 1.039-.458 1.656-.458.624 0 1.176.153 1.656.458.487.298.871.735 1.15 1.31s.42 1.271.42 2.087-.14 1.512-.42 2.088-.663 1.015-1.15 1.321c-.48.298-1.032.447-1.656.447zm0-1.459c.294 0 .548-.082.763-.245.223-.163.395-.422.517-.778.129-.355.193-.813.193-1.374s-.064-1.019-.193-1.374c-.122-.355-.294-.614-.517-.777-.215-.163-.469-.245-.763-.245-.287 0-.541.082-.763.245-.216.163-.388.422-.517.777-.121.355-.182.813-.182 1.374s.061 1.019.182 1.374c.129.355.301.614.517.778.222.163.476.245.763.245zm7.298 1.459c-.617 0-1.169-.149-1.656-.447-.487-.305-.871-.745-1.15-1.321s-.42-1.271-.42-2.088.14-1.512.42-2.087.663-1.012 1.15-1.31c.487-.305 1.039-.458 1.656-.458.624 0 1.175.153 1.656.458.487.298.871.735 1.151 1.31s.419 1.271.419 2.087-.14 1.512-.419 2.088-.664 1.015-1.151 1.321c-.481.298-1.032.447-1.656.447zm0-1.459c.294 0 .549-.082.764-.245.222-.163.394-.422.516-.778.129-.355.193-.813.193-1.374s-.064-1.019-.193-1.374c-.122-.355-.294-.614-.516-.777-.215-.163-.47-.245-.764-.245-.287 0-.541.082-.763.245-.215.163-.387.422-.516.777-.123.355-.183.813-.183 1.374s.06 1.019.183 1.374c.129.355.301.614.516.778.222.163.476.245.763.245zm5.191 1.331v-6.816l.753.746h-2.258v-1.385h3.247v7.455h-1.742zm4.211 0v-6.816l.752.746h-2.258v-1.385h3.248v7.455h-1.742z" fill="#00b8cc"/><path d="M172.627 91.433c-.617 0-1.169-.149-1.656-.447-.487-.305-.871-.746-1.15-1.321s-.42-1.271-.42-2.088.14-1.512.42-2.087.663-1.012 1.15-1.31c.487-.305 1.039-.458 1.656-.458.624 0 1.176.153 1.656.458.487.298.871.735 1.15 1.31s.42 1.271.42 2.087-.14 1.512-.42 2.088-.663 1.016-1.15 1.321c-.48.298-1.032.447-1.656.447zm0-1.459c.294 0 .548-.081.763-.245.223-.163.395-.422.517-.777.129-.355.193-.812.193-1.374s-.064-1.019-.193-1.374c-.122-.354-.294-.614-.517-.777-.215-.163-.469-.245-.763-.245-.287 0-.541.082-.763.245-.216.163-.388.423-.517.777-.121.355-.182.813-.182 1.374s.061 1.019.182 1.374c.129.355.301.615.517.777a1.25 1.25 0 0 0 .763.245zm5.191 1.331v-6.816l.753.746h-2.258V83.85h3.247v7.455h-1.742zm6.275.128c-.616 0-1.168-.149-1.656-.447-.487-.305-.871-.746-1.15-1.321s-.419-1.271-.419-2.088.139-1.512.419-2.087.663-1.012 1.15-1.31a3.06 3.06 0 0 1 1.656-.458c.624 0 1.176.153 1.656.458.488.298.871.735 1.151 1.31s.419 1.271.419 2.087-.14 1.512-.419 2.088-.663 1.016-1.151 1.321c-.48.298-1.032.447-1.656.447zm0-1.459c.294 0 .549-.081.764-.245.222-.163.395-.422.516-.777.129-.355.193-.812.193-1.374s-.064-1.019-.193-1.374c-.121-.354-.294-.614-.516-.777a1.23 1.23 0 0 0-.764-.245 1.26 1.26 0 0 0-.763.245c-.215.163-.387.423-.516.777-.122.355-.183.813-.183 1.374s.061 1.019.183 1.374c.129.355.301.615.516.777.223.163.477.245.763.245zm5.192 1.331v-6.816l.753.746h-2.258V83.85h3.247v7.455h-1.742zm-18.723 15.215v-6.816l.753.745h-2.258v-1.384h3.247v7.455h-1.742zm4.211 0v-6.816l.753.745h-2.258v-1.384h3.247v7.455h-1.742zm6.276.128a3.1 3.1 0 0 1-1.656-.448c-.488-.305-.871-.745-1.151-1.32s-.419-1.271-.419-2.088.14-1.512.419-2.087.663-1.012 1.151-1.31c.487-.305 1.039-.458 1.656-.458.623 0 1.175.153 1.656.458.487.298.871.735 1.15 1.31s.42 1.271.42 2.087-.14 1.513-.42 2.088-.663 1.015-1.15 1.32c-.481.299-1.033.448-1.656.448zm0-1.459c.293 0 .548-.082.763-.245.222-.163.394-.423.516-.778.129-.354.194-.812.194-1.374s-.065-1.018-.194-1.374c-.122-.354-.294-.614-.516-.777-.215-.163-.47-.245-.763-.245a1.26 1.26 0 0 0-.764.245c-.215.163-.387.423-.516.777-.122.356-.183.814-.183 1.374s.061 1.02.183 1.374c.129.355.301.615.516.778a1.26 1.26 0 0 0 .764.245zm5.191 1.331v-6.816l.753.745h-2.258v-1.384h3.247v7.455h-1.742zm4.21 0v-6.816l.753.745h-2.258v-1.384h3.247v7.455h-1.742zm-17.823 15.342c-.617 0-1.169-.149-1.656-.447-.487-.305-.871-.745-1.15-1.321s-.42-1.27-.42-2.087.14-1.512.42-2.087.663-1.012 1.15-1.31c.487-.306 1.039-.458 1.656-.458.624 0 1.176.152 1.656.458.487.298.871.734 1.15 1.31s.42 1.271.42 2.087-.14 1.512-.42 2.087-.663 1.016-1.15 1.321c-.48.298-1.032.447-1.656.447zm0-1.459a1.22 1.22 0 0 0 .763-.245c.223-.162.395-.422.517-.777.129-.355.193-.813.193-1.374s-.064-1.019-.193-1.374c-.122-.354-.294-.614-.517-.777-.215-.163-.469-.245-.763-.245-.287 0-.541.082-.763.245-.216.163-.388.423-.517.777-.121.355-.182.813-.182 1.374s.061 1.019.182 1.374c.129.355.301.615.517.777a1.25 1.25 0 0 0 .763.245zm7.298 1.459c-.617 0-1.169-.149-1.656-.447-.487-.305-.871-.745-1.15-1.321s-.42-1.27-.42-2.087.14-1.512.42-2.087.663-1.012 1.15-1.31c.487-.306 1.039-.458 1.656-.458.624 0 1.175.152 1.656.458.487.298.871.734 1.151 1.31s.419 1.271.419 2.087-.14 1.512-.419 2.087-.664 1.016-1.151 1.321c-.481.298-1.032.447-1.656.447zm0-1.459c.294 0 .549-.081.764-.245.222-.162.394-.422.516-.777.129-.355.193-.813.193-1.374s-.064-1.019-.193-1.374c-.122-.354-.294-.614-.516-.777a1.23 1.23 0 0 0-.764-.245c-.287 0-.541.082-.763.245-.215.163-.387.423-.516.777-.123.355-.183.813-.183 1.374s.06 1.019.183 1.374c.129.355.301.615.516.777a1.25 1.25 0 0 0 .763.245zm5.191 1.332v-6.817l.753.746h-2.258v-1.385h3.247v7.456h-1.742zm4.211 0v-6.817l.752.746h-2.258v-1.385h3.248v7.456h-1.742z" fill="url(#AV)"/><g filter="url(#AS)"><mask id="A" maskUnits="userSpaceOnUse" x="148" y="39" width="54" height="76" mask-type="alpha"><path d="M148.805 47.36c0-4.201 3.438-7.607 7.68-7.607h37.683c4.241 0 7.68 3.406 7.68 7.607v59.689c0 4.201-3.439 7.607-7.68 7.607h-37.683c-4.242 0-7.68-3.406-7.68-7.607V47.36zm34.917 4.221l.382.47 5.111 6.282 3.188-4.971c.228-.355.702-.459 1.06-.234s.464.696.237 1.05l-3.763 5.866-.574.895-.672-.826-5.401-6.639-12.201 5.812-.328.156-.33-.152-6.865-3.174-5.808 4.967c-.321.275-.806.239-1.084-.079s-.241-.798.08-1.073l6.184-5.289.376-.322.451.208 6.986 3.229 12.422-5.917.549-.261zm-26.466 34.768c-.424 0-.768.341-.768.761s.344.761.768.761h27.896c.331 1.1 1.359 1.903 2.577 1.903a2.69 2.69 0 0 0 2.578-1.903h3.09c.424 0 .768-.34.768-.761s-.344-.761-.768-.761h-3.09c-.331-1.1-1.36-1.902-2.578-1.902s-2.246.802-2.577 1.902h-27.896zm-.768-16.974c0-.42.344-.761.768-.761h25.443c.33-1.1 1.36-1.902 2.578-1.902s2.246.802 2.577 1.902h5.543c.424 0 .768.341.768.761s-.344.761-.768.761h-5.543c-.331 1.1-1.359 1.902-2.577 1.902s-2.248-.802-2.578-1.902h-25.443c-.424 0-.768-.341-.768-.761zm.768 8.107c-.424 0-.768.341-.768.761s.344.761.768.761h6.747c.33 1.1 1.359 1.902 2.577 1.902s2.247-.802 2.577-1.902h24.24c.424 0 .768-.341.768-.761s-.344-.761-.768-.761h-24.24c-.33-1.1-1.359-1.902-2.577-1.902s-2.247.802-2.577 1.902h-6.747zm.027 24.669c.412.256.872.383 1.382.383.516 0 .977-.127 1.383-.383s.725-.627.958-1.114c.24-.493.36-1.089.36-1.789s-.12-1.293-.36-1.78c-.233-.493-.553-.867-.958-1.123a2.54 2.54 0 0 0-1.383-.383c-.51 0-.97.128-1.382.383-.406.256-.725.63-.959 1.123-.233.487-.35 1.08-.35 1.78s.117 1.296.35 1.789c.234.487.553.858.959 1.114zm2.166-.886c-.221.159-.483.238-.784.238-.288 0-.547-.079-.774-.238-.221-.164-.396-.413-.525-.748-.123-.335-.185-.758-.185-1.269 0-.517.062-.94.185-1.269.129-.335.304-.581.525-.739a1.29 1.29 0 0 1 .774-.246c.301 0 .563.082.784.246.221.158.393.405.516.739.129.329.193.752.193 1.269 0 .511-.064.934-.193 1.269-.123.335-.295.584-.516.748zm3.75-4.217v5.395h1.198v-6.39h-2.562v.995h1.364zm3.786 5.103c.412.256.873.383 1.383.383.516 0 .977-.127 1.382-.383s.725-.627.959-1.114c.239-.493.359-1.089.359-1.789s-.12-1.293-.359-1.78c-.234-.493-.553-.867-.959-1.123s-.866-.383-1.382-.383a2.57 2.57 0 0 0-1.383.383c-.405.256-.725.63-.958 1.123-.234.487-.35 1.08-.35 1.78s.116 1.296.35 1.789c.233.487.553.858.958 1.114zm2.166-.886c-.221.159-.482.238-.783.238-.289 0-.547-.079-.774-.238-.222-.164-.397-.413-.526-.748-.123-.335-.184-.758-.184-1.269 0-.517.061-.94.184-1.269.129-.335.304-.581.526-.739.227-.164.485-.246.774-.246.301 0 .562.082.783.246.221.158.393.405.516.739.129.329.194.752.194 1.269 0 .511-.065.934-.194 1.269-.123.335-.295.584-.516.748zm3.75-4.217v5.395h1.198v-6.39h-2.562v.995h1.364zm3.787 5.103a2.56 2.56 0 0 0 1.382.383c.516 0 .977-.127 1.383-.383s.725-.627.958-1.114c.24-.493.36-1.089.36-1.789s-.12-1.293-.36-1.78c-.233-.493-.553-.867-.958-1.123a2.54 2.54 0 0 0-1.383-.383c-.51 0-.971.128-1.382.383-.406.256-.725.63-.959 1.123-.233.487-.35 1.08-.35 1.78s.117 1.296.35 1.789c.234.487.553.858.959 1.114zm2.166-.886a1.31 1.31 0 0 1-.784.238c-.289 0-.547-.079-.774-.238-.221-.164-.396-.413-.525-.748-.123-.335-.185-.758-.185-1.269 0-.517.062-.94.185-1.269.129-.335.304-.581.525-.739.227-.164.485-.246.774-.246a1.28 1.28 0 0 1 .784.246c.221.158.393.405.516.739.129.329.193.752.193 1.269 0 .511-.064.934-.193 1.269-.123.335-.295.584-.516.748zm4.035.886c.412.256.872.383 1.382.383.516 0 .977-.127 1.383-.383s.725-.627.958-1.114c.24-.493.36-1.089.36-1.789s-.12-1.293-.36-1.78c-.233-.493-.553-.867-.958-1.123a2.54 2.54 0 0 0-1.383-.383c-.51 0-.97.128-1.382.383-.406.256-.725.63-.959 1.123-.233.487-.35 1.08-.35 1.78s.117 1.296.35 1.789c.234.487.553.858.959 1.114zm2.166-.886c-.221.159-.483.238-.784.238a1.32 1.32 0 0 1-.774-.238c-.221-.164-.396-.413-.525-.748-.123-.335-.184-.758-.184-1.269 0-.517.061-.94.184-1.269.129-.335.304-.581.525-.739a1.29 1.29 0 0 1 .774-.246c.301 0 .563.082.784.246.221.158.393.405.516.739.129.329.193.752.193 1.269 0 .511-.064.934-.193 1.269-.123.335-.295.584-.516.748zm3.75-4.217v5.395h1.198v-6.39h-2.562v.995h1.364zm3.51 0v5.395h1.198v-6.39h-2.562v.995h1.364z" fill="#fff" class="F"/></mask><g mask="url(#A)"><path d="M148.805 47.36c0-4.201 3.438-7.607 7.68-7.607h37.683c4.241 0 7.68 3.406 7.68 7.607v59.689c0 4.201-3.439 7.607-7.68 7.607h-37.683c-4.242 0-7.68-3.406-7.68-7.607V47.36zm34.917 4.221l.382.47 5.111 6.282 3.188-4.971c.228-.355.702-.459 1.06-.234s.464.696.237 1.05l-3.763 5.866-.574.895-.672-.826-5.401-6.639-12.201 5.812-.328.156-.33-.152-6.865-3.174-5.808 4.967c-.321.275-.806.239-1.084-.079s-.241-.798.08-1.073l6.184-5.289.376-.322.451.208 6.986 3.229 12.422-5.917.549-.261zm-26.466 34.768c-.424 0-.768.341-.768.761s.344.761.768.761h27.896c.331 1.1 1.359 1.903 2.577 1.903a2.69 2.69 0 0 0 2.578-1.903h3.09c.424 0 .768-.34.768-.761s-.344-.761-.768-.761h-3.09c-.331-1.1-1.36-1.902-2.578-1.902s-2.246.802-2.577 1.902h-27.896zm-.768-16.974c0-.42.344-.761.768-.761h25.443c.33-1.1 1.36-1.902 2.578-1.902s2.246.802 2.577 1.902h5.543c.424 0 .768.341.768.761s-.344.761-.768.761h-5.543c-.331 1.1-1.359 1.902-2.577 1.902s-2.248-.802-2.578-1.902h-25.443c-.424 0-.768-.341-.768-.761zm.768 8.107c-.424 0-.768.341-.768.761s.344.761.768.761h6.747c.33 1.1 1.359 1.902 2.577 1.902s2.247-.802 2.577-1.902h24.24c.424 0 .768-.341.768-.761s-.344-.761-.768-.761h-24.24c-.33-1.1-1.359-1.902-2.577-1.902s-2.247.802-2.577 1.902h-6.747zm.027 24.669c.412.256.872.383 1.382.383.516 0 .977-.127 1.383-.383s.725-.627.958-1.114c.24-.493.36-1.089.36-1.789s-.12-1.293-.36-1.78c-.233-.493-.553-.867-.958-1.123a2.54 2.54 0 0 0-1.383-.383c-.51 0-.97.128-1.382.383-.406.256-.725.63-.959 1.123-.233.487-.35 1.08-.35 1.78s.117 1.296.35 1.789c.234.487.553.858.959 1.114zm2.166-.886c-.221.159-.483.238-.784.238-.288 0-.547-.079-.774-.238-.221-.164-.396-.413-.525-.748-.123-.335-.185-.758-.185-1.269 0-.517.062-.94.185-1.269.129-.335.304-.581.525-.739a1.29 1.29 0 0 1 .774-.246c.301 0 .563.082.784.246.221.158.393.405.516.739.129.329.193.752.193 1.269 0 .511-.064.934-.193 1.269-.123.335-.295.584-.516.748zm3.75-4.217v5.395h1.198v-6.39h-2.562v.995h1.364zm3.786 5.103c.412.256.873.383 1.383.383.516 0 .977-.127 1.382-.383s.725-.627.959-1.114c.239-.493.359-1.089.359-1.789s-.12-1.293-.359-1.78c-.234-.493-.553-.867-.959-1.123s-.866-.383-1.382-.383a2.57 2.57 0 0 0-1.383.383c-.405.256-.725.63-.958 1.123-.234.487-.35 1.08-.35 1.78s.116 1.296.35 1.789c.233.487.553.858.958 1.114zm2.166-.886c-.221.159-.482.238-.783.238-.289 0-.547-.079-.774-.238-.222-.164-.397-.413-.526-.748-.123-.335-.184-.758-.184-1.269 0-.517.061-.94.184-1.269.129-.335.304-.581.526-.739.227-.164.485-.246.774-.246.301 0 .562.082.783.246.221.158.393.405.516.739.129.329.194.752.194 1.269 0 .511-.065.934-.194 1.269-.123.335-.295.584-.516.748zm3.75-4.217v5.395h1.198v-6.39h-2.562v.995h1.364zm3.787 5.103a2.56 2.56 0 0 0 1.382.383c.516 0 .977-.127 1.383-.383s.725-.627.958-1.114c.24-.493.36-1.089.36-1.789s-.12-1.293-.36-1.78c-.233-.493-.553-.867-.958-1.123a2.54 2.54 0 0 0-1.383-.383c-.51 0-.971.128-1.382.383-.406.256-.725.63-.959 1.123-.233.487-.35 1.08-.35 1.78s.117 1.296.35 1.789c.234.487.553.858.959 1.114zm2.166-.886a1.31 1.31 0 0 1-.784.238c-.289 0-.547-.079-.774-.238-.221-.164-.396-.413-.525-.748-.123-.335-.185-.758-.185-1.269 0-.517.062-.94.185-1.269.129-.335.304-.581.525-.739.227-.164.485-.246.774-.246a1.28 1.28 0 0 1 .784.246c.221.158.393.405.516.739.129.329.193.752.193 1.269 0 .511-.064.934-.193 1.269-.123.335-.295.584-.516.748zm4.035.886c.412.256.872.383 1.382.383.516 0 .977-.127 1.383-.383s.725-.627.958-1.114c.24-.493.36-1.089.36-1.789s-.12-1.293-.36-1.78c-.233-.493-.553-.867-.958-1.123a2.54 2.54 0 0 0-1.383-.383c-.51 0-.97.128-1.382.383-.406.256-.725.63-.959 1.123-.233.487-.35 1.08-.35 1.78s.117 1.296.35 1.789c.234.487.553.858.959 1.114zm2.166-.886c-.221.159-.483.238-.784.238a1.32 1.32 0 0 1-.774-.238c-.221-.164-.396-.413-.525-.748-.123-.335-.184-.758-.184-1.269 0-.517.061-.94.184-1.269.129-.335.304-.581.525-.739a1.29 1.29 0 0 1 .774-.246c.301 0 .563.082.784.246.221.158.393.405.516.739.129.329.193.752.193 1.269 0 .511-.064.934-.193 1.269-.123.335-.295.584-.516.748zm3.75-4.217v5.395h1.198v-6.39h-2.562v.995h1.364zm3.51 0v5.395h1.198v-6.39h-2.562v.995h1.364z" fill="url(#AW)" class="F"/><path d="M184.104 52.05l.598-.477-.598.477zm-.382-.47l.598-.477-.382-.47-.549.261.333.686zm5.493 6.752l-.598.477.672.826.574-.895-.648-.408zm3.188-4.971l-.648-.408.648.408zm1.297.816l-.648-.408.648.408zm-3.763 5.866l-.648-.408.648.408zm-.574.895l-.598.477.672.826.574-.895-.648-.408zm-.672-.826l-.598.477.598-.477zm-5.401-6.639l.598-.477-.382-.47-.549.261.333.686zm-12.201 5.812l.333.686-.333-.686zm-.328.156l-.325.689.33.153.328-.156-.333-.686zm-.33-.152l.325-.689-.325.689zm-6.865-3.174l.325-.689-.451-.208-.376.322.502.576zm-5.808 4.967l-.502-.576.502.576zm-1.004-1.152l.502.576-.502-.576zm6.184-5.289l-.502-.576.502.576zm.376-.322l.325-.689-.45-.208-.376.322.501.576zm.451.208l.325-.689-.325.689zm6.986 3.229l-.325.689.33.152.328-.156-.333-.685zm12.422-5.917l.333.686-.333-.686zm1.979 36.028l.736-.217-.164-.544h-.572v.761zm5.155 0v-.761h-.573l-.164.544.737.217zm0-1.522l-.737.217.164.544h.573v-.761zm-5.155 0v.761h.572l.164-.544-.736-.217zm-2.453-17.734v.761h.573l.164-.544-.737-.217zm5.154 0l-.735.217.163.544h.572v-.761zm0 1.521v-.761h-.572l-.163.544.735.217zm-5.154 0l.737-.217-.164-.544h-.573v.761zm-18.696 8.867l.736-.217-.164-.544h-.572v.761zm5.154 0v-.761h-.573l-.163.544.736.217zm0-1.521l-.736.217.163.544h.573v-.761zm-5.154 0v.761h.572l.164-.544-.736-.217zm-6.72 24.669l-.413.641.005.003.408-.644zm2.765 0l-.413-.642.413.642zm.958-1.114l-.692-.33-.001.004.693.326zm0-3.569l-.695.323.002.004.003.005.69-.333zm-.958-1.123l.412-.642-.412.642zm-2.765 0l-.408-.645-.005.003.413.642zm-.959 1.123l.694.326.002-.003-.696-.323zm0 3.569l-.695.324.002.003.693-.327zm3.125.228l.449.617.006-.004.006-.004-.461-.609zm-1.558 0l-.461.609.01.007.01.007.441-.623zm-.525-.748l-.722.26.002.005.002.006.718-.271zm0-2.538l-.718-.272-.002.007.72.265zm.525-.74l.45.616.003-.002-.453-.615zm1.558 0l-.461.609.005.004.006.004.45-.616zm.516.74l-.722.26.003.008.003.008.716-.275zm0 2.538l-.718-.272-.002.006-.002.006.722.26zm3.234 1.926h-.768v.761h.768v-.761zm0-5.395h.768v-.761h-.768v.761zm1.198 5.395v.761h.768v-.761h-.768zm0-6.39h.768v-.761h-.768v.761zm-2.562 0v-.761h-.768v.761h.768zm0 .995h-.768v.761h.768v-.761zm5.15 5.103l-.412.641.004.003.408-.644zm2.765 0l-.412-.642.412.642zm.959-1.114l-.692-.33-.002.004.694.326zm0-3.569l-.696.323.003.004.002.005.691-.333zm-3.724-1.123l-.408-.645-.004.003.412.642zm-.958 1.123l.694.326.001-.003-.695-.323zm0 3.569l-.696.324.002.003.694-.327zm3.124.228l.45.617.006-.004.005-.004-.461-.609zm-1.557 0l-.461.609.009.007.01.007.442-.623zm-.526-.748l-.722.26.003.005.002.006.717-.271zm0-2.538l-.717-.272-.003.007.72.265zm.526-.74l.449.616.003-.002-.452-.615zm1.557 0l-.461.609.006.004.006.004.449-.616zm.516.74l-.721.26.002.008.004.008.715-.275zm0 2.538l-.717-.272-.002.006-.002.006.721.26zm3.234 1.926h-.768v.761h.768v-.761zm0-5.395h.768v-.761h-.768v.761zm1.198 5.395v.761h.768v-.761h-.768zm0-6.39h.768v-.761h-.768v.761zm-2.562 0v-.761h-.768v.761h.768zm0 .995h-.768v.761h.768v-.761zm5.151 5.103l-.413.641.005.003.408-.644zm2.765 0l-.413-.642.413.642zm.958-1.114l-.692-.33-.001.004.693.326zm0-3.569l-.695.323.002.004.003.005.69-.333zm-3.723-1.123l-.408-.645-.005.003.413.642zm-.959 1.123l.694.326.002-.003-.696-.323zm0 3.569l-.695.324.002.003.693-.327zm3.125.228l.45.617.005-.004.005-.004-.46-.609zm-1.558 0l-.461.609.01.007.009.007.442-.623zm-.525-.748l-.722.26.002.005.002.006.718-.271zm0-2.538l-.718-.272-.003.007.721.265zm.525-.74l.45.616.003-.002-.453-.615zm1.558 0l-.461.609.005.004.006.004.45-.616zm.516.74l-.722.26.003.008.003.008.716-.275zm0 2.538l-.718-.272-.002.006-.002.006.722.26zm3.519 1.634l-.412.641.004.003.408-.644zm2.765 0l-.412-.642.412.642zm.958-1.114l-.692-.33-.001.004.693.326zm0-3.569l-.695.323.003.004.003.005.689-.333zm-3.723-1.123l-.408-.645-.004.003.412.642zm-.959 1.123l.695.326.001-.003-.696-.323zm0 3.569l-.695.324.002.003.693-.327zm3.125.228l.45.617.005-.004.006-.004-.461-.609zm-1.558 0l-.461.609.01.007.01.007.441-.623zm-.525-.748l-.721.26.001.005.002.006.718-.271zm0-2.538l-.718-.272-.002.007.72.265zm.525-.74l.45.616.003-.002-.453-.615zm1.558 0l-.461.609.006.004.005.004.45-.616zm.516.74l-.721.26.002.008.003.008.716-.275zm0 2.538l-.717-.272-.003.006-.001.006.721.26zm3.234 1.926h-.768v.761h.768v-.761zm0-5.395h.768v-.761h-.768v.761zm1.198 5.395v.761h.768v-.761h-.768zm0-6.39h.768v-.761h-.768v.761zm-2.562 0v-.761h-.768v.761h.768zm0 .995h-.768v.761h.768v-.761zm4.874 5.395h-.768v.761h.768v-.761zm0-5.395h.768v-.761h-.768v.761zm1.198 5.395v.761h.768v-.761h-.768zm0-6.39h.768v-.761h-.768v.761zm-2.562 0v-.761h-.768v.761h.768zm0 .995h-.768v.761h.768v-.761zm-34.466-58.056c-4.666 0-8.448 3.747-8.448 8.368h1.536c0-3.781 3.095-6.847 6.912-6.847v-1.522zm37.683 0h-37.683v1.522h37.683v-1.522zm8.448 8.368c0-4.622-3.782-8.368-8.448-8.368v1.522c3.817 0 6.912 3.065 6.912 6.847h1.536zm0 59.689V47.36h-1.536v59.689h1.536zm-8.448 8.368c4.666 0 8.448-3.747 8.448-8.368h-1.536c0 3.78-3.095 6.846-6.912 6.846v1.522zm-37.683 0h37.683v-1.522h-37.683v1.522zm-8.448-8.368c0 4.621 3.782 8.368 8.448 8.368v-1.522c-3.817 0-6.912-3.066-6.912-6.846h-1.536zm0-59.689v59.689h1.536V47.36h-1.536zm36.665 4.213l-.382-.47-1.196.955.382.47 1.196-.955zm5.111 6.282l-5.111-6.282-1.196.955 5.111 6.282 1.196-.955zm1.942-4.901l-3.188 4.971 1.296.816 3.189-4.97-1.297-.816zm2.12-.468c-.716-.451-1.665-.241-2.12.468l1.297.816.823-1.284zm.473 2.1c.455-.709.244-1.649-.473-2.1l-.823 1.284 1.296.816zm-3.763 5.866l3.763-5.866-1.296-.816-3.763 5.866 1.296.816zm-.574.895l.574-.895-1.296-.816-.575.895 1.297.816zm-1.918-.757l.672.826 1.196-.955-.672-.826-1.196.955zm-5.401-6.639l5.401 6.639 1.196-.955-5.401-6.639-1.196.955zm-11.27 6.02l12.201-5.812-.666-1.371-12.201 5.812.666 1.371zm-.328.156l.328-.156-.666-1.371-.328.156.666 1.371zm-.988-.149l.33.152.65-1.379-.33-.152-.65 1.379zm-6.865-3.174l6.865 3.174.65-1.379-6.865-3.173-.65 1.379zm-4.981 4.854l5.808-4.967-1.004-1.152-5.808 4.967 1.004 1.152zm-2.167-.157a1.55 1.55 0 0 0 2.167.157l-1.004-1.152-1.163.994zm.159-2.146a1.51 1.51 0 0 0-.159 2.146l1.163-.994-1.004-1.152zm6.184-5.289l-6.184 5.289 1.004 1.152 6.184-5.289-1.004-1.152zm.377-.322l-.377.322 1.004 1.152.376-.322-1.003-1.152zm1.277.095l-.451-.208-.649 1.379.45.208.65-1.379zm6.986 3.229l-6.986-3.229-.65 1.379 6.986 3.229.65-1.379zm11.764-5.913l-12.422 5.917.666 1.371 12.422-5.917-.666-1.371zm.549-.261l-.549.261.666 1.371.549-.261-.666-1.371zM157.256 87.11v-1.522a1.53 1.53 0 0 0-1.536 1.522h1.536zm0 0h-1.536c0 .841.687 1.521 1.536 1.521V87.11zm27.896 0h-27.896v1.521h27.896V87.11zm2.577 1.903a1.92 1.92 0 0 1-1.841-1.359l-1.472.434c.424 1.414 1.746 2.447 3.313 2.447v-1.522zm1.841-1.359a1.92 1.92 0 0 1-1.841 1.359v1.522c1.567 0 2.889-1.032 3.313-2.447l-1.472-.434zm3.827-.544h-3.09v1.521h3.09V87.11zm0 0v1.521a1.53 1.53 0 0 0 1.536-1.521h-1.536zm0 0h1.536a1.53 1.53 0 0 0-1.536-1.522v1.522zm-3.09 0h3.09v-1.522h-3.09v1.522zm-2.578-1.902a1.92 1.92 0 0 1 1.841 1.358l1.472-.434c-.424-1.413-1.746-2.446-3.313-2.446v1.522zm-1.841 1.358a1.92 1.92 0 0 1 1.841-1.358v-1.522c-1.567 0-2.889 1.032-3.313 2.446l1.472.434zm-28.632.544h27.896v-1.522h-27.896v1.522zm0-19.256c-.849 0-1.536.681-1.536 1.521h1.536v-1.521zm25.443 0h-25.443v1.521h25.443v-1.521zm2.578-1.902c-1.568 0-2.889 1.032-3.314 2.446l1.473.434a1.92 1.92 0 0 1 1.841-1.359v-1.522zm3.313 2.446c-.425-1.414-1.746-2.446-3.313-2.446v1.522a1.92 1.92 0 0 1 1.841 1.359l1.472-.434zm4.807-.544h-5.544v1.521h5.544v-1.521zm1.536 1.521a1.53 1.53 0 0 0-1.536-1.521v1.521h1.536zm-1.536 1.521a1.53 1.53 0 0 0 1.536-1.521h-1.536v1.521zm-5.544 0h5.544v-1.521h-5.544v1.521zm-2.576 1.902c1.567 0 2.888-1.032 3.313-2.446l-1.472-.434a1.92 1.92 0 0 1-1.841 1.359v1.521zm-3.314-2.446c.425 1.414 1.746 2.446 3.314 2.446v-1.521a1.92 1.92 0 0 1-1.841-1.359l-1.473.434zm-24.707.544h25.443v-1.521h-25.443v1.521zm-1.536-1.521a1.53 1.53 0 0 0 1.536 1.521v-1.521h-1.536zm1.536 8.867v-1.521a1.53 1.53 0 0 0-1.536 1.521h1.536zm0 0h-1.536a1.53 1.53 0 0 0 1.536 1.521v-1.521zm6.747 0h-6.747v1.521h6.747v-1.521zm2.577 1.902a1.92 1.92 0 0 1-1.841-1.359l-1.473.434c.425 1.414 1.747 2.446 3.314 2.446v-1.521zm1.841-1.359a1.92 1.92 0 0 1-1.841 1.359v1.521c1.567 0 2.888-1.032 3.313-2.446l-1.472-.434zm24.976-.544h-24.24v1.521h24.24v-1.521zm0 0v1.521a1.53 1.53 0 0 0 1.536-1.521h-1.536zm0 0h1.536a1.53 1.53 0 0 0-1.536-1.521v1.521zm-24.24 0h24.24v-1.521h-24.24v1.521zm-2.577-1.902a1.92 1.92 0 0 1 1.841 1.359l1.472-.434c-.425-1.414-1.746-2.446-3.313-2.446v1.522zm-1.841 1.359a1.92 1.92 0 0 1 1.841-1.359v-1.522c-1.567 0-2.889 1.032-3.314 2.446l1.473.434zm-7.483.544h6.747v-1.521h-6.747v1.521zm1.409 23.531a1.8 1.8 0 0 1-.974-.267l-.816 1.288c.54.336 1.144.5 1.79.5v-1.521zm.97-.265c-.273.172-.588.265-.97.265v1.521c.651 0 1.257-.163 1.795-.503l-.825-1.283zm.678-.798c-.18.375-.409.629-.678.798l.825 1.283c.543-.341.953-.83 1.24-1.428l-1.387-.653zm.285-1.463c0 .616-.106 1.094-.284 1.459l1.384.66c.302-.62.436-1.336.436-2.119h-1.536zm-.282-1.447c.176.358.282.83.282 1.447h1.536c0-.783-.134-1.497-.437-2.113l-1.381.666zm-.681-.815c.266.168.495.423.676.805l1.391-.647c-.287-.604-.697-1.098-1.242-1.442l-.825 1.283zm-.97-.264c.382 0 .697.092.97.264l.825-1.283c-.538-.339-1.144-.502-1.795-.502v1.521zm-.974.267c.283-.176.601-.267.974-.267v-1.521c-.647 0-1.25.164-1.79.5l.816 1.289zm-.671.802c.18-.382.409-.637.675-.805l-.825-1.283c-.545.344-.955.837-1.241 1.442l1.391.647zm-.278 1.457c0-.619.104-1.095.276-1.454l-1.387-.653c-.295.615-.425 1.326-.425 2.107h1.536zm.278 1.466c-.174-.368-.278-.847-.278-1.466h-1.536c0 .781.13 1.493.423 2.113l1.391-.647zm.675.795c-.268-.169-.497-.423-.677-.798l-1.387.653c.287.598.697 1.087 1.239 1.428l.825-1.283zm.97.755c.445 0 .868-.121 1.233-.382l-.899-1.233a.55.55 0 0 1-.334.093v1.522zm-1.215-.376a2.09 2.09 0 0 0 1.215.376v-1.522a.55.55 0 0 1-.332-.099l-.883 1.245zm-.802-1.1c.165.429.414.813.782 1.086l.922-1.217c-.075-.056-.176-.171-.269-.412l-1.435.543zm-.235-1.54c0 .564.067 1.083.231 1.529l1.444-.52c-.083-.224-.139-.551-.139-1.009h-1.536zm.233-1.534c-.166.444-.233.965-.233 1.534h1.536c0-.466.057-.791.137-1.005l-1.44-.529zm.795-1.092c-.376.269-.627.656-.793 1.085l1.435.542c.093-.24.192-.346.258-.394l-.9-1.233zm1.224-.39c-.447 0-.864.131-1.227.393l.906 1.229c.092-.067.191-.1.321-.1v-1.522zm1.244.399c-.366-.272-.792-.399-1.244-.399v1.522c.151 0 .247.037.323.094l.921-1.217zm.778 1.088c-.159-.433-.409-.825-.789-1.096l-.899 1.233c.062.045.157.147.244.383l1.444-.52zm.239 1.529c0-.571-.07-1.097-.245-1.545l-1.432.552c.082.21.141.53.141.994h1.536zm-.244 1.54c.174-.45.244-.972.244-1.54h-1.536c0 .455-.058.777-.143.997l1.435.543zm-.772 1.086c.371-.276.618-.665.777-1.097l-1.444-.52c-.087.237-.184.347-.255.4l.922 1.217zm4.057.569v-5.395h-1.536v5.395h1.536zm.43-.761h-1.198v1.522h1.198v-1.522zm-.768-5.629v6.39h1.536v-6.39h-1.536zm-1.794.761h2.562v-1.521h-2.562v1.521zm.768.234v-.995h-1.536v.995h1.536zm.596-.761h-1.364v1.522h1.364v-1.522zm5.169 5.487c-.373 0-.692-.092-.975-.267l-.816 1.288a3.34 3.34 0 0 0 1.791.5v-1.521zm.97-.265c-.273.172-.589.265-.97.265v1.521c.651 0 1.257-.163 1.795-.503l-.825-1.283zm.677-.798c-.18.375-.409.629-.677.798l.825 1.283c.543-.341.952-.83 1.24-1.428l-1.388-.653zm.285-1.463c0 .616-.106 1.094-.283 1.459l1.384.66c.301-.62.435-1.336.435-2.119H170.3zm-.282-1.447c.176.358.282.83.282 1.447h1.536c0-.783-.133-1.497-.437-2.113l-1.381.666zm-.68-.815c.266.168.495.423.675.805l1.391-.647c-.286-.604-.696-1.098-1.241-1.442l-.825 1.283zm-.97-.264c.381 0 .697.092.97.264l.825-1.283c-.538-.339-1.144-.502-1.795-.502v1.521zm-.975.267c.283-.176.602-.267.975-.267v-1.521c-.647 0-1.25.164-1.791.5l.816 1.289zm-.671.802c.181-.382.41-.637.676-.805l-.825-1.283c-.545.344-.955.837-1.242 1.442l1.391.647zm-.277 1.457c0-.619.103-1.095.276-1.454l-1.388-.653c-.295.615-.424 1.326-.424 2.107h1.536zm.277 1.466c-.174-.368-.277-.847-.277-1.466h-1.536c0 .781.13 1.493.422 2.113l1.391-.647zm.676.795c-.268-.169-.498-.423-.677-.798l-1.388.653c.287.598.697 1.087 1.24 1.428l.825-1.283zm.97.755c.445 0 .867-.121 1.233-.382l-.899-1.233a.55.55 0 0 1-.334.093v1.522zm-1.216-.376c.362.252.776.376 1.216.376v-1.522c-.138 0-.24-.035-.333-.099l-.883 1.245zm-.801-1.1c.165.429.414.813.782 1.086l.921-1.217c-.074-.056-.175-.171-.268-.412l-1.435.543zm-.235-1.54c0 .564.067 1.083.23 1.529l1.444-.52c-.082-.224-.138-.551-.138-1.009h-1.536zm.232-1.534c-.166.444-.232.965-.232 1.534h1.536c0-.466.056-.791.136-1.005l-1.44-.529zm.796-1.092c-.376.269-.628.656-.793 1.085l1.435.542c.093-.24.191-.346.257-.394l-.899-1.233zm1.224-.39a2.06 2.06 0 0 0-1.227.393l.905 1.229c.093-.067.191-.1.322-.1v-1.522zm1.244.399c-.366-.272-.793-.399-1.244-.399v1.522c.15 0 .246.037.322.094l.922-1.217zm.777 1.088c-.159-.433-.408-.825-.788-1.096l-.899 1.233c.062.045.157.147.244.383l1.443-.52zm.24 1.529c0-.571-.07-1.097-.246-1.545l-1.431.552c.082.21.141.53.141.994h1.536zm-.244 1.54c.173-.45.244-.972.244-1.54h-1.536c0 .455-.059.777-.143.997l1.435.543zm-.773 1.086c.372-.276.618-.665.777-1.097l-1.443-.52c-.087.237-.185.347-.256.4l.922 1.217zm4.057.569v-5.395h-1.536v5.395h1.536zm.43-.761h-1.198v1.522h1.198v-1.522zm-.768-5.629v6.39h1.536v-6.39h-1.536zm-1.794.761h2.562v-1.521h-2.562v1.521zm.768.234v-.995h-1.536v.995h1.536zm.596-.761h-1.364v1.522h1.364v-1.522zm5.169 5.487a1.8 1.8 0 0 1-.974-.267l-.816 1.288c.54.336 1.143.5 1.79.5v-1.521zm.97-.265c-.272.172-.588.265-.97.265v1.521c.651 0 1.257-.163 1.795-.503l-.825-1.283zm.678-.798c-.18.375-.41.629-.678.798l.825 1.283c.543-.341.953-.83 1.24-1.428l-1.387-.653zm.285-1.463c0 .616-.106 1.094-.284 1.459l1.384.66c.302-.62.436-1.336.436-2.119h-1.536zm-.282-1.447c.176.358.282.83.282 1.447h1.536c0-.783-.134-1.497-.437-2.113l-1.381.666zm-.681-.815c.266.168.496.423.676.805l1.391-.647c-.286-.604-.697-1.098-1.242-1.442l-.825 1.283zm-.97-.264c.382 0 .698.092.97.264l.825-1.283c-.538-.339-1.144-.502-1.795-.502v1.521zm-.974.267c.283-.176.601-.267.974-.267v-1.521c-.647 0-1.25.164-1.79.5l.816 1.289zm-.671.802c.181-.382.409-.637.675-.805l-.825-1.283c-.545.344-.955.837-1.241 1.442l1.391.647zm-.278 1.457c0-.619.104-1.095.276-1.454l-1.387-.653c-.295.615-.425 1.326-.425 2.107h1.536zm.278 1.466c-.174-.368-.278-.847-.278-1.466h-1.536c0 .781.13 1.493.423 2.113l1.391-.647zm.675.795c-.268-.169-.497-.423-.677-.798l-1.387.653c.287.598.696 1.087 1.239 1.428l.825-1.283zm.97.755c.446 0 .868-.121 1.234-.382l-.9-1.233c-.077.054-.176.093-.334.093v1.522zm-1.216-.376a2.1 2.1 0 0 0 1.216.376v-1.522c-.137 0-.239-.035-.332-.099l-.884 1.245zm-.801-1.1c.165.429.414.813.782 1.086l.922-1.217c-.075-.056-.176-.171-.269-.412l-1.435.543zm-.235-1.54c0 .564.067 1.083.231 1.529l1.444-.52c-.083-.224-.139-.551-.139-1.009h-1.536zm.232-1.534c-.165.444-.232.965-.232 1.534h1.536c0-.466.057-.791.137-1.005l-1.441-.529zm.797-1.092c-.377.269-.629.656-.794 1.085l1.435.542c.093-.24.192-.346.258-.394l-.899-1.233zm1.223-.39a2.06 2.06 0 0 0-1.226.393l.905 1.229c.092-.067.191-.1.321-.1v-1.522zm1.244.399c-.366-.272-.792-.399-1.244-.399v1.522c.151 0 .247.037.323.094l.921-1.217zm.778 1.088c-.159-.433-.409-.825-.788-1.096l-.9 1.233c.062.045.157.147.244.383l1.444-.52zm.239 1.529c0-.571-.07-1.097-.245-1.545l-1.432.552c.082.21.141.53.141.994h1.536zm-.244 1.54c.174-.45.244-.972.244-1.54h-1.536c0 .455-.058.777-.143.997l1.435.543zm-.773 1.086c.372-.276.619-.665.778-1.097l-1.444-.52c-.087.237-.185.347-.255.4l.921 1.217zm4.957-.1c-.372 0-.691-.092-.974-.267l-.816 1.288c.541.336 1.144.5 1.79.5v-1.521zm.971-.265c-.273.172-.589.265-.971.265v1.521c.652 0 1.258-.163 1.795-.503l-.824-1.283zm.677-.798c-.18.375-.409.629-.677.798l.824 1.283c.543-.341.953-.83 1.241-1.428l-1.388-.653zm.285-1.463c0 .616-.105 1.094-.284 1.459l1.384.66c.302-.62.436-1.336.436-2.119h-1.536zm-.281-1.447c.175.358.281.83.281 1.447h1.536c0-.783-.134-1.497-.437-2.113l-1.38.666zm-.681-.815c.265.168.495.423.675.805l1.391-.647c-.286-.604-.696-1.098-1.242-1.442l-.824 1.283zm-.971-.264c.382 0 .698.092.971.264l.824-1.283c-.537-.339-1.143-.502-1.795-.502v1.521zm-.974.267c.283-.176.602-.267.974-.267v-1.521c-.646 0-1.249.164-1.79.5l.816 1.289zm-.671.802c.181-.382.41-.637.675-.805l-.824-1.283c-.546.344-.955.837-1.242 1.442l1.391.647zm-.278 1.457c0-.619.104-1.095.277-1.454l-1.388-.653c-.295.615-.425 1.326-.425 2.107h1.536zm.278 1.466c-.174-.368-.278-.847-.278-1.466h-1.536c0 .781.131 1.493.423 2.113l1.391-.647zm.675.795c-.268-.169-.497-.423-.676-.798l-1.388.653c.287.598.697 1.087 1.24 1.428l.824-1.283zm.97.755c.446 0 .868-.121 1.234-.382l-.9-1.233c-.076.054-.176.093-.334.093v1.522zm-1.215-.376c.362.252.775.376 1.215.376v-1.522c-.136 0-.239-.035-.332-.099l-.883 1.245zm-.802-1.1c.166.429.414.813.782 1.086l.922-1.217c-.075-.056-.175-.171-.268-.412l-1.436.543zm-.235-1.54c0 .564.068 1.083.232 1.529l1.443-.52c-.082-.224-.138-.551-.138-1.009h-1.537zm.233-1.534c-.166.444-.233.965-.233 1.534h1.537c0-.466.056-.791.136-1.005l-1.44-.529zm.796-1.092c-.376.269-.628.656-.794 1.085l1.436.542c.092-.24.191-.346.257-.394l-.899-1.233zm1.223-.39a2.06 2.06 0 0 0-1.226.393l.905 1.229c.092-.067.191-.1.321-.1v-1.522zm1.245.399c-.366-.272-.793-.399-1.245-.399v1.522c.151 0 .247.037.323.094l.922-1.217zm.777 1.088c-.159-.433-.408-.825-.788-1.096l-.9 1.233c.063.045.158.147.245.383l1.443-.52zm.239 1.529c0-.571-.069-1.097-.245-1.545l-1.432.552c.083.21.141.53.141.994h1.536zm-.243 1.54c.173-.45.243-.972.243-1.54h-1.536c0 .455-.058.777-.142.997l1.435.543zm-.773 1.086c.371-.276.619-.665.777-1.097l-1.443-.52c-.088.237-.185.347-.256.4l.922 1.217zm4.057.569v-5.395h-1.536v5.395h1.536zm.43-.761h-1.198v1.522h1.198v-1.522zm-.768-5.629v6.39h1.536v-6.39h-1.536zm-1.794.761h2.562v-1.521h-2.562v1.521zm.768.234v-.995h-1.536v.995h1.536zm.596-.761h-1.364v1.522h1.364v-1.522zm4.278 6.156v-5.395h-1.536v5.395h1.536zm.43-.761h-1.198v1.522h1.198v-1.522zm-.768-5.629v6.39h1.536v-6.39h-1.536zm-1.794.761h2.562v-1.521h-2.562v1.521zm.768.234v-.995h-1.536v.995h1.536zm.596-.761h-1.364v1.522h1.364v-1.522z" fill="#fff"/></g></g><mask id="B" maskUnits="userSpaceOnUse" x="192" y="95" width="31" height="31" mask-type="alpha"><path d="M210.308 95.109h-5.659v3.747c-1.2.29-2.329.759-3.356 1.378l-2.675-2.65-4.002 3.964 2.676 2.649a11.68 11.68 0 0 0-1.391 3.324h-3.783v5.606h3.783c.292 1.188.766 2.306 1.39 3.323l-2.675 2.65 4.002 3.964 2.675-2.65c1.027.618 2.156 1.088 3.356 1.378v3.746h5.659v-3.746c1.2-.29 2.329-.76 3.356-1.378l2.675 2.65 4.002-3.963-2.676-2.65a11.68 11.68 0 0 0 1.391-3.324h3.783v-5.606h-3.783a11.68 11.68 0 0 0-1.391-3.324l2.676-2.65-4.002-3.963-2.675 2.65c-1.027-.618-2.156-1.088-3.356-1.378v-3.747zm-2.829 20.87c3.152 0 5.708-2.532 5.708-5.655s-2.556-5.655-5.708-5.655-5.71 2.532-5.71 5.655 2.556 5.655 5.71 5.655z" fill="#fff" class="F"/></mask><g mask="url(#B)"><path d="M210.308 95.109h-5.659v3.747c-1.2.29-2.329.759-3.356 1.378l-2.675-2.65-4.002 3.964 2.676 2.649a11.68 11.68 0 0 0-1.391 3.324h-3.783v5.606h3.783c.292 1.188.766 2.306 1.39 3.323l-2.675 2.65 4.002 3.964 2.675-2.65c1.027.618 2.156 1.088 3.356 1.378v3.746h5.659v-3.746c1.2-.29 2.329-.76 3.356-1.378l2.675 2.65 4.002-3.963-2.676-2.65a11.68 11.68 0 0 0 1.391-3.324h3.783v-5.606h-3.783a11.68 11.68 0 0 0-1.391-3.324l2.676-2.65-4.002-3.963-2.675 2.65c-1.027-.618-2.156-1.088-3.356-1.378v-3.747zm-2.829 20.87c3.152 0 5.708-2.532 5.708-5.655s-2.556-5.655-5.708-5.655-5.71 2.532-5.71 5.655 2.556 5.655 5.71 5.655z" fill="url(#AX)" class="F"/><path d="M204.649 95.109v-.761h-.768v.761h.768zm5.659 0h.768v-.761h-.768v.761zm-5.659 3.747l.181.739.587-.141v-.598h-.768zm-3.356 1.378l-.543.538.427.423.516-.311-.4-.65zm-2.675-2.65l.543-.538-.543-.538-.543.538.543.538zm-4.002 3.964l-.543-.539-.544.539.544.538.543-.538zm2.676 2.649l.656.396.313-.51-.426-.423-.543.537zm-1.391 3.324v.761h.603l.143-.581-.746-.18zm-3.783 0v-.761h-.768v.761h.768zm0 5.606h-.768v.761h.768v-.761zm3.783 0l.746-.18-.143-.581h-.603v.761zm1.39 3.323l.544.538.426-.423-.313-.51-.657.395zm-2.675 2.65l-.543-.538-.544.538.544.538.543-.538zm4.002 3.964l-.543.538.543.538.543-.538-.543-.538zm2.675-2.65l.399-.65-.515-.311-.427.423.543.538zm3.356 1.378h.768v-.598l-.587-.142-.181.74zm0 3.746h-.768v.761h.768v-.761zm5.659 0v.761h.768v-.761h-.768zm0-3.746l-.182-.74-.586.142v.598h.768zm3.356-1.378l.543-.538-.428-.423-.515.311.4.65zm2.675 2.65l-.543.538.543.538.543-.538-.543-.538zm4.002-3.963l.543.538.543-.538-.543-.539-.543.539zm-2.676-2.65l-.656-.396-.314.51.427.423.543-.537zm1.391-3.324v-.761h-.604l-.142.581.746.18zm3.783 0v.761h.768v-.761h-.768zm0-5.606h.768v-.761h-.768v.761zm-3.783 0l-.746.18.142.581h.604v-.761zm-1.391-3.324l-.543-.537-.427.423.314.51.656-.396zm2.676-2.65l.543.538.543-.538-.543-.538-.543.538zm-4.002-3.963l.543-.538-.543-.538-.543.538.543.538zm-2.675 2.65l-.4.65.515.311.428-.423-.543-.538zm-3.356-1.378h-.768v.598l.586.141.182-.739zm-5.659-2.987h5.659v-1.522h-5.659v1.522zm.768 2.987v-3.747h-1.536v3.747h1.536zm-3.724 2.028c.96-.579 2.016-1.017 3.137-1.288l-.363-1.478a12.67 12.67 0 0 0-3.573 1.467l.799 1.3zm-3.618-2.763l2.675 2.651 1.086-1.076-2.675-2.65-1.086 1.076zm-2.916 3.965l4.002-3.965-1.086-1.076-4.002 3.963 1.086 1.077zm2.676 1.574l-2.676-2.651-1.086 1.077 2.675 2.65 1.087-1.076zm-1.188 4.041a10.9 10.9 0 0 1 1.301-3.108l-1.313-.79a12.44 12.44 0 0 0-1.481 3.539l1.493.359zm-4.529.581h3.783v-1.522h-3.783v1.522zm.768 4.845v-5.606h-1.536v5.606h1.536zm3.015-.761h-3.783v1.522h3.783v-1.522zm2.047 3.689a10.9 10.9 0 0 1-1.301-3.108l-1.493.359a12.44 12.44 0 0 0 1.481 3.539l1.313-.79zm-2.789 3.583l2.676-2.65-1.087-1.076-2.675 2.65 1.086 1.076zm4.002 2.888l-4.002-3.964-1.086 1.076 4.002 3.964 1.086-1.076zm1.589-2.65l-2.675 2.65 1.086 1.076 2.675-2.65-1.086-1.076zm4.08 1.176a11.16 11.16 0 0 1-3.138-1.288l-.798 1.3a12.69 12.69 0 0 0 3.573 1.466l.363-1.478zm.587 4.486v-3.746h-1.536v3.746h1.536zm4.891-.76h-5.659v1.521h5.659v-1.521zm-.768-2.986v3.746h1.536v-3.746h-1.536zm3.724-2.028c-.96.579-2.016 1.017-3.138 1.288l.364 1.478a12.69 12.69 0 0 0 3.573-1.466l-.799-1.3zm3.618 2.763l-2.675-2.651-1.086 1.076 2.675 2.65 1.086-1.075zm2.916-3.965l-4.002 3.965 1.086 1.075 4.002-3.963-1.086-1.077zm-2.676-1.574l2.676 2.651 1.086-1.077-2.676-2.649-1.086 1.075zm1.188-4.041a10.9 10.9 0 0 1-1.301 3.108l1.312.79c.665-1.082 1.17-2.273 1.481-3.539l-1.492-.359zm4.529-.581h-3.783v1.522h3.783v-1.522zm-.768-4.845v5.606h1.536v-5.606h-1.536zm-3.015.761h3.783v-1.522h-3.783v1.522zm-2.047-3.689a10.9 10.9 0 0 1 1.301 3.108l1.492-.359c-.311-1.266-.816-2.457-1.481-3.539l-1.312.79zm2.789-3.584l-2.676 2.651 1.086 1.076 2.676-2.651-1.086-1.076zm-4.002-2.888l4.002 3.964 1.086-1.076-4.002-3.963-1.086 1.076zm-1.589 2.651l2.675-2.651-1.086-1.076-2.675 2.65 1.086 1.076zm-4.081-1.176a11.14 11.14 0 0 1 3.138 1.288l.799-1.3c-1.094-.659-2.296-1.159-3.573-1.467l-.364 1.478zm-.586-4.487v3.747h1.536v-3.747h-1.536zm2.879 15.215c0 2.702-2.212 4.894-4.941 4.894v1.522c3.578 0 6.477-2.873 6.477-6.416h-1.536zm-4.941-4.894c2.729 0 4.941 2.191 4.941 4.894h1.536c0-3.543-2.899-6.416-6.477-6.416v1.522zm-4.941 4.894c0-2.703 2.213-4.894 4.941-4.894v-1.522c-3.577 0-6.477 2.873-6.477 6.416h1.536zm4.941 4.894c-2.728 0-4.941-2.192-4.941-4.894h-1.536c0 3.543 2.9 6.416 6.477 6.416v-1.522z" class="D"/></g><defs><filter id="C" x="33.86" y=".916" width="283.288" height="155.86" filterUnits="userSpaceOnUse" class="B"><feFlood result="A" class="C"/><feColorMatrix in="SourceAlpha" values="0 0 0 0 0 0 0 0 0 0 0 0 0 0 0 0 0 0 127 0" result="B"/><feOffset dx="2" dy="2"/><feGaussianBlur stdDeviation="2"/><feColorMatrix values="0 0 0 0 0.345098 0 0 0 0 0.419608 0 0 0 0 0.501961 0 0 0 0.2 0"/><feBlend in2="A"/><feBlend in="SourceGraphic" result="D"/><feColorMatrix in="SourceAlpha" values="0 0 0 0 0 0 0 0 0 0 0 0 0 0 0 0 0 0 127 0" result="B"/><feOffset dx="2" dy="2"/><feGaussianBlur stdDeviation="2"/><feComposite in2="B" operator="arithmetic" k2="-1" k3="1"/><feColorMatrix values="0 0 0 0 0.258824 0 0 0 0 0.298039 0 0 0 0 0.407843 0 0 0 0.2 0"/><feBlend in2="D"/></filter><filter id="D" x="4.789" y="181.833" width="328.737" height="112.583" filterUnits="userSpaceOnUse" class="B"><feFlood class="C"/><feBlend in="SourceGraphic" result="B"/><feColorMatrix in="SourceAlpha" values="0 0 0 0 0 0 0 0 0 0 0 0 0 0 0 0 0 0 127 0" result="C"/><feOffset dx="1" dy="1"/><feGaussianBlur stdDeviation="1"/><feComposite in2="C" operator="arithmetic" k2="-1" k3="1"/><feColorMatrix values="0 0 0 0 0.345098 0 0 0 0 0.419608 0 0 0 0 0.501961 0 0 0 0.2 0"/><feBlend in2="B"/></filter><filter id="E" x=".789" y="179.833" width="335.737" height="119.583" filterUnits="userSpaceOnUse" class="B"><feFlood result="A" class="C"/><feColorMatrix in="SourceAlpha" values="0 0 0 0 0 0 0 0 0 0 0 0 0 0 0 0 0 0 127 0"/><feOffset dy="2"/><feGaussianBlur stdDeviation="2"/><feColorMatrix values="0 0 0 0 0.258824 0 0 0 0 0.298039 0 0 0 0 0.407843 0 0 0 0.2 0"/><feBlend in2="A"/><feBlend in="SourceGraphic"/></filter><filter id="F" x="7.964" y="187.981" width="26.256" height="21.408" filterUnits="userSpaceOnUse" class="B"><feFlood result="A" class="C"/><feColorMatrix in="SourceAlpha" values="0 0 0 0 0 0 0 0 0 0 0 0 0 0 0 0 0 0 127 0"/><feMorphology radius="1" operator="dilate" in="SourceAlpha"/><feOffset dx="1" dy="1"/><feGaussianBlur stdDeviation="1"/><feColorMatrix values="0 0 0 0 0.258824 0 0 0 0 0.298039 0 0 0 0 0.407843 0 0 0 0.2 0"/><feBlend in2="A"/><feBlend in="SourceGraphic"/></filter><filter id="G" x="7.964" y="227.92" width="26.256" height="21.408" filterUnits="userSpaceOnUse" class="B"><feFlood result="A" class="C"/><feColorMatrix in="SourceAlpha" values="0 0 0 0 0 0 0 0 0 0 0 0 0 0 0 0 0 0 127 0"/><feMorphology radius="1" operator="dilate" in="SourceAlpha"/><feOffset dx="1" dy="1"/><feGaussianBlur stdDeviation="1"/><feColorMatrix values="0 0 0 0 0.258824 0 0 0 0 0.298039 0 0 0 0 0.407843 0 0 0 0.2 0"/><feBlend in2="A"/><feBlend in="SourceGraphic"/></filter><filter id="H" x="7.964" y="247.889" width="35.507" height="21.408" filterUnits="userSpaceOnUse" class="B"><feFlood result="A" class="C"/><feColorMatrix in="SourceAlpha" values="0 0 0 0 0 0 0 0 0 0 0 0 0 0 0 0 0 0 127 0"/><feMorphology radius="1" operator="dilate" in="SourceAlpha"/><feOffset dx="1" dy="1"/><feGaussianBlur stdDeviation="1"/><feColorMatrix values="0 0 0 0 0.258824 0 0 0 0 0.298039 0 0 0 0 0.407843 0 0 0 0.2 0"/><feBlend in2="A"/><feBlend in="SourceGraphic"/></filter><filter id="I" x="33.587" y="187.981" width="21.062" height="21.408" filterUnits="userSpaceOnUse" class="B"><feFlood result="A" class="C"/><feColorMatrix in="SourceAlpha" values="0 0 0 0 0 0 0 0 0 0 0 0 0 0 0 0 0 0 127 0"/><feMorphology radius="1" operator="dilate" in="SourceAlpha"/><feOffset dx="1" dy="1"/><feGaussianBlur stdDeviation="1"/><feColorMatrix values="0 0 0 0 0.258824 0 0 0 0 0.298039 0 0 0 0 0.407843 0 0 0 0.2 0"/><feBlend in2="A"/><feBlend in="SourceGraphic"/></filter><filter id="J" x="33.587" y="227.92" width="21.062" height="21.408" filterUnits="userSpaceOnUse" class="B"><feFlood result="A" class="C"/><feColorMatrix in="SourceAlpha" values="0 0 0 0 0 0 0 0 0 0 0 0 0 0 0 0 0 0 127 0"/><feMorphology radius="1" operator="dilate" in="SourceAlpha"/><feOffset dx="1" dy="1"/><feGaussianBlur stdDeviation="1"/><feColorMatrix values="0 0 0 0 0.258824 0 0 0 0 0.298039 0 0 0 0 0.407843 0 0 0 0.2 0"/><feBlend in2="A"/><feBlend in="SourceGraphic"/></filter><filter id="K" x="43.142" y="247.889" width="21.062" height="21.408" filterUnits="userSpaceOnUse" class="B"><feFlood result="A" class="C"/><feColorMatrix in="SourceAlpha" values="0 0 0 0 0 0 0 0 0 0 0 0 0 0 0 0 0 0 127 0"/><feMorphology radius="1" operator="dilate" in="SourceAlpha"/><feOffset dx="1" dy="1"/><feGaussianBlur stdDeviation="1"/><feColorMatrix values="0 0 0 0 0.258824 0 0 0 0 0.298039 0 0 0 0 0.407843 0 0 0 0.2 0"/><feBlend in2="A"/><feBlend in="SourceGraphic"/></filter><filter id="L" x="125.484" y="247.889" width="21.062" height="21.408" filterUnits="userSpaceOnUse" class="B"><feFlood result="A" class="C"/><feColorMatrix in="SourceAlpha" values="0 0 0 0 0 0 0 0 0 0 0 0 0 0 0 0 0 0 127 0"/><feMorphology radius="1" operator="dilate" in="SourceAlpha"/><feOffset dx="1" dy="1"/><feGaussianBlur stdDeviation="1"/><feColorMatrix values="0 0 0 0 0.258824 0 0 0 0 0.298039 0 0 0 0 0.407843 0 0 0 0.2 0"/><feBlend in2="A"/><feBlend in="SourceGraphic"/></filter><filter id="M" x="84.313" y="247.889" width="21.062" height="21.408" filterUnits="userSpaceOnUse" class="B"><feFlood result="A" class="C"/><feColorMatrix in="SourceAlpha" values="0 0 0 0 0 0 0 0 0 0 0 0 0 0 0 0 0 0 127 0"/><feMorphology radius="1" operator="dilate" in="SourceAlpha"/><feOffset dx="1" dy="1"/><feGaussianBlur stdDeviation="1"/><feColorMatrix values="0 0 0 0 0.258824 0 0 0 0 0.298039 0 0 0 0 0.407843 0 0 0 0.2 0"/><feBlend in2="A"/><feBlend in="SourceGraphic"/></filter><filter id="N" x="166.655" y="247.889" width="21.062" height="21.408" filterUnits="userSpaceOnUse" class="B"><feFlood result="A" class="C"/><feColorMatrix in="SourceAlpha" values="0 0 0 0 0 0 0 0 0 0 0 0 0 0 0 0 0 0 127 0"/><feMorphology radius="1" operator="dilate" in="SourceAlpha"/><feOffset dx="1" dy="1"/><feGaussianBlur stdDeviation="1"/><feColorMatrix values="0 0 0 0 0.258824 0 0 0 0 0.298039 0 0 0 0 0.407843 0 0 0 0.2 0"/><feBlend in2="A"/><feBlend in="SourceGraphic"/></filter><filter id="O" x="63.874" y="247.889" width="21.062" height="21.408" filterUnits="userSpaceOnUse" class="B"><feFlood result="A" class="C"/><feColorMatrix in="SourceAlpha" values="0 0 0 0 0 0 0 0 0 0 0 0 0 0 0 0 0 0 127 0"/><feMorphology radius="1" operator="dilate" in="SourceAlpha"/><feOffset dx="1" dy="1"/><feGaussianBlur stdDeviation="1"/><feColorMatrix values="0 0 0 0 0.258824 0 0 0 0 0.298039 0 0 0 0 0.407843 0 0 0 0.2 0"/><feBlend in2="A"/><feBlend in="SourceGraphic"/></filter><filter id="P" x="146.216" y="247.889" width="21.062" height="21.408" filterUnits="userSpaceOnUse" class="B"><feFlood result="A" class="C"/><feColorMatrix in="SourceAlpha" values="0 0 0 0 0 0 0 0 0 0 0 0 0 0 0 0 0 0 127 0"/><feMorphology radius="1" operator="dilate" in="SourceAlpha"/><feOffset dx="1" dy="1"/><feGaussianBlur stdDeviation="1"/><feColorMatrix values="0 0 0 0 0.258824 0 0 0 0 0.298039 0 0 0 0 0.407843 0 0 0 0.2 0"/><feBlend in2="A"/><feBlend in="SourceGraphic"/></filter><filter id="Q" x="105.045" y="247.889" width="21.062" height="21.408" filterUnits="userSpaceOnUse" class="B"><feFlood result="A" class="C"/><feColorMatrix in="SourceAlpha" values="0 0 0 0 0 0 0 0 0 0 0 0 0 0 0 0 0 0 127 0"/><feMorphology radius="1" operator="dilate" in="SourceAlpha"/><feOffset dx="1" dy="1"/><feGaussianBlur stdDeviation="1"/><feColorMatrix values="0 0 0 0 0.258824 0 0 0 0 0.298039 0 0 0 0 0.407843 0 0 0 0.2 0"/><feBlend in2="A"/><feBlend in="SourceGraphic"/></filter><filter id="R" x="187.388" y="247.889" width="21.062" height="21.408" filterUnits="userSpaceOnUse" class="B"><feFlood result="A" class="C"/><feColorMatrix in="SourceAlpha" values="0 0 0 0 0 0 0 0 0 0 0 0 0 0 0 0 0 0 127 0"/><feMorphology radius="1" operator="dilate" in="SourceAlpha"/><feOffset dx="1" dy="1"/><feGaussianBlur stdDeviation="1"/><feColorMatrix values="0 0 0 0 0.258824 0 0 0 0 0.298039 0 0 0 0 0.407843 0 0 0 0.2 0"/><feBlend in2="A"/><feBlend in="SourceGraphic"/></filter><filter id="S" x="207.826" y="247.889" width="21.062" height="21.408" filterUnits="userSpaceOnUse" class="B"><feFlood result="A" class="C"/><feColorMatrix in="SourceAlpha" values="0 0 0 0 0 0 0 0 0 0 0 0 0 0 0 0 0 0 127 0"/><feMorphology radius="1" operator="dilate" in="SourceAlpha"/><feOffset dx="1" dy="1"/><feGaussianBlur stdDeviation="1"/><feColorMatrix values="0 0 0 0 0.258824 0 0 0 0 0.298039 0 0 0 0 0.407843 0 0 0 0.2 0"/><feBlend in2="A"/><feBlend in="SourceGraphic"/></filter><filter id="T" x="228.265" y="247.889" width="21.062" height="21.408" filterUnits="userSpaceOnUse" class="B"><feFlood result="A" class="C"/><feColorMatrix in="SourceAlpha" values="0 0 0 0 0 0 0 0 0 0 0 0 0 0 0 0 0 0 127 0"/><feMorphology radius="1" operator="dilate" in="SourceAlpha"/><feOffset dx="1" dy="1"/><feGaussianBlur stdDeviation="1"/><feColorMatrix values="0 0 0 0 0.258824 0 0 0 0 0.298039 0 0 0 0 0.407843 0 0 0 0.2 0"/><feBlend in2="A"/><feBlend in="SourceGraphic"/></filter><filter id="U" x="7.964" y="207.95" width="21.062" height="21.408" filterUnits="userSpaceOnUse" class="B"><feFlood result="A" class="C"/><feColorMatrix in="SourceAlpha" values="0 0 0 0 0 0 0 0 0 0 0 0 0 0 0 0 0 0 127 0"/><feMorphology radius="1" operator="dilate" in="SourceAlpha"/><feOffset dx="1" dy="1"/><feGaussianBlur stdDeviation="1"/><feColorMatrix values="0 0 0 0 0.258824 0 0 0 0 0.298039 0 0 0 0 0.407843 0 0 0 0.2 0"/><feBlend in2="A"/><feBlend in="SourceGraphic"/></filter><filter id="V" x="7.964" y="267.859" width="21.062" height="21.408" filterUnits="userSpaceOnUse" class="B"><feFlood result="A" class="C"/><feColorMatrix in="SourceAlpha" values="0 0 0 0 0 0 0 0 0 0 0 0 0 0 0 0 0 0 127 0"/><feMorphology radius="1" operator="dilate" in="SourceAlpha"/><feOffset dx="1" dy="1"/><feGaussianBlur stdDeviation="1"/><feColorMatrix values="0 0 0 0 0.258824 0 0 0 0 0.298039 0 0 0 0 0.407843 0 0 0 0.2 0"/><feBlend in2="A"/><feBlend in="SourceGraphic"/></filter><filter id="W" x="28.393" y="267.859" width="21.062" height="21.408" filterUnits="userSpaceOnUse" class="B"><feFlood result="A" class="C"/><feColorMatrix in="SourceAlpha" values="0 0 0 0 0 0 0 0 0 0 0 0 0 0 0 0 0 0 127 0"/><feMorphology radius="1" operator="dilate" in="SourceAlpha"/><feOffset dx="1" dy="1"/><feGaussianBlur stdDeviation="1"/><feColorMatrix values="0 0 0 0 0.258824 0 0 0 0 0.298039 0 0 0 0 0.407843 0 0 0 0.2 0"/><feBlend in2="A"/><feBlend in="SourceGraphic"/></filter><filter id="X" x="48.822" y="267.859" width="200.505" height="21.408" filterUnits="userSpaceOnUse" class="B"><feFlood result="A" class="C"/><feColorMatrix in="SourceAlpha" values="0 0 0 0 0 0 0 0 0 0 0 0 0 0 0 0 0 0 127 0"/><feMorphology radius="1" operator="dilate" in="SourceAlpha"/><feOffset dx="1" dy="1"/><feGaussianBlur stdDeviation="1"/><feColorMatrix values="0 0 0 0 0.258824 0 0 0 0 0.298039 0 0 0 0 0.407843 0 0 0 0.2 0"/><feBlend in2="A"/><feBlend in="SourceGraphic"/></filter><filter id="Y" x="54.016" y="187.981" width="21.062" height="21.408" filterUnits="userSpaceOnUse" class="B"><feFlood result="A" class="C"/><feColorMatrix in="SourceAlpha" values="0 0 0 0 0 0 0 0 0 0 0 0 0 0 0 0 0 0 127 0"/><feMorphology radius="1" operator="dilate" in="SourceAlpha"/><feOffset dx="1" dy="1"/><feGaussianBlur stdDeviation="1"/><feColorMatrix values="0 0 0 0 0.258824 0 0 0 0 0.298039 0 0 0 0 0.407843 0 0 0 0.2 0"/><feBlend in2="A"/><feBlend in="SourceGraphic"/></filter><filter id="Z" x="54.016" y="227.92" width="21.062" height="21.408" filterUnits="userSpaceOnUse" class="B"><feFlood result="A" class="C"/><feColorMatrix in="SourceAlpha" values="0 0 0 0 0 0 0 0 0 0 0 0 0 0 0 0 0 0 127 0"/><feMorphology radius="1" operator="dilate" in="SourceAlpha"/><feOffset dx="1" dy="1"/><feGaussianBlur stdDeviation="1"/><feColorMatrix values="0 0 0 0 0.258824 0 0 0 0 0.298039 0 0 0 0 0.407843 0 0 0 0.2 0"/><feBlend in2="A"/><feBlend in="SourceGraphic"/></filter><filter id="a" x="28.393" y="207.95" width="21.062" height="21.408" filterUnits="userSpaceOnUse" class="B"><feFlood result="A" class="C"/><feColorMatrix in="SourceAlpha" values="0 0 0 0 0 0 0 0 0 0 0 0 0 0 0 0 0 0 127 0"/><feMorphology radius="1" operator="dilate" in="SourceAlpha"/><feOffset dx="1" dy="1"/><feGaussianBlur stdDeviation="1"/><feColorMatrix values="0 0 0 0 0.258824 0 0 0 0 0.298039 0 0 0 0 0.407843 0 0 0 0.2 0"/><feBlend in2="A"/><feBlend in="SourceGraphic"/></filter><filter id="b" x="74.445" y="187.981" width="21.062" height="21.408" filterUnits="userSpaceOnUse" class="B"><feFlood result="A" class="C"/><feColorMatrix in="SourceAlpha" values="0 0 0 0 0 0 0 0 0 0 0 0 0 0 0 0 0 0 127 0"/><feMorphology radius="1" operator="dilate" in="SourceAlpha"/><feOffset dx="1" dy="1"/><feGaussianBlur stdDeviation="1"/><feColorMatrix values="0 0 0 0 0.258824 0 0 0 0 0.298039 0 0 0 0 0.407843 0 0 0 0.2 0"/><feBlend in2="A"/><feBlend in="SourceGraphic"/></filter><filter id="c" x="74.445" y="227.92" width="21.062" height="21.408" filterUnits="userSpaceOnUse" class="B"><feFlood result="A" class="C"/><feColorMatrix in="SourceAlpha" values="0 0 0 0 0 0 0 0 0 0 0 0 0 0 0 0 0 0 127 0"/><feMorphology radius="1" operator="dilate" in="SourceAlpha"/><feOffset dx="1" dy="1"/><feGaussianBlur stdDeviation="1"/><feColorMatrix values="0 0 0 0 0.258824 0 0 0 0 0.298039 0 0 0 0 0.407843 0 0 0 0.2 0"/><feBlend in2="A"/><feBlend in="SourceGraphic"/></filter><filter id="d" x="48.822" y="207.95" width="21.062" height="21.408" filterUnits="userSpaceOnUse" class="B"><feFlood result="A" class="C"/><feColorMatrix in="SourceAlpha" values="0 0 0 0 0 0 0 0 0 0 0 0 0 0 0 0 0 0 127 0"/><feMorphology radius="1" operator="dilate" in="SourceAlpha"/><feOffset dx="1" dy="1"/><feGaussianBlur stdDeviation="1"/><feColorMatrix values="0 0 0 0 0.258824 0 0 0 0 0.298039 0 0 0 0 0.407843 0 0 0 0.2 0"/><feBlend in2="A"/><feBlend in="SourceGraphic"/></filter><filter id="e" x="94.873" y="187.981" width="21.062" height="21.408" filterUnits="userSpaceOnUse" class="B"><feFlood result="A" class="C"/><feColorMatrix in="SourceAlpha" values="0 0 0 0 0 0 0 0 0 0 0 0 0 0 0 0 0 0 127 0"/><feMorphology radius="1" operator="dilate" in="SourceAlpha"/><feOffset dx="1" dy="1"/><feGaussianBlur stdDeviation="1"/><feColorMatrix values="0 0 0 0 0.258824 0 0 0 0 0.298039 0 0 0 0 0.407843 0 0 0 0.2 0"/><feBlend in2="A"/><feBlend in="SourceGraphic"/></filter><filter id="f" x="94.873" y="227.92" width="21.062" height="21.408" filterUnits="userSpaceOnUse" class="B"><feFlood result="A" class="C"/><feColorMatrix in="SourceAlpha" values="0 0 0 0 0 0 0 0 0 0 0 0 0 0 0 0 0 0 127 0"/><feMorphology radius="1" operator="dilate" in="SourceAlpha"/><feOffset dx="1" dy="1"/><feGaussianBlur stdDeviation="1"/><feColorMatrix values="0 0 0 0 0.258824 0 0 0 0 0.298039 0 0 0 0 0.407843 0 0 0 0.2 0"/><feBlend in2="A"/><feBlend in="SourceGraphic"/></filter><filter id="g" x="69.251" y="207.95" width="21.062" height="21.408" filterUnits="userSpaceOnUse" class="B"><feFlood result="A" class="C"/><feColorMatrix in="SourceAlpha" values="0 0 0 0 0 0 0 0 0 0 0 0 0 0 0 0 0 0 127 0"/><feMorphology radius="1" operator="dilate" in="SourceAlpha"/><feOffset dx="1" dy="1"/><feGaussianBlur stdDeviation="1"/><feColorMatrix values="0 0 0 0 0.258824 0 0 0 0 0.298039 0 0 0 0 0.407843 0 0 0 0.2 0"/><feBlend in2="A"/><feBlend in="SourceGraphic"/></filter><filter id="h" x="115.302" y="187.981" width="21.062" height="21.408" filterUnits="userSpaceOnUse" class="B"><feFlood result="A" class="C"/><feColorMatrix in="SourceAlpha" values="0 0 0 0 0 0 0 0 0 0 0 0 0 0 0 0 0 0 127 0"/><feMorphology radius="1" operator="dilate" in="SourceAlpha"/><feOffset dx="1" dy="1"/><feGaussianBlur stdDeviation="1"/><feColorMatrix values="0 0 0 0 0.258824 0 0 0 0 0.298039 0 0 0 0 0.407843 0 0 0 0.2 0"/><feBlend in2="A"/><feBlend in="SourceGraphic"/></filter><filter id="i" x="115.302" y="227.92" width="21.062" height="21.408" filterUnits="userSpaceOnUse" class="B"><feFlood result="A" class="C"/><feColorMatrix in="SourceAlpha" values="0 0 0 0 0 0 0 0 0 0 0 0 0 0 0 0 0 0 127 0"/><feMorphology radius="1" operator="dilate" in="SourceAlpha"/><feOffset dx="1" dy="1"/><feGaussianBlur stdDeviation="1"/><feColorMatrix values="0 0 0 0 0.258824 0 0 0 0 0.298039 0 0 0 0 0.407843 0 0 0 0.2 0"/><feBlend in2="A"/><feBlend in="SourceGraphic"/></filter><filter id="j" x="89.679" y="207.95" width="21.062" height="21.408" filterUnits="userSpaceOnUse" class="B"><feFlood result="A" class="C"/><feColorMatrix in="SourceAlpha" values="0 0 0 0 0 0 0 0 0 0 0 0 0 0 0 0 0 0 127 0"/><feMorphology radius="1" operator="dilate" in="SourceAlpha"/><feOffset dx="1" dy="1"/><feGaussianBlur stdDeviation="1"/><feColorMatrix values="0 0 0 0 0.258824 0 0 0 0 0.298039 0 0 0 0 0.407843 0 0 0 0.2 0"/><feBlend in2="A"/><feBlend in="SourceGraphic"/></filter><filter id="k" x="212.251" y="207.95" width="21.062" height="21.408" filterUnits="userSpaceOnUse" class="B"><feFlood result="A" class="C"/><feColorMatrix in="SourceAlpha" values="0 0 0 0 0 0 0 0 0 0 0 0 0 0 0 0 0 0 127 0"/><feMorphology radius="1" operator="dilate" in="SourceAlpha"/><feOffset dx="1" dy="1"/><feGaussianBlur stdDeviation="1"/><feColorMatrix values="0 0 0 0 0.258824 0 0 0 0 0.298039 0 0 0 0 0.407843 0 0 0 0.2 0"/><feBlend in2="A"/><feBlend in="SourceGraphic"/></filter><filter id="l" x="135.73" y="187.981" width="21.062" height="21.408" filterUnits="userSpaceOnUse" class="B"><feFlood result="A" class="C"/><feColorMatrix in="SourceAlpha" values="0 0 0 0 0 0 0 0 0 0 0 0 0 0 0 0 0 0 127 0"/><feMorphology radius="1" operator="dilate" in="SourceAlpha"/><feOffset dx="1" dy="1"/><feGaussianBlur stdDeviation="1"/><feColorMatrix values="0 0 0 0 0.258824 0 0 0 0 0.298039 0 0 0 0 0.407843 0 0 0 0.2 0"/><feBlend in2="A"/><feBlend in="SourceGraphic"/></filter><filter id="m" x="135.73" y="227.92" width="21.062" height="21.408" filterUnits="userSpaceOnUse" class="B"><feFlood result="A" class="C"/><feColorMatrix in="SourceAlpha" values="0 0 0 0 0 0 0 0 0 0 0 0 0 0 0 0 0 0 127 0"/><feMorphology radius="1" operator="dilate" in="SourceAlpha"/><feOffset dx="1" dy="1"/><feGaussianBlur stdDeviation="1"/><feColorMatrix values="0 0 0 0 0.258824 0 0 0 0 0.298039 0 0 0 0 0.407843 0 0 0 0.2 0"/><feBlend in2="A"/><feBlend in="SourceGraphic"/></filter><filter id="n" x="110.108" y="207.95" width="21.062" height="21.408" filterUnits="userSpaceOnUse" class="B"><feFlood result="A" class="C"/><feColorMatrix in="SourceAlpha" values="0 0 0 0 0 0 0 0 0 0 0 0 0 0 0 0 0 0 127 0"/><feMorphology radius="1" operator="dilate" in="SourceAlpha"/><feOffset dx="1" dy="1"/><feGaussianBlur stdDeviation="1"/><feColorMatrix values="0 0 0 0 0.258824 0 0 0 0 0.298039 0 0 0 0 0.407843 0 0 0 0.2 0"/><feBlend in2="A"/><feBlend in="SourceGraphic"/></filter><filter id="o" x="156.16" y="187.981" width="21.062" height="21.408" filterUnits="userSpaceOnUse" class="B"><feFlood result="A" class="C"/><feColorMatrix in="SourceAlpha" values="0 0 0 0 0 0 0 0 0 0 0 0 0 0 0 0 0 0 127 0"/><feMorphology radius="1" operator="dilate" in="SourceAlpha"/><feOffset dx="1" dy="1"/><feGaussianBlur stdDeviation="1"/><feColorMatrix values="0 0 0 0 0.258824 0 0 0 0 0.298039 0 0 0 0 0.407843 0 0 0 0.2 0"/><feBlend in2="A"/><feBlend in="SourceGraphic"/></filter><filter id="p" x="156.16" y="227.92" width="21.062" height="21.408" filterUnits="userSpaceOnUse" class="B"><feFlood result="A" class="C"/><feColorMatrix in="SourceAlpha" values="0 0 0 0 0 0 0 0 0 0 0 0 0 0 0 0 0 0 127 0"/><feMorphology radius="1" operator="dilate" in="SourceAlpha"/><feOffset dx="1" dy="1"/><feGaussianBlur stdDeviation="1"/><feColorMatrix values="0 0 0 0 0.258824 0 0 0 0 0.298039 0 0 0 0 0.407843 0 0 0 0.2 0"/><feBlend in2="A"/><feBlend in="SourceGraphic"/></filter><filter id="q" x="130.537" y="207.95" width="21.062" height="21.408" filterUnits="userSpaceOnUse" class="B"><feFlood result="A" class="C"/><feColorMatrix in="SourceAlpha" values="0 0 0 0 0 0 0 0 0 0 0 0 0 0 0 0 0 0 127 0"/><feMorphology radius="1" operator="dilate" in="SourceAlpha"/><feOffset dx="1" dy="1"/><feGaussianBlur stdDeviation="1"/><feColorMatrix values="0 0 0 0 0.258824 0 0 0 0 0.298039 0 0 0 0 0.407843 0 0 0 0.2 0"/><feBlend in2="A"/><feBlend in="SourceGraphic"/></filter><filter id="r" x="232.681" y="207.95" width="37.384" height="21.408" filterUnits="userSpaceOnUse" class="B"><feFlood result="A" class="C"/><feColorMatrix in="SourceAlpha" values="0 0 0 0 0 0 0 0 0 0 0 0 0 0 0 0 0 0 127 0"/><feMorphology radius="1" operator="dilate" in="SourceAlpha"/><feOffset dx="1" dy="1"/><feGaussianBlur stdDeviation="1"/><feColorMatrix values="0 0 0 0 0.258824 0 0 0 0 0.298039 0 0 0 0 0.407843 0 0 0 0.2 0"/><feBlend in2="A"/><feBlend in="SourceGraphic"/></filter><filter id="s" x="176.588" y="187.981" width="21.062" height="21.408" filterUnits="userSpaceOnUse" class="B"><feFlood result="A" class="C"/><feColorMatrix in="SourceAlpha" values="0 0 0 0 0 0 0 0 0 0 0 0 0 0 0 0 0 0 127 0"/><feMorphology radius="1" operator="dilate" in="SourceAlpha"/><feOffset dx="1" dy="1"/><feGaussianBlur stdDeviation="1"/><feColorMatrix values="0 0 0 0 0.258824 0 0 0 0 0.298039 0 0 0 0 0.407843 0 0 0 0.2 0"/><feBlend in2="A"/><feBlend in="SourceGraphic"/></filter><filter id="t" x="176.588" y="227.92" width="21.062" height="21.408" filterUnits="userSpaceOnUse" class="B"><feFlood result="A" class="C"/><feColorMatrix in="SourceAlpha" values="0 0 0 0 0 0 0 0 0 0 0 0 0 0 0 0 0 0 127 0"/><feMorphology radius="1" operator="dilate" in="SourceAlpha"/><feOffset dx="1" dy="1"/><feGaussianBlur stdDeviation="1"/><feColorMatrix values="0 0 0 0 0.258824 0 0 0 0 0.298039 0 0 0 0 0.407843 0 0 0 0.2 0"/><feBlend in2="A"/><feBlend in="SourceGraphic"/></filter><filter id="u" x="150.966" y="207.95" width="21.062" height="21.408" filterUnits="userSpaceOnUse" class="B"><feFlood result="A" class="C"/><feColorMatrix in="SourceAlpha" values="0 0 0 0 0 0 0 0 0 0 0 0 0 0 0 0 0 0 127 0"/><feMorphology radius="1" operator="dilate" in="SourceAlpha"/><feOffset dx="1" dy="1"/><feGaussianBlur stdDeviation="1"/><feColorMatrix values="0 0 0 0 0.258824 0 0 0 0 0.298039 0 0 0 0 0.407843 0 0 0 0.2 0"/><feBlend in2="A"/><feBlend in="SourceGraphic"/></filter><filter id="v" x="269.431" y="207.95" width="21.062" height="21.408" filterUnits="userSpaceOnUse" class="B"><feFlood result="A" class="C"/><feColorMatrix in="SourceAlpha" values="0 0 0 0 0 0 0 0 0 0 0 0 0 0 0 0 0 0 127 0"/><feMorphology radius="1" operator="dilate" in="SourceAlpha"/><feOffset dx="1" dy="1"/><feGaussianBlur stdDeviation="1"/><feColorMatrix values="0 0 0 0 0.258824 0 0 0 0 0.298039 0 0 0 0 0.407843 0 0 0 0.2 0"/><feBlend in2="A"/><feBlend in="SourceGraphic"/></filter><filter id="w" x="197.017" y="187.981" width="21.062" height="21.408" filterUnits="userSpaceOnUse" class="B"><feFlood result="A" class="C"/><feColorMatrix in="SourceAlpha" values="0 0 0 0 0 0 0 0 0 0 0 0 0 0 0 0 0 0 127 0"/><feMorphology radius="1" operator="dilate" in="SourceAlpha"/><feOffset dx="1" dy="1"/><feGaussianBlur stdDeviation="1"/><feColorMatrix values="0 0 0 0 0.258824 0 0 0 0 0.298039 0 0 0 0 0.407843 0 0 0 0.2 0"/><feBlend in2="A"/><feBlend in="SourceGraphic"/></filter><filter id="x" x="197.017" y="227.92" width="21.062" height="21.408" filterUnits="userSpaceOnUse" class="B"><feFlood result="A" class="C"/><feColorMatrix in="SourceAlpha" values="0 0 0 0 0 0 0 0 0 0 0 0 0 0 0 0 0 0 127 0"/><feMorphology radius="1" operator="dilate" in="SourceAlpha"/><feOffset dx="1" dy="1"/><feGaussianBlur stdDeviation="1"/><feColorMatrix values="0 0 0 0 0.258824 0 0 0 0 0.298039 0 0 0 0 0.407843 0 0 0 0.2 0"/><feBlend in2="A"/><feBlend in="SourceGraphic"/></filter><filter id="y" x="171.394" y="207.95" width="21.062" height="21.408" filterUnits="userSpaceOnUse" class="B"><feFlood result="A" class="C"/><feColorMatrix in="SourceAlpha" values="0 0 0 0 0 0 0 0 0 0 0 0 0 0 0 0 0 0 127 0"/><feMorphology radius="1" operator="dilate" in="SourceAlpha"/><feOffset dx="1" dy="1"/><feGaussianBlur stdDeviation="1"/><feColorMatrix values="0 0 0 0 0.258824 0 0 0 0 0.298039 0 0 0 0 0.407843 0 0 0 0.2 0"/><feBlend in2="A"/><feBlend in="SourceGraphic"/></filter><filter id="z" x="289.86" y="207.95" width="21.062" height="21.408" filterUnits="userSpaceOnUse" class="B"><feFlood result="A" class="C"/><feColorMatrix in="SourceAlpha" values="0 0 0 0 0 0 0 0 0 0 0 0 0 0 0 0 0 0 127 0"/><feMorphology radius="1" operator="dilate" in="SourceAlpha"/><feOffset dx="1" dy="1"/><feGaussianBlur stdDeviation="1"/><feColorMatrix values="0 0 0 0 0.258824 0 0 0 0 0.298039 0 0 0 0 0.407843 0 0 0 0.2 0"/><feBlend in2="A"/><feBlend in="SourceGraphic"/></filter><filter id="AA" x="217.446" y="187.981" width="21.062" height="21.408" filterUnits="userSpaceOnUse" class="B"><feFlood result="A" class="C"/><feColorMatrix in="SourceAlpha" values="0 0 0 0 0 0 0 0 0 0 0 0 0 0 0 0 0 0 127 0"/><feMorphology radius="1" operator="dilate" in="SourceAlpha"/><feOffset dx="1" dy="1"/><feGaussianBlur stdDeviation="1"/><feColorMatrix values="0 0 0 0 0.258824 0 0 0 0 0.298039 0 0 0 0 0.407843 0 0 0 0.2 0"/><feBlend in2="A"/><feBlend in="SourceGraphic"/></filter><filter id="AB" x="217.446" y="227.92" width="21.062" height="21.408" filterUnits="userSpaceOnUse" class="B"><feFlood result="A" class="C"/><feColorMatrix in="SourceAlpha" values="0 0 0 0 0 0 0 0 0 0 0 0 0 0 0 0 0 0 127 0"/><feMorphology radius="1" operator="dilate" in="SourceAlpha"/><feOffset dx="1" dy="1"/><feGaussianBlur stdDeviation="1"/><feColorMatrix values="0 0 0 0 0.258824 0 0 0 0 0.298039 0 0 0 0 0.407843 0 0 0 0.2 0"/><feBlend in2="A"/><feBlend in="SourceGraphic"/></filter><filter id="AC" x="191.823" y="207.95" width="21.062" height="21.408" filterUnits="userSpaceOnUse" class="B"><feFlood result="A" class="C"/><feColorMatrix in="SourceAlpha" values="0 0 0 0 0 0 0 0 0 0 0 0 0 0 0 0 0 0 127 0"/><feMorphology radius="1" operator="dilate" in="SourceAlpha"/><feOffset dx="1" dy="1"/><feGaussianBlur stdDeviation="1"/><feColorMatrix values="0 0 0 0 0.258824 0 0 0 0 0.298039 0 0 0 0 0.407843 0 0 0 0.2 0"/><feBlend in2="A"/><feBlend in="SourceGraphic"/></filter><filter id="AD" x="310.289" y="207.95" width="21.062" height="21.408" filterUnits="userSpaceOnUse" class="B"><feFlood result="A" class="C"/><feColorMatrix in="SourceAlpha" values="0 0 0 0 0 0 0 0 0 0 0 0 0 0 0 0 0 0 127 0"/><feMorphology radius="1" operator="dilate" in="SourceAlpha"/><feOffset dx="1" dy="1"/><feGaussianBlur stdDeviation="1"/><feColorMatrix values="0 0 0 0 0.258824 0 0 0 0 0.298039 0 0 0 0 0.407843 0 0 0 0.2 0"/><feBlend in2="A"/><feBlend in="SourceGraphic"/></filter><filter id="AE" x="269.431" y="187.981" width="21.062" height="21.408" filterUnits="userSpaceOnUse" class="B"><feFlood result="A" class="C"/><feColorMatrix in="SourceAlpha" values="0 0 0 0 0 0 0 0 0 0 0 0 0 0 0 0 0 0 127 0"/><feMorphology radius="1" operator="dilate" in="SourceAlpha"/><feOffset dx="1" dy="1"/><feGaussianBlur stdDeviation="1"/><feColorMatrix values="0 0 0 0 0.258824 0 0 0 0 0.298039 0 0 0 0 0.407843 0 0 0 0.2 0"/><feBlend in2="A"/><feBlend in="SourceGraphic"/></filter><filter id="AF" x="269.431" y="227.92" width="21.062" height="21.408" filterUnits="userSpaceOnUse" class="B"><feFlood result="A" class="C"/><feColorMatrix in="SourceAlpha" values="0 0 0 0 0 0 0 0 0 0 0 0 0 0 0 0 0 0 127 0"/><feMorphology radius="1" operator="dilate" in="SourceAlpha"/><feOffset dx="1" dy="1"/><feGaussianBlur stdDeviation="1"/><feColorMatrix values="0 0 0 0 0.258824 0 0 0 0 0.298039 0 0 0 0 0.407843 0 0 0 0.2 0"/><feBlend in2="A"/><feBlend in="SourceGraphic"/></filter><filter id="AG" x="269.431" y="267.859" width="21.062" height="21.408" filterUnits="userSpaceOnUse" class="B"><feFlood result="A" class="C"/><feColorMatrix in="SourceAlpha" values="0 0 0 0 0 0 0 0 0 0 0 0 0 0 0 0 0 0 127 0"/><feMorphology radius="1" operator="dilate" in="SourceAlpha"/><feOffset dx="1" dy="1"/><feGaussianBlur stdDeviation="1"/><feColorMatrix values="0 0 0 0 0.258824 0 0 0 0 0.298039 0 0 0 0 0.407843 0 0 0 0.2 0"/><feBlend in2="A"/><feBlend in="SourceGraphic"/></filter><filter id="AH" x="289.86" y="267.859" width="21.062" height="21.408" filterUnits="userSpaceOnUse" class="B"><feFlood result="A" class="C"/><feColorMatrix in="SourceAlpha" values="0 0 0 0 0 0 0 0 0 0 0 0 0 0 0 0 0 0 127 0"/><feMorphology radius="1" operator="dilate" in="SourceAlpha"/><feOffset dx="1" dy="1"/><feGaussianBlur stdDeviation="1"/><feColorMatrix values="0 0 0 0 0.258824 0 0 0 0 0.298039 0 0 0 0 0.407843 0 0 0 0.2 0"/><feBlend in2="A"/><feBlend in="SourceGraphic"/></filter><filter id="AI" x="310.289" y="267.859" width="21.062" height="21.408" filterUnits="userSpaceOnUse" class="B"><feFlood result="A" class="C"/><feColorMatrix in="SourceAlpha" values="0 0 0 0 0 0 0 0 0 0 0 0 0 0 0 0 0 0 127 0"/><feMorphology radius="1" operator="dilate" in="SourceAlpha"/><feOffset dx="1" dy="1"/><feGaussianBlur stdDeviation="1"/><feColorMatrix values="0 0 0 0 0.258824 0 0 0 0 0.298039 0 0 0 0 0.407843 0 0 0 0.2 0"/><feBlend in2="A"/><feBlend in="SourceGraphic"/></filter><filter id="AJ" x="289.86" y="247.889" width="21.062" height="21.408" filterUnits="userSpaceOnUse" class="B"><feFlood result="A" class="C"/><feColorMatrix in="SourceAlpha" values="0 0 0 0 0 0 0 0 0 0 0 0 0 0 0 0 0 0 127 0"/><feMorphology radius="1" operator="dilate" in="SourceAlpha"/><feOffset dx="1" dy="1"/><feGaussianBlur stdDeviation="1"/><feColorMatrix values="0 0 0 0 0.258824 0 0 0 0 0.298039 0 0 0 0 0.407843 0 0 0 0.2 0"/><feBlend in2="A"/><feBlend in="SourceGraphic"/></filter><filter id="AK" x="289.86" y="187.981" width="21.062" height="21.408" filterUnits="userSpaceOnUse" class="B"><feFlood result="A" class="C"/><feColorMatrix in="SourceAlpha" values="0 0 0 0 0 0 0 0 0 0 0 0 0 0 0 0 0 0 127 0"/><feMorphology radius="1" operator="dilate" in="SourceAlpha"/><feOffset dx="1" dy="1"/><feGaussianBlur stdDeviation="1"/><feColorMatrix values="0 0 0 0 0.258824 0 0 0 0 0.298039 0 0 0 0 0.407843 0 0 0 0.2 0"/><feBlend in2="A"/><feBlend in="SourceGraphic"/></filter><filter id="AL" x="289.86" y="227.92" width="21.062" height="21.408" filterUnits="userSpaceOnUse" class="B"><feFlood result="A" class="C"/><feColorMatrix in="SourceAlpha" values="0 0 0 0 0 0 0 0 0 0 0 0 0 0 0 0 0 0 127 0"/><feMorphology radius="1" operator="dilate" in="SourceAlpha"/><feOffset dx="1" dy="1"/><feGaussianBlur stdDeviation="1"/><feColorMatrix values="0 0 0 0 0.258824 0 0 0 0 0.298039 0 0 0 0 0.407843 0 0 0 0.2 0"/><feBlend in2="A"/><feBlend in="SourceGraphic"/></filter><filter id="AM" x="310.289" y="187.981" width="21.062" height="21.408" filterUnits="userSpaceOnUse" class="B"><feFlood result="A" class="C"/><feColorMatrix in="SourceAlpha" values="0 0 0 0 0 0 0 0 0 0 0 0 0 0 0 0 0 0 127 0"/><feMorphology radius="1" operator="dilate" in="SourceAlpha"/><feOffset dx="1" dy="1"/><feGaussianBlur stdDeviation="1"/><feColorMatrix values="0 0 0 0 0.258824 0 0 0 0 0.298039 0 0 0 0 0.407843 0 0 0 0.2 0"/><feBlend in2="A"/><feBlend in="SourceGraphic"/></filter><filter id="AN" x="310.29" y="227.92" width="21.062" height="21.408" filterUnits="userSpaceOnUse" class="B"><feFlood result="A" class="C"/><feColorMatrix in="SourceAlpha" values="0 0 0 0 0 0 0 0 0 0 0 0 0 0 0 0 0 0 127 0"/><feMorphology radius="1" operator="dilate" in="SourceAlpha"/><feOffset dx="1" dy="1"/><feGaussianBlur stdDeviation="1"/><feColorMatrix values="0 0 0 0 0.258824 0 0 0 0 0.298039 0 0 0 0 0.407843 0 0 0 0.2 0"/><feBlend in2="A"/><feBlend in="SourceGraphic"/></filter><filter id="AO" x="237.875" y="187.981" width="32.19" height="21.408" filterUnits="userSpaceOnUse" class="B"><feFlood result="A" class="C"/><feColorMatrix in="SourceAlpha" values="0 0 0 0 0 0 0 0 0 0 0 0 0 0 0 0 0 0 127 0"/><feMorphology radius="1" operator="dilate" in="SourceAlpha"/><feOffset dx="1" dy="1"/><feGaussianBlur stdDeviation="1"/><feColorMatrix values="0 0 0 0 0.258824 0 0 0 0 0.298039 0 0 0 0 0.407843 0 0 0 0.2 0"/><feBlend in2="A"/><feBlend in="SourceGraphic"/></filter><filter id="AP" x="237.875" y="227.92" width="32.19" height="21.408" filterUnits="userSpaceOnUse" class="B"><feFlood result="A" class="C"/><feColorMatrix in="SourceAlpha" values="0 0 0 0 0 0 0 0 0 0 0 0 0 0 0 0 0 0 127 0"/><feMorphology radius="1" operator="dilate" in="SourceAlpha"/><feOffset dx="1" dy="1"/><feGaussianBlur stdDeviation="1"/><feColorMatrix values="0 0 0 0 0.258824 0 0 0 0 0.298039 0 0 0 0 0.407843 0 0 0 0.2 0"/><feBlend in2="A"/><feBlend in="SourceGraphic"/></filter><filter id="AQ" x="246.785" y="247.889" width="23.28" height="21.408" filterUnits="userSpaceOnUse" class="B"><feFlood result="A" class="C"/><feColorMatrix in="SourceAlpha" values="0 0 0 0 0 0 0 0 0 0 0 0 0 0 0 0 0 0 127 0"/><feMorphology radius="1" operator="dilate" in="SourceAlpha"/><feOffset dx="1" dy="1"/><feGaussianBlur stdDeviation="1"/><feColorMatrix values="0 0 0 0 0.258824 0 0 0 0 0.298039 0 0 0 0 0.407843 0 0 0 0.2 0"/><feBlend in2="A"/><feBlend in="SourceGraphic"/></filter><filter id="AR" x="248.801" y="267.859" width="21.264" height="21.408" filterUnits="userSpaceOnUse" class="B"><feFlood result="A" class="C"/><feColorMatrix in="SourceAlpha" values="0 0 0 0 0 0 0 0 0 0 0 0 0 0 0 0 0 0 127 0"/><feMorphology radius="1" operator="dilate" in="SourceAlpha"/><feOffset dx="1" dy="1"/><feGaussianBlur stdDeviation="1"/><feColorMatrix values="0 0 0 0 0.258824 0 0 0 0 0.298039 0 0 0 0 0.407843 0 0 0 0.2 0"/><feBlend in2="A"/><feBlend in="SourceGraphic"/></filter><filter id="AS" x="136.805" y="29.753" width="73.044" height="94.903" filterUnits="userSpaceOnUse" class="B"><feFlood result="A" class="C"/><feColorMatrix in="SourceAlpha" values="0 0 0 0 0 0 0 0 0 0 0 0 0 0 0 0 0 0 127 0"/><feOffset dx="-2"/><feGaussianBlur stdDeviation="5"/><feColorMatrix values="0 0 0 0 0.258824 0 0 0 0 0.298039 0 0 0 0 0.407843 0 0 0 0.3 0"/><feBlend in2="A"/><feBlend in="SourceGraphic"/></filter><linearGradient id="AT" x1="169.275" y1="35.421" x2="169.275" y2="110.324" xlink:href="#AY"><stop stop-color="#41ccdb"/><stop offset="1" stop-color="#00b8cc"/></linearGradient><linearGradient id="AU" x1="157.279" y1="79.894" x2="157.279" y2="125.538" xlink:href="#AY"><stop stop-color="#00b8cc"/><stop offset="1" stop-color="#00b8cc" stop-opacity="0"/></linearGradient><linearGradient id="AV" x1="181.271" y1="79.894" x2="181.271" y2="125.538" xlink:href="#AY"><stop stop-color="#00b8cc"/><stop offset="1" stop-color="#00b8cc" stop-opacity="0"/></linearGradient><linearGradient id="AW" x1="175.327" y1="39.753" x2="175.327" y2="114.656" xlink:href="#AY"><stop stop-color="#fff"/><stop offset="1" stop-color="#eef5fc"/></linearGradient><linearGradient id="AX" x1="207.479" y1="95.109" x2="207.479" y2="125.538" xlink:href="#AY"><stop stop-color="#41ccdb"/><stop offset="1" stop-color="#00b8cc"/></linearGradient><linearGradient id="AY" gradientUnits="userSpaceOnUse"/></defs></svg>