<svg xmlns="http://www.w3.org/2000/svg" width="120" height="106" fill="none" xmlns:v="https://vecta.io/nano"><style><![CDATA[.B{color-interpolation-filters:sRGB}.C{flood-opacity:0}.D{fill:#00b8cc}.E{stroke-linecap:round}.F{stroke:#41ccdb}.G{fill:#fff}.H{stroke-linejoin:round}.I{fill:#41ccdb}.J{stroke:#00b8cc}]]></style><path d="M19.841 48.733h81.115v46.744H19.841V48.733z" fill="url(#V)"/><g filter="url(#D)" class="D"><path d="M31.41 37.899h58.036l11.516 10.834H19.846L31.41 37.899z"/></g><path d="M20.755 48.373l10.796-10.115h57.753l10.752 10.115H20.755z" class="F"/><g filter="url(#E)" class="D"><path d="M26.966 48.733h-7.12v46.744h7.12V48.733z"/></g><g filter="url(#F)" class="D"><path d="M100.961 48.733h-7.119v46.744h7.119V48.733z"/></g><g filter="url(#G)" class="D"><path d="M83.082 48.733H78.78v46.744h4.301V48.733z"/></g><g filter="url(#H)" class="D"><path d="M63.566 48.733h-4.301v46.744h4.301V48.733z"/></g><g filter="url(#I)" class="D"><path d="M44.056 48.733h-4.301v46.744h4.301V48.733z"/></g><g filter="url(#J)" class="D"><path d="M101.043 91.179H19.754c-.792 0-1.434.644-1.434 1.438v1.422c0 .794.642 1.438 1.434 1.438h81.289c.792 0 1.434-.644 1.434-1.438v-1.422c0-.794-.642-1.438-1.434-1.438z"/></g><path d="M31.607 37.54L20.564 17.038h79.393L89.227 37.54H31.607z" class="D F"/><g filter="url(#K)" class="D"><path d="M89.363 24.596H31.357v13.303h58.006V24.596z"/></g><g filter="url(#L)" class="D"><path d="M27.098 17.482h66.703l-4.433 7.114H31.254l-4.156-7.114z"/></g><path d="M27.04 9.938h66.434c3.59 0 6.523 2.825 6.71 6.381H20.331a6.73 6.73 0 0 1 6.709-6.381z" class="F I"/><g filter="url(#M)" class="D"><path d="M63.566 9.579h-4.301v7.1h4.301v-7.1z"/></g><g filter="url(#N)" class="D"><path d="M83.082 9.578H78.78v7.1h4.301v-7.1z"/></g><g filter="url(#O)" class="D"><path d="M44.056 9.579h-4.301v7.1h4.301v-7.1z"/></g><path d="M63.96 36.314h8.414" stroke="#586b80" class="E H"/><path d="M62.909 16.366v1.441h-2.987v-1.441c0-.828.669-1.498 1.493-1.498s1.493.671 1.493 1.498z" stroke="#eef5fc"/><path d="M61.558 13.128h-.287a.72.72 0 0 0-.717.719v2.112a.72.72 0 0 0 .717.719h.287a.72.72 0 0 0 .717-.719v-2.112a.72.72 0 0 0-.717-.719zm.995 37.57h-2.287a.72.72 0 0 0-.717.719v2.992a.72.72 0 0 0 .717.719h2.287a.72.72 0 0 0 .717-.719v-2.992a.72.72 0 0 0-.717-.719z" class="I"/><g filter="url(#P)"><mask id="A" maskUnits="userSpaceOnUse" x="45" y="18" width="34" height="17" mask-type="alpha"><path d="M45.121 22.239a3.59 3.59 0 0 1 3.584-3.596h26.491a3.59 3.59 0 0 1 3.584 3.596v12.448h-33.66V22.239z" class="G"/></mask><g mask="url(#A)"><path d="M45.121 22.239a3.59 3.59 0 0 1 3.584-3.596h26.491a3.59 3.59 0 0 1 3.584 3.596v12.448h-33.66V22.239z" fill="url(#W)"/><path d="M44.404 22.239a4.31 4.31 0 0 1 4.301-4.315h26.491a4.31 4.31 0 0 1 4.301 4.315h-1.434c0-1.589-1.284-2.877-2.867-2.877H48.705c-1.584 0-2.867 1.288-2.867 2.877h-1.434zm34.377 12.448h-33.66 33.66zm-34.377 0V22.239a4.31 4.31 0 0 1 4.301-4.315v1.438c-1.584 0-2.867 1.288-2.867 2.877v12.448h-1.434zm30.792-16.763a4.31 4.31 0 0 1 4.301 4.315v12.448h-1.434V22.239c0-1.589-1.284-2.877-2.867-2.877v-1.438z" class="G"/></g></g><path d="M48.676 24.596h8.414m-8.509 5.484H75.32" class="E F H"/><path d="M48.581 33.494H75.32" stroke="#586b80" class="E H"/><path d="M68.64 24.596l1.842 2.883 4.053-5.767" class="E J"/><g filter="url(#Q)"><mask id="B" maskUnits="userSpaceOnUse" x="26" y="24" width="35" height="25" mask-type="alpha"><path d="M26.966 28.192a3.59 3.59 0 0 1 3.584-3.596h26.491a3.59 3.59 0 0 1 3.584 3.596v19.84h-33.66v-19.84z" class="G"/></mask><g mask="url(#B)"><path d="M26.966 28.192a3.59 3.59 0 0 1 3.584-3.596h26.491a3.59 3.59 0 0 1 3.584 3.596v19.84h-33.66v-19.84z" fill="url(#X)"/><path d="M26.249 28.192a4.31 4.31 0 0 1 4.301-4.315h26.491a4.31 4.31 0 0 1 4.301 4.315h-1.434c0-1.589-1.284-2.877-2.867-2.877H30.55c-1.584 0-2.867 1.288-2.867 2.877h-1.434zm34.377 19.84h-33.66 33.66zm-34.377 0V28.192a4.31 4.31 0 0 1 4.301-4.315v1.438c-1.584 0-2.867 1.288-2.867 2.877v19.84h-1.434zm30.792-24.155a4.31 4.31 0 0 1 4.301 4.315v19.84h-1.434V28.192c0-1.589-1.284-2.877-2.867-2.877v-1.438z" class="G"/></g></g><g class="E F H"><path d="M30.522 30.829h8.414m-8.51 5.485h26.739m-26.739 3.414h26.739m-26.739 7.124h26.739"/><path d="M30.426 43.316h26.739"/></g><path d="M49.452 31.247l1.842 2.883 4.053-5.767" class="E J"/><g filter="url(#R)"><mask id="C" maskUnits="userSpaceOnUse" x="60" y="30" width="34" height="19" mask-type="alpha"><path d="M60.141 33.641a3.59 3.59 0 0 1 3.584-3.596h26.491a3.59 3.59 0 0 1 3.584 3.596v14.39h-33.66v-14.39z" class="G"/></mask><g mask="url(#C)"><path d="M60.141 33.641a3.59 3.59 0 0 1 3.584-3.596h26.491a3.59 3.59 0 0 1 3.584 3.596v14.39h-33.66v-14.39z" fill="url(#Y)"/><path d="M59.424 33.641a4.31 4.31 0 0 1 4.301-4.315h26.491a4.31 4.31 0 0 1 4.301 4.315h-1.434c0-1.589-1.284-2.877-2.868-2.877H63.726c-1.584 0-2.867 1.288-2.867 2.877h-1.434zm34.376 14.39h-33.66 33.66zm-34.376 0v-14.39a4.31 4.31 0 0 1 4.301-4.315v1.438c-1.584 0-2.867 1.288-2.867 2.877v14.39h-1.434zm30.792-18.705a4.31 4.31 0 0 1 4.301 4.315v14.39h-1.434v-14.39c0-1.589-1.284-2.877-2.868-2.877v-1.438z" class="G"/></g></g><path d="M64.125 37.156h8.414m-8.675 4.642h26.739m-26.739 3.414h26.739" class="E F H"/><path d="M83.468 36.378l1.842 2.883 4.053-5.767" class="E J"/><g filter="url(#S)" class="I"><path d="M63.408 17.482h-3.986a.72.72 0 0 0-.717.719v2.319a.72.72 0 0 0 .717.719h3.986a.72.72 0 0 0 .717-.719v-2.319a.72.72 0 0 0-.717-.719z"/></g><path fill-rule="evenodd" d="M61.534 19.518c.239-.062.416-.28.416-.54 0-.308-.249-.557-.555-.557s-.555.249-.555.557c0 .259.177.477.416.54v.782h.278v-.782z" fill="#eef5fc"/><g filter="url(#T)"><path d="M61.415 80.31c5.793 0 10.489-4.711 10.489-10.522s-4.696-10.522-10.489-10.522-10.489 4.711-10.489 10.522S55.623 80.31 61.415 80.31z" fill="#eef5fc" fill-opacity=".99"/></g><g filter="url(#U)" class="G"><path d="M61.415 78.613c4.858 0 8.797-3.951 8.797-8.825s-3.939-8.825-8.797-8.825-8.797 3.951-8.797 8.825 3.938 8.825 8.797 8.825z" fill-opacity=".99"/></g><path d="M66.161 64.918a.69.69 0 0 1 .145.226c.033.083.049.171.048.261a.69.69 0 0 1-.214.467.67.67 0 0 1-.477.183h-.009a.66.66 0 0 1-.47-.197.68.68 0 0 1 0-.955.66.66 0 0 1 .47-.197h.003c.094-.001.186.017.273.054a.69.69 0 0 1 .23.158zm-8.369 9.039c.034.086.05.177.049.269-.009.177-.087.343-.215.463a.67.67 0 0 1-.474.18l-.005-.001h-.005a.66.66 0 0 1-.47-.196.68.68 0 0 1 0-.955.66.66 0 0 1 .47-.196h.005c.092-.001.183.016.268.052a.68.68 0 0 1 .228.153c.065.066.116.146.15.232zm.579-5.409a3.35 3.35 0 0 0-.237 1.282 3.41 3.41 0 0 0 .401 1.585l-.648.668c-.403-.673-.617-1.448-.614-2.24v-.007a4.26 4.26 0 0 1 .297-1.623c.204-.516.506-.986.89-1.383s.841-.715 1.346-.933a4.14 4.14 0 0 1 1.594-.341 4.02 4.02 0 0 1 2.17.64l-.637.66c-.461-.254-.978-.391-1.506-.397h-.005a3.27 3.27 0 0 0-1.27.261c-.402.171-.766.42-1.072.734a3.33 3.33 0 0 0-.709 1.093zm6.123 2.562a3.36 3.36 0 0 0 .235-1.287c-.003-.556-.141-1.102-.401-1.59l.629-.651c.402.673.616 1.447.613 2.239v.008c.01.554-.09 1.105-.294 1.619s-.507.983-.892 1.377l-.001.001a4.21 4.21 0 0 1-2.954 1.286c-.77-.003-1.52-.228-2.165-.644l.638-.662a3.2 3.2 0 0 0 1.527.398h.002a3.28 3.28 0 0 0 1.275-.258 3.3 3.3 0 0 0 1.077-.736 3.33 3.33 0 0 0 .711-1.098z" class="F I"/><defs><filter id="D" x="19.846" y="37.899" width="81.115" height="12.834" filterUnits="userSpaceOnUse" class="B"><feFlood class="C"/><feBlend in="SourceGraphic" result="B"/><feColorMatrix in="SourceAlpha" values="0 0 0 0 0 0 0 0 0 0 0 0 0 0 0 0 0 0 127 0" result="C"/><feOffset dy="2"/><feGaussianBlur stdDeviation="5"/><feComposite in2="C" operator="arithmetic" k2="-1" k3="1"/><feColorMatrix values="0 0 0 0 0.258824 0 0 0 0 0.298039 0 0 0 0 0.407843 0 0 0 0.4 0"/><feBlend in2="B"/></filter><filter id="E" x="19.846" y="48.733" width="7.12" height="48.744" filterUnits="userSpaceOnUse" class="B"><feFlood class="C"/><feBlend in="SourceGraphic" result="B"/><feColorMatrix in="SourceAlpha" values="0 0 0 0 0 0 0 0 0 0 0 0 0 0 0 0 0 0 127 0" result="C"/><feOffset dy="2"/><feGaussianBlur stdDeviation="2"/><feComposite in2="C" operator="arithmetic" k2="-1" k3="1"/><feColorMatrix values="0 0 0 0 0.258824 0 0 0 0 0.298039 0 0 0 0 0.407843 0 0 0 0.2 0"/><feBlend in2="B"/></filter><filter id="F" x="93.842" y="48.733" width="7.12" height="48.744" filterUnits="userSpaceOnUse" class="B"><feFlood class="C"/><feBlend in="SourceGraphic" result="B"/><feColorMatrix in="SourceAlpha" values="0 0 0 0 0 0 0 0 0 0 0 0 0 0 0 0 0 0 127 0" result="C"/><feOffset dy="2"/><feGaussianBlur stdDeviation="2"/><feComposite in2="C" operator="arithmetic" k2="-1" k3="1"/><feColorMatrix values="0 0 0 0 0.258824 0 0 0 0 0.298039 0 0 0 0 0.407843 0 0 0 0.2 0"/><feBlend in2="B"/></filter><filter id="G" x="78.78" y="48.733" width="4.301" height="48.744" filterUnits="userSpaceOnUse" class="B"><feFlood class="C"/><feBlend in="SourceGraphic" result="B"/><feColorMatrix in="SourceAlpha" values="0 0 0 0 0 0 0 0 0 0 0 0 0 0 0 0 0 0 127 0" result="C"/><feOffset dy="2"/><feGaussianBlur stdDeviation="2"/><feComposite in2="C" operator="arithmetic" k2="-1" k3="1"/><feColorMatrix values="0 0 0 0 0.258824 0 0 0 0 0.298039 0 0 0 0 0.407843 0 0 0 0.21 0"/><feBlend in2="B"/></filter><filter id="H" x="59.265" y="48.733" width="4.301" height="48.744" filterUnits="userSpaceOnUse" class="B"><feFlood class="C"/><feBlend in="SourceGraphic" result="B"/><feColorMatrix in="SourceAlpha" values="0 0 0 0 0 0 0 0 0 0 0 0 0 0 0 0 0 0 127 0" result="C"/><feOffset dy="2"/><feGaussianBlur stdDeviation="2"/><feComposite in2="C" operator="arithmetic" k2="-1" k3="1"/><feColorMatrix values="0 0 0 0 0.258824 0 0 0 0 0.298039 0 0 0 0 0.407843 0 0 0 0.21 0"/><feBlend in2="B"/></filter><filter id="I" x="39.754" y="48.733" width="4.301" height="48.744" filterUnits="userSpaceOnUse" class="B"><feFlood class="C"/><feBlend in="SourceGraphic" result="B"/><feColorMatrix in="SourceAlpha" values="0 0 0 0 0 0 0 0 0 0 0 0 0 0 0 0 0 0 127 0" result="C"/><feOffset dy="2"/><feGaussianBlur stdDeviation="2"/><feComposite in2="C" operator="arithmetic" k2="-1" k3="1"/><feColorMatrix values="0 0 0 0 0.258824 0 0 0 0 0.298039 0 0 0 0 0.407843 0 0 0 0.21 0"/><feBlend in2="B"/></filter><filter id="J" x="18.32" y="91.179" width="84.157" height="4.299" filterUnits="userSpaceOnUse" class="B"><feFlood class="C"/><feBlend in="SourceGraphic" result="B"/><feColorMatrix in="SourceAlpha" values="0 0 0 0 0 0 0 0 0 0 0 0 0 0 0 0 0 0 127 0" result="C"/><feOffset/><feGaussianBlur stdDeviation="1"/><feComposite in2="C" operator="arithmetic" k2="-1" k3="1"/><feColorMatrix values="0 0 0 0 0.258824 0 0 0 0 0.298039 0 0 0 0 0.407843 0 0 0 0.2 0"/><feBlend in2="B"/></filter><filter id="K" x="31.357" y="22.596" width="58.006" height="15.303" filterUnits="userSpaceOnUse" class="B"><feFlood class="C"/><feBlend in="SourceGraphic" result="B"/><feColorMatrix in="SourceAlpha" values="0 0 0 0 0 0 0 0 0 0 0 0 0 0 0 0 0 0 127 0" result="C"/><feOffset dy="-2"/><feGaussianBlur stdDeviation="5"/><feComposite in2="C" operator="arithmetic" k2="-1" k3="1"/><feColorMatrix values="0 0 0 0 0.258824 0 0 0 0 0.298039 0 0 0 0 0.407843 0 0 0 0.35 0"/><feBlend in2="B"/></filter><filter id="L" x="27.098" y="17.482" width="66.704" height="9.114" filterUnits="userSpaceOnUse" class="B"><feFlood class="C"/><feBlend in="SourceGraphic" result="B"/><feColorMatrix in="SourceAlpha" values="0 0 0 0 0 0 0 0 0 0 0 0 0 0 0 0 0 0 127 0" result="C"/><feOffset dy="2"/><feGaussianBlur stdDeviation="5"/><feComposite in2="C" operator="arithmetic" k2="-1" k3="1"/><feColorMatrix values="0 0 0 0 0.258824 0 0 0 0 0.298039 0 0 0 0 0.407843 0 0 0 0.5 0"/><feBlend in2="B"/></filter><filter id="M" x="59.265" y="9.579" width="4.301" height="9.1" filterUnits="userSpaceOnUse" class="B"><feFlood class="C"/><feBlend in="SourceGraphic" result="B"/><feColorMatrix in="SourceAlpha" values="0 0 0 0 0 0 0 0 0 0 0 0 0 0 0 0 0 0 127 0" result="C"/><feOffset dy="2"/><feGaussianBlur stdDeviation="2"/><feComposite in2="C" operator="arithmetic" k2="-1" k3="1"/><feColorMatrix values="0 0 0 0 0.258824 0 0 0 0 0.298039 0 0 0 0 0.407843 0 0 0 0.21 0"/><feBlend in2="B"/></filter><filter id="N" x="78.78" y="9.578" width="4.301" height="9.1" filterUnits="userSpaceOnUse" class="B"><feFlood class="C"/><feBlend in="SourceGraphic" result="B"/><feColorMatrix in="SourceAlpha" values="0 0 0 0 0 0 0 0 0 0 0 0 0 0 0 0 0 0 127 0" result="C"/><feOffset dy="2"/><feGaussianBlur stdDeviation="2"/><feComposite in2="C" operator="arithmetic" k2="-1" k3="1"/><feColorMatrix values="0 0 0 0 0.258824 0 0 0 0 0.298039 0 0 0 0 0.407843 0 0 0 0.21 0"/><feBlend in2="B"/></filter><filter id="O" x="39.754" y="9.579" width="4.301" height="9.1" filterUnits="userSpaceOnUse" class="B"><feFlood class="C"/><feBlend in="SourceGraphic" result="B"/><feColorMatrix in="SourceAlpha" values="0 0 0 0 0 0 0 0 0 0 0 0 0 0 0 0 0 0 127 0" result="C"/><feOffset dy="2"/><feGaussianBlur stdDeviation="2"/><feComposite in2="C" operator="arithmetic" k2="-1" k3="1"/><feColorMatrix values="0 0 0 0 0.258824 0 0 0 0 0.298039 0 0 0 0 0.407843 0 0 0 0.21 0"/><feBlend in2="B"/></filter><filter id="P" x="40.121" y="11.643" width="43.66" height="26.044" filterUnits="userSpaceOnUse" class="B"><feFlood result="A" class="C"/><feColorMatrix in="SourceAlpha" values="0 0 0 0 0 0 0 0 0 0 0 0 0 0 0 0 0 0 127 0"/><feOffset dy="-2"/><feGaussianBlur stdDeviation="2.5"/><feColorMatrix values="0 0 0 0 0.258824 0 0 0 0 0.298039 0 0 0 0 0.407843 0 0 0 0.3 0"/><feBlend in2="A"/><feBlend in="SourceGraphic"/></filter><filter id="Q" x="21.966" y="17.596" width="43.66" height="33.436" filterUnits="userSpaceOnUse" class="B"><feFlood result="A" class="C"/><feColorMatrix in="SourceAlpha" values="0 0 0 0 0 0 0 0 0 0 0 0 0 0 0 0 0 0 127 0"/><feOffset dy="-2"/><feGaussianBlur stdDeviation="2.5"/><feColorMatrix values="0 0 0 0 0.258824 0 0 0 0 0.298039 0 0 0 0 0.407843 0 0 0 0.3 0"/><feBlend in2="A"/><feBlend in="SourceGraphic"/></filter><filter id="R" x="55.141" y="23.045" width="43.66" height="27.986" filterUnits="userSpaceOnUse" class="B"><feFlood result="A" class="C"/><feColorMatrix in="SourceAlpha" values="0 0 0 0 0 0 0 0 0 0 0 0 0 0 0 0 0 0 127 0"/><feOffset dy="-2"/><feGaussianBlur stdDeviation="2.5"/><feColorMatrix values="0 0 0 0 0.258824 0 0 0 0 0.298039 0 0 0 0 0.407843 0 0 0 0.3 0"/><feBlend in2="A"/><feBlend in="SourceGraphic"/></filter><filter id="S" x="56.705" y="16.482" width="9.42" height="7.758" filterUnits="userSpaceOnUse" class="B"><feFlood result="A" class="C"/><feColorMatrix in="SourceAlpha" values="0 0 0 0 0 0 0 0 0 0 0 0 0 0 0 0 0 0 127 0"/><feOffset dy="1"/><feGaussianBlur stdDeviation="1"/><feColorMatrix values="0 0 0 0 0.258824 0 0 0 0 0.298039 0 0 0 0 0.407843 0 0 0 0.5 0"/><feBlend in2="A"/><feBlend in="SourceGraphic"/></filter><filter id="T" x="48.927" y="58.265" width="24.977" height="25.045" filterUnits="userSpaceOnUse" class="B"><feFlood result="A" class="C"/><feColorMatrix in="SourceAlpha" values="0 0 0 0 0 0 0 0 0 0 0 0 0 0 0 0 0 0 127 0"/><feOffset dy="1"/><feGaussianBlur stdDeviation="1"/><feColorMatrix values="0 0 0 0 0.258824 0 0 0 0 0.298039 0 0 0 0 0.407843 0 0 0 0.5 0"/><feBlend in2="A"/><feBlend in="SourceGraphic"/></filter><filter id="U" x="50.618" y="59.962" width="21.594" height="21.651" filterUnits="userSpaceOnUse" class="B"><feFlood result="A" class="C"/><feColorMatrix in="SourceAlpha" values="0 0 0 0 0 0 0 0 0 0 0 0 0 0 0 0 0 0 127 0"/><feOffset dy="1"/><feGaussianBlur stdDeviation="1"/><feColorMatrix values="0 0 0 0 0.258824 0 0 0 0 0.298039 0 0 0 0 0.407843 0 0 0 0.3 0"/><feBlend in2="A"/><feBlend in="SourceGraphic"/></filter><linearGradient id="V" x1="60.399" y1="81.882" x2="60.399" y2="102.263" gradientUnits="userSpaceOnUse"><stop stop-color="#41ccdb"/><stop offset="1" stop-color="#00b8cc"/></linearGradient><linearGradient id="W" x1="61.951" y1="18.643" x2="61.951" y2="34.687" gradientUnits="userSpaceOnUse"><stop stop-color="#fff"/><stop offset="1" stop-color="#eef5fc"/></linearGradient><linearGradient id="X" x1="43.796" y1="24.596" x2="43.796" y2="48.031" gradientUnits="userSpaceOnUse"><stop stop-color="#fff"/><stop offset="1" stop-color="#eef5fc"/></linearGradient><linearGradient id="Y" x1="76.971" y1="30.045" x2="76.971" y2="48.031" gradientUnits="userSpaceOnUse"><stop stop-color="#fff"/><stop offset="1" stop-color="#eef5fc"/></linearGradient></defs></svg>