<svg xmlns="http://www.w3.org/2000/svg" width="45" height="36" fill="none" xmlns:v="https://vecta.io/nano"><g filter="url(#B)"><mask id="A" maskUnits="userSpaceOnUse" x="2" y="1" width="41" height="32" mask-type="alpha"><path fill-rule="evenodd" d="M27.769 1.057l4.259 1.024c1.697.534 4.169 1.646 4.169 1.646l-.003.001c.079.133 3.898 6.571 5.065 11.165 1.154 4.544.891 11.922.882 12.188l.008.001-.009.006h0c-.164.115-2.694 1.876-4.465 2.842-2.135 1.164-5.741 2.414-5.741 2.414l-2.205-3.662 3.411-1.707-.818-.665c-2.097 1.349-5.846 2.248-10.122 2.248-4.302 0-8.071-.91-10.16-2.272l-.829.674 3.411 1.707-2.205 3.662s-3.606-1.249-5.741-2.414c-1.818-.992-4.433-2.802-4.471-2.828l-.013.001s-.236-7.569.955-12.195C4.326 10.312 8.119 3.887 8.213 3.729l-.005-.002s2.472-1.112 4.169-1.646c1.632-.514 4.259-1.024 4.259-1.024l1.001 2.046c1.405-.062 2.79-.105 4.016-.11a109.72 109.72 0 0 1 5.11.124l1.007-2.059zm-8.606 15.644c0 2.256-1.628 4.085-3.636 4.085s-3.637-1.829-3.637-4.085 1.628-4.085 3.637-4.085 3.636 1.829 3.636 4.085zm9.658 4.085c2.008 0 3.637-1.829 3.637-4.085s-1.628-4.085-3.637-4.085-3.637 1.829-3.637 4.085 1.628 4.085 3.637 4.085z" fill="#fff"/></mask><g mask="url(#A)"><path fill-rule="evenodd" d="M27.769 1.057l4.259 1.024c1.697.534 4.169 1.646 4.169 1.646l-.003.001c.079.133 3.898 6.571 5.065 11.165 1.154 4.544.891 11.922.882 12.188l.008.001-.009.006h0c-.164.115-2.694 1.876-4.465 2.842-2.135 1.164-5.741 2.414-5.741 2.414l-2.205-3.662 3.411-1.707-.818-.665c-2.097 1.349-5.846 2.248-10.122 2.248-4.302 0-8.071-.91-10.16-2.272l-.829.674 3.411 1.707-2.205 3.662s-3.606-1.249-5.741-2.414c-1.818-.992-4.433-2.802-4.471-2.828l-.013.001s-.236-7.569.955-12.195C4.326 10.312 8.119 3.887 8.213 3.729l-.005-.002s2.472-1.112 4.169-1.646c1.632-.514 4.259-1.024 4.259-1.024l1.001 2.046c1.405-.062 2.79-.105 4.016-.11a109.72 109.72 0 0 1 5.11.124l1.007-2.059zm-8.606 15.644c0 2.256-1.628 4.085-3.636 4.085s-3.637-1.829-3.637-4.085 1.628-4.085 3.637-4.085 3.636 1.829 3.636 4.085zm9.658 4.085c2.008 0 3.637-1.829 3.637-4.085s-1.628-4.085-3.637-4.085-3.637 1.829-3.637 4.085 1.628 4.085 3.637 4.085z" fill="url(#C)"/><path d="M32.028 2.081l.213-.678-.213.678zm-4.259-1.024l.136-.698-.535-.104-.239.489.638.312zm8.428 2.671l.284.651 1.468-.642-1.461-.658-.291.649zm-.003.001l-.285-.651-.738.323.412.692.611-.363zm5.065 11.165l.689-.175-.689.175zm.882 12.188l-.711-.027-.023.615.605.111.129-.699zm.008.002l.407.583 1.396-.975-1.674-.307-.128.699zm-.008.006l-.407-.583-.289.202-.014.353.71.028zm0 0l-.058.709.739.061.029-.741-.71-.028zm0 0l.058-.709-.255-.021-.21.146.407.583zm-4.466 2.842l.34.624-.34-.624zm-5.741 2.414l-.609.367.297.494.544-.189-.232-.672zm-2.205-3.662l-.318-.636-.687.344.397.659.609-.367zm3.411-1.707l.318.636.984-.493-.854-.695-.448.552zm-.818-.665l.448-.552-.399-.325-.433.279.384.598zm-20.283-.025l.388-.596-.434-.283-.402.327.448.552zm-.829.674l-.448-.552-.854.695.984.493.318-.636zm3.412 1.707l.608.367.397-.659-.687-.344-.318.636zm-2.205 3.662l-.233.672.544.189.297-.494-.609-.367zm-5.741-2.414l-.34.624.34-.624zm-4.471-2.828l.405-.585-.212-.147-.257.023.064.708zm-.013.001l-.71.022.024.754.751-.068-.064-.708zm.955-12.195l-.688-.177.688.177zM8.212 3.729l.612.362.409-.692-.736-.322-.285.652zm-.005-.002l-.291-.649-1.462.658 1.469.642.285-.651zm4.169-1.646l-.213-.678.213.678zm4.259-1.024l.638-.312-.24-.489-.534.104.136.698zm1.001 2.046l-.638.313.205.418.465-.021-.031-.71zm4.016-.11l-.003-.711.003.711zm5.11.124l-.031.71.465.021.205-.418-.638-.312zm5.479-1.713c-.846-.266-1.935-.528-2.8-.721L28.348.448l-.324-.066-.088-.017-.023-.005c-.008-.002-.008-.002-.144.696l-.136.698.028.006.085.017.316.064 1.07.229 2.682.689.427-1.356zm3.956 2.324l.291-.649-.03-.013-.083-.037-.308-.135-1.047-.446-2.78-1.045-.427 1.356c.817.257 1.835.659 2.662 1.002l1.023.436.299.131.08.035.021.009.006.003c.001 0 0 0 .292-.648zm.282.653l.002-.001-.569-1.303-.003.001.57 1.303zm5.469 10.338c-.603-2.376-1.88-5.192-2.995-7.4l-2.149-3.953-1.222.727 2.102 3.867c1.107 2.192 2.323 4.892 2.886 7.109l1.377-.35zm.903 12.389l-.004-4.538c-.078-2.455-.301-5.5-.899-7.851l-1.377.35c.557 2.193.779 5.109.856 7.545l.004 4.441 1.421.053zm-.574-.724l-.008-.002-.257 1.399.008.002.257-1.399zm.271 1.288l.008-.006-.814-1.166-.008.006.814 1.166zm.303-.554h0l-1.42-.057h0l1.42.057zm-.768.68l.117-1.417-.117 1.417zm-4.067 2.758c1.812-.988 4.373-2.773 4.532-2.884l-.813-1.166-4.399 2.801.68 1.249zm-6.081 1.789l.232.672.043-.015.121-.042.444-.16 1.489-.563 3.752-1.681-.68-1.249c-1.027.56-2.427 1.15-3.591 1.606l-1.457.551-.431.155-.116.041-.029.01c-.01.003-.009.003.223.675zm-2.814-3.295l2.205 3.662 1.218-.734-2.205-3.662-1.218.734zm3.702-2.71l-3.412 1.707.636 1.272 3.412-1.707-.636-1.272zm-.948.522l.817.665.897-1.103-.818-.665-.896 1.103zm-9.674 2.407c4.344 0 8.249-.908 10.507-2.361l-.768-1.196c-1.936 1.245-5.529 2.135-9.738 2.135v1.422zM11.652 26.88c2.252 1.469 6.179 2.388 10.549 2.388v-1.422c-4.235 0-7.846-.901-9.772-2.157l-.776 1.191zm.008.63l.829-.675-.897-1.103-.829.674.897 1.103zm3.281.52l-3.411-1.707-.636 1.272 3.411 1.707.636-1.272zm-1.914 4.665l2.205-3.662-1.217-.734-2.205 3.662 1.218.734zm-6.69-2.156c1.109.605 2.579 1.221 3.752 1.681l1.489.563.443.16.121.043.032.011c.011.004.011.004.244-.668l.233-.672-.039-.014-.116-.041-.432-.155-1.457-.551c-1.163-.456-2.564-1.046-3.59-1.606l-.68 1.249zm-4.535-2.868c.032.022 2.678 1.855 4.535 2.868l.68-1.249c-1.779-.97-4.363-2.758-4.407-2.788l-.809 1.169zm.456.125l.013-.001-.128-1.416-.013.001.128 1.416zm.202-13.08c-.615 2.391-.855 5.504-.946 7.984a77.97 77.97 0 0 0-.05 3.137l.011.931.006.253.002.066v.022c0 .002 0 .002.71-.02l.71-.022-.002-.082-.005-.244-.01-.91a76.56 76.56 0 0 1 .049-3.079c.09-2.461.327-5.446.902-7.681l-1.377-.355zM7.601 3.367a72.94 72.94 0 0 0-2.149 3.966c-1.112 2.207-2.384 5.015-2.993 7.383l1.377.355c.569-2.213 1.783-4.908 2.886-7.098 1.097-2.179 2.06-3.809 2.102-3.881l-1.223-.725zm.322 1.012l.005.002.569-1.303-.005-.002-.569 1.303zm4.24-2.976c-.88.277-1.946.699-2.78 1.045l-1.047.446-.307.135-.083.037-.022.01c-.008.004-.008.004.284.652l.291.648.027-.012.08-.035.299-.131 1.024-.436c.826-.343 1.844-.745 2.661-1.002l-.427-1.356zm4.472-.346L16.5.358l-.031.006-.088.017-.324.066-1.093.234c-.864.193-1.953.454-2.8.721l.427 1.356c.785-.247 1.825-.498 2.682-.689l1.07-.229.316-.064.085-.017.021-.004c.007-.001.007-.001-.129-.699zm1.639 1.733L17.274.744l-1.277.625 1.001 2.046 1.276-.625zm3.375-.509c-1.239.005-2.635.048-4.045.111l.063 1.421c1.399-.062 2.775-.105 3.988-.109l-.006-1.422zm5.144.124a110.32 110.32 0 0 0-5.144-.124l.006 1.422c1.533-.006 3.305.045 5.075.123l.063-1.421zm.338-1.661l-1.007 2.059 1.276.625 1.007-2.059-1.276-.625zM15.527 21.497c2.476 0 4.347-2.227 4.347-4.796h-1.421c0 1.943-1.385 3.374-2.925 3.374v1.422zM11.179 16.7c0 2.569 1.871 4.796 4.348 4.796v-1.422c-1.541 0-2.926-1.431-2.926-3.374h-1.421zm4.348-4.796c-2.476 0-4.347 2.227-4.347 4.796h1.421c0-1.943 1.385-3.374 2.926-3.374v-1.422zm4.347 4.796c0-2.569-1.871-4.796-4.347-4.796v1.422c1.54 0 2.925 1.431 2.925 3.374h1.421zm11.874 0c0 1.943-1.385 3.374-2.926 3.374v1.422c2.476 0 4.348-2.227 4.348-4.796h-1.421zm-2.926-3.374c1.541 0 2.926 1.431 2.926 3.374h1.421c0-2.569-1.871-4.796-4.348-4.796v1.422zM25.895 16.7c0-1.943 1.385-3.374 2.926-3.374v-1.422c-2.476 0-4.348 2.227-4.348 4.796h1.421zm2.926 3.374c-1.541 0-2.926-1.431-2.926-3.374h-1.421c0 2.569 1.871 4.796 4.348 4.796v-1.422z" fill="url(#D)"/></g></g><defs><filter id="B" x=".174" y=".057" width="44" height="35.288" filterUnits="userSpaceOnUse" color-interpolation-filters="sRGB"><feFlood flood-opacity="0" result="A"/><feColorMatrix in="SourceAlpha" values="0 0 0 0 0 0 0 0 0 0 0 0 0 0 0 0 0 0 127 0"/><feOffset dy="1"/><feGaussianBlur stdDeviation="1"/><feColorMatrix values="0 0 0 0 0.258824 0 0 0 0 0.298039 0 0 0 0 0.407843 0 0 0 0.2 0"/><feBlend in2="A"/><feBlend in="SourceGraphic"/></filter><linearGradient id="C" x1="8.799" y1=".195" x2="42.187" y2="32.331" gradientUnits="userSpaceOnUse"><stop stop-color="#00b8cc"/><stop offset="1" stop-color="#41ccdb"/></linearGradient><linearGradient id="D" x1="5.983" y1="22.445" x2="10.21" y2="1.057" gradientUnits="userSpaceOnUse"><stop stop-color="#41ccdb"/><stop offset="1" stop-color="#00b8cc"/></linearGradient></defs></svg>