<svg xmlns="http://www.w3.org/2000/svg" width="1440" height="306" fill="none" xmlns:v="https://vecta.io/nano"><style><![CDATA[.B{color-interpolation-filters:sRGB}.C{flood-opacity:0}]]></style><g filter="url(#A)"><path d="M116.88 291.113L0 196.718V33.589h1440v104.946l-107.79 105.957-65.53-25.43-78.2 72.051-109.91-125.029-103.564 89.004-135.272-116.553-84.544 152.578-131.044-72.051-88.772 55.098-192.338-108.076L116.88 291.113z" fill="#7bd8e5"/></g><g filter="url(#B)"><path d="M116.88 267.029L0 172.634V72.068h1440v42.383l-107.79 105.957-65.53-25.43-78.2 72.051L1078.57 142l-103.564 89.003-135.272-116.552-84.544 152.578-131.044-72.051-88.772 55.098L343.036 142 116.88 267.029z" fill="#bde9f2"/></g><g filter="url(#C)"><path d="M113.418 236.405L-3.767 142.011V41.444H1440v42.383l-108.08 105.957-65.69-25.429-78.41 72.05-110.19-125.029-103.841 89.004L838.164 83.827l-84.766 152.578-131.386-72.05-89.004 55.097-192.842-108.076-226.748 125.029z" fill="#eef5fc"/></g><path fill="#eef5fc" d="M0 .548h1440v56.713H0z"/><defs><filter id="A" x="-10" y="27.589" width="1460" height="277.524" filterUnits="userSpaceOnUse" class="B"><feFlood result="A" class="C"/><feColorMatrix in="SourceAlpha" values="0 0 0 0 0 0 0 0 0 0 0 0 0 0 0 0 0 0 127 0"/><feOffset dy="4"/><feGaussianBlur stdDeviation="5"/><feColorMatrix values="0 0 0 0 0.345098 0 0 0 0 0.419608 0 0 0 0 0.501961 0 0 0 0.2 0"/><feBlend in2="A"/><feBlend in="SourceGraphic"/></filter><filter id="B" x="-10" y="66.068" width="1460" height="214.961" filterUnits="userSpaceOnUse" class="B"><feFlood result="A" class="C"/><feColorMatrix in="SourceAlpha" values="0 0 0 0 0 0 0 0 0 0 0 0 0 0 0 0 0 0 127 0"/><feOffset dy="4"/><feGaussianBlur stdDeviation="5"/><feColorMatrix values="0 0 0 0 0.345098 0 0 0 0 0.419608 0 0 0 0 0.501961 0 0 0 0.2 0"/><feBlend in2="A"/><feBlend in="SourceGraphic"/></filter><filter id="C" x="-13.767" y="35.444" width="1463.77" height="214.961" filterUnits="userSpaceOnUse" class="B"><feFlood result="A" class="C"/><feColorMatrix in="SourceAlpha" values="0 0 0 0 0 0 0 0 0 0 0 0 0 0 0 0 0 0 127 0"/><feOffset dy="4"/><feGaussianBlur stdDeviation="5"/><feColorMatrix values="0 0 0 0 0.345098 0 0 0 0 0.419608 0 0 0 0 0.501961 0 0 0 0.2 0"/><feBlend in2="A"/><feBlend in="SourceGraphic"/></filter></defs></svg>