<svg xmlns="http://www.w3.org/2000/svg" width="41" height="40" fill="none" xmlns:v="https://vecta.io/nano"><path d="M40.049 20.186c0 8.74-5.726 16.16-13.67 18.78a.93.93 0 0 1-1.05-.336 3.41 3.41 0 0 1-.296-.504c-.696-1.474.07-2.616 0-5.8-.028-1.238-.154-1.644-.232-1.854a4.25 4.25 0 0 0-.846-1.388c1.094 0 4.242-.242 6.642-2.786 3.29-3.484 2.2-8.146 2.086-8.578a9.42 9.42 0 0 0-1.952-3.76 6.76 6.76 0 0 0 .33-2.314c-.034-1.048-.308-2.074-.8-3a8.54 8.54 0 0 0-5.384 2.078 17.97 17.97 0 0 0-9.746-.2c-1.548-1.091-3.339-1.787-5.218-2.028a6 6 0 0 0-.636 1.578 6.17 6.17 0 0 0 .264 3.704c-1.32 1.492-2.144 3.357-2.358 5.338-.044.436-.4 4.514 2.55 7.418a8.78 8.78 0 0 0 3.476 2.086c1.081.329 2.217.437 3.34.318a8.54 8.54 0 0 0-1.2 2.4 5.1 5.1 0 0 1-2.37.758c-.552.053-1.109-.026-1.624-.232-.678-.29-1.098-.768-1.622-1.388-.826-.98-.6-1.088-1.16-1.624a3.33 3.33 0 0 0-2.782-.928c-.384.068-.448.184-.464.232-.092.282.584.756 1.16 1.16.528.37.688.4.928.696a2.51 2.51 0 0 1 .462.926c.062.2.494 1.55 1.16 2.32s1.578.958 2.55 1.158a7.76 7.76 0 0 0 3.462-.098c0 .188 0 .378.016.562.06 1.7.226 2.2 0 3.014-.057.203-.133.401-.226.59a.93.93 0 0 1-1.13.48C5.771 36.34.049 28.924.049 20.186c0-10.932 8.956-19.8 20-19.8s20 8.868 20 19.8z" fill="url(#A)"/><defs><linearGradient id="A" x1="20.049" y1=".386" x2="20.049" y2="39.015" gradientUnits="userSpaceOnUse"><stop stop-color="#00b8cc"/><stop offset="1" stop-color="#41ccdb"/></linearGradient></defs></svg>