<svg xmlns="http://www.w3.org/2000/svg" width="145" height="123" fill="none" xmlns:v="https://vecta.io/nano"><style><![CDATA[.B{fill:#00b8cc}.C{color-interpolation-filters:sRGB}.D{flood-opacity:0}.E{fill-rule:evenodd}]]></style><path d="M85.391 24.453H48.784c-4.121 0-7.461 3.351-7.461 7.485v58.726c0 4.134 3.34 7.485 7.461 7.485h36.607c4.121 0 7.461-3.351 7.461-7.485V31.938c0-4.134-3.341-7.485-7.461-7.485z" fill="#41ccdb"/><path d="M85.391 24.827H48.784c-3.915 0-7.088 3.184-7.088 7.11v58.726c0 3.927 3.173 7.111 7.088 7.111h36.607c3.915 0 7.088-3.183 7.088-7.111V31.937c0-3.927-3.173-7.11-7.088-7.11z" stroke="#41ccdb" stroke-opacity=".3"/><path d="M47.322 36.73a2.99 2.99 0 0 1-1.609-.44c-.473-.3-.846-.734-1.118-1.299s-.407-1.25-.407-2.054.136-1.488.407-2.054.644-.995 1.118-1.289a2.94 2.94 0 0 1 1.609-.451c.606 0 1.142.15 1.609.451.473.293.846.723 1.118 1.289s.407 1.25.407 2.054-.136 1.488-.407 2.054-.644.999-1.118 1.299c-.467.293-1.003.44-1.609.44zm0-1.435a1.18 1.18 0 0 0 .742-.241c.216-.161.383-.416.501-.765.125-.349.188-.8.188-1.352s-.063-1.002-.188-1.352c-.118-.349-.286-.604-.501-.765a1.18 1.18 0 0 0-.742-.241 1.21 1.21 0 0 0-.742.241c-.209.161-.376.416-.501.765-.118.349-.178.8-.178 1.352s.059 1.003.178 1.352c.125.349.293.604.501.765a1.21 1.21 0 0 0 .742.241zm5.043 1.31v-6.706l.731.733h-2.194v-1.362h3.155v7.335h-1.692zm6.096.126c-.599 0-1.135-.147-1.609-.44-.474-.3-.846-.734-1.118-1.299s-.407-1.25-.407-2.054.136-1.488.407-2.054.644-.995 1.118-1.289a2.94 2.94 0 0 1 1.609-.451c.606 0 1.142.15 1.609.451.474.293.846.723 1.118 1.289s.407 1.25.407 2.054-.136 1.488-.407 2.054-.644.999-1.118 1.299c-.466.293-1.003.44-1.609.44zm0-1.435a1.18 1.18 0 0 0 .742-.241c.216-.161.383-.416.501-.765.125-.349.188-.8.188-1.352s-.063-1.002-.188-1.352c-.118-.349-.285-.604-.501-.765a1.18 1.18 0 0 0-.742-.241 1.21 1.21 0 0 0-.742.241c-.209.161-.376.416-.501.765-.118.349-.178.8-.178 1.352s.059 1.003.178 1.352c.125.349.292.604.501.765a1.21 1.21 0 0 0 .742.241zm5.043 1.31v-6.706l.731.733h-2.194v-1.362h3.155v7.335h-1.692zM45.316 51.574v-6.706l.731.733h-2.194v-1.362h3.155v7.335h-1.692zm4.09 0v-6.706l.731.733h-2.194v-1.362h3.155v7.335h-1.692zm6.096.126c-.599 0-1.135-.147-1.609-.44-.474-.3-.846-.733-1.118-1.299s-.407-1.25-.407-2.054.136-1.488.407-2.054.644-.995 1.118-1.289c.474-.3 1.01-.451 1.609-.451.606 0 1.142.15 1.609.451.474.293.846.723 1.118 1.289s.407 1.251.407 2.054-.136 1.488-.407 2.054-.644.999-1.118 1.299c-.466.293-1.003.44-1.609.44zm0-1.435a1.18 1.18 0 0 0 .742-.241c.216-.161.383-.416.501-.765.125-.349.188-.8.188-1.352s-.063-1.002-.188-1.352c-.119-.349-.286-.604-.501-.765a1.18 1.18 0 0 0-.742-.241 1.21 1.21 0 0 0-.742.241c-.209.161-.376.416-.501.765-.118.349-.178.8-.178 1.352s.059 1.002.178 1.352c.125.349.292.604.501.765a1.21 1.21 0 0 0 .742.241zm5.043 1.31v-6.706l.731.733h-2.193v-1.362h3.155v7.335h-1.692zm4.09 0v-6.706l.731.733h-2.194v-1.362h3.155v7.335h-1.692zM47.322 66.669a2.99 2.99 0 0 1-1.609-.44c-.473-.3-.846-.734-1.118-1.299s-.407-1.25-.407-2.054.136-1.488.407-2.054.644-.995 1.118-1.289c.474-.3 1.01-.451 1.609-.451.606 0 1.142.15 1.609.451.473.293.846.723 1.118 1.289s.407 1.251.407 2.054-.136 1.488-.407 2.054-.644.999-1.118 1.299c-.467.293-1.003.44-1.609.44zm0-1.436a1.18 1.18 0 0 0 .742-.241c.216-.161.383-.416.501-.765.125-.349.188-.8.188-1.352s-.063-1.002-.188-1.352c-.118-.349-.286-.604-.501-.765a1.18 1.18 0 0 0-.742-.241 1.21 1.21 0 0 0-.742.241c-.209.161-.376.416-.501.765-.118.349-.178.8-.178 1.352s.059 1.002.178 1.352c.125.349.293.604.501.765a1.21 1.21 0 0 0 .742.241zm7.09 1.436c-.599 0-1.135-.147-1.609-.44-.473-.3-.846-.734-1.118-1.299s-.407-1.25-.407-2.054.136-1.488.407-2.054.644-.995 1.118-1.289c.474-.3 1.01-.451 1.609-.451.606 0 1.142.15 1.609.451.474.293.846.723 1.118 1.289s.407 1.251.407 2.054-.136 1.488-.407 2.054-.644.999-1.118 1.299c-.467.293-1.003.44-1.609.44zm0-1.436a1.18 1.18 0 0 0 .742-.241c.216-.161.383-.416.501-.765.125-.349.188-.8.188-1.352s-.063-1.002-.188-1.352c-.118-.349-.286-.604-.501-.765a1.18 1.18 0 0 0-.742-.241 1.21 1.21 0 0 0-.742.241c-.209.161-.376.416-.501.765-.118.349-.178.8-.178 1.352s.059 1.002.178 1.352c.125.349.293.604.501.765a1.21 1.21 0 0 0 .742.241zm5.043 1.31v-6.706l.731.733h-2.193v-1.362h3.154v7.335h-1.692zm4.09 0v-6.706l.731.733h-2.194v-1.362h3.155v7.335h-1.692z" class="B"/><path d="M47.322 77.896a2.99 2.99 0 0 1-1.609-.44c-.473-.301-.846-.734-1.118-1.299s-.407-1.251-.407-2.054.136-1.488.407-2.054.644-.996 1.118-1.289c.474-.3 1.01-.451 1.609-.451.606 0 1.142.15 1.609.451.473.293.846.723 1.118 1.289s.407 1.25.407 2.054-.136 1.488-.407 2.054-.644.999-1.118 1.299c-.467.293-1.003.44-1.609.44zm0-1.436c.285 0 .533-.081.742-.241.216-.161.383-.416.501-.765.125-.35.188-.8.188-1.352s-.063-1.002-.188-1.352c-.118-.349-.286-.604-.501-.765a1.18 1.18 0 0 0-.742-.241 1.21 1.21 0 0 0-.742.241c-.209.161-.376.416-.501.765-.118.349-.178.8-.178 1.352s.059 1.002.178 1.352c.125.349.293.604.501.765a1.21 1.21 0 0 0 .742.241zm5.043 1.31v-6.707l.731.734h-2.194v-1.362h3.155v7.335h-1.692zm6.096.126c-.599 0-1.135-.147-1.609-.44-.474-.301-.846-.734-1.118-1.299s-.407-1.251-.407-2.054.136-1.488.407-2.054.644-.996 1.118-1.289c.474-.3 1.01-.451 1.609-.451.606 0 1.142.15 1.609.451.474.293.846.723 1.118 1.289s.407 1.25.407 2.054-.136 1.488-.407 2.054-.644.999-1.118 1.299c-.466.293-1.003.44-1.609.44zm0-1.436c.286 0 .533-.081.742-.241.216-.161.383-.416.501-.765.125-.35.188-.8.188-1.352s-.063-1.002-.188-1.352c-.118-.349-.285-.604-.501-.765a1.18 1.18 0 0 0-.742-.241 1.21 1.21 0 0 0-.742.241c-.209.161-.376.416-.501.765-.118.349-.178.8-.178 1.352s.059 1.002.178 1.352c.125.349.292.604.501.765.216.16.463.241.742.241zm5.043 1.31v-6.707l.731.734h-2.194v-1.362h3.155v7.335h-1.692zM45.316 92.74v-6.706l.731.734h-2.194v-1.362h3.155v7.335h-1.692zm4.09 0v-6.706l.731.734h-2.194v-1.362h3.155v7.335h-1.692zm6.096.126c-.599 0-1.135-.147-1.609-.44-.474-.301-.846-.733-1.118-1.299s-.407-1.251-.407-2.054.136-1.488.407-2.054.644-.995 1.118-1.289c.474-.301 1.01-.451 1.609-.451.606 0 1.142.15 1.609.451.474.293.846.723 1.118 1.289s.407 1.25.407 2.054-.136 1.488-.407 2.054-.644.998-1.118 1.299c-.466.293-1.003.44-1.609.44zm0-1.436c.286 0 .533-.081.742-.241.216-.161.383-.416.501-.765.125-.35.188-.8.188-1.352s-.063-1.003-.188-1.352c-.119-.35-.286-.605-.501-.765a1.18 1.18 0 0 0-.742-.241c-.278 0-.526.08-.742.241-.209.16-.376.415-.501.765-.118.349-.178.799-.178 1.352s.059 1.002.178 1.352c.125.349.292.604.501.765a1.21 1.21 0 0 0 .742.241zm5.043 1.31v-6.706l.731.734h-2.193v-1.362h3.155v7.335h-1.692zm4.09 0v-6.706l.731.734h-2.194v-1.362h3.155v7.335h-1.692zm-17.315 15.095c-.599 0-1.135-.147-1.609-.44-.473-.301-.846-.734-1.118-1.3s-.407-1.25-.407-2.053.136-1.488.407-2.054.644-.996 1.118-1.289c.474-.301 1.01-.451 1.609-.451.606 0 1.142.15 1.609.451.473.293.846.723 1.118 1.289s.407 1.25.407 2.054-.136 1.487-.407 2.053-.644.999-1.118 1.3c-.467.293-1.003.44-1.609.44zm0-1.436c.285 0 .533-.081.742-.241.216-.161.383-.416.501-.765.125-.349.188-.8.188-1.351s-.063-1.003-.188-1.352c-.118-.35-.286-.605-.501-.765a1.18 1.18 0 0 0-.742-.241c-.279 0-.526.08-.742.241-.209.16-.376.415-.501.765-.118.349-.178.799-.178 1.352s.059 1.002.178 1.351c.125.349.293.604.501.765.216.16.463.241.742.241zm7.09 1.436c-.599 0-1.135-.147-1.609-.44-.473-.301-.846-.734-1.118-1.3s-.407-1.25-.407-2.053.136-1.488.407-2.054.644-.996 1.118-1.289c.474-.301 1.01-.451 1.609-.451.606 0 1.142.15 1.609.451.474.293.846.723 1.118 1.289s.407 1.25.407 2.054-.136 1.487-.407 2.053-.644.999-1.118 1.3c-.467.293-1.003.44-1.609.44zm0-1.436c.286 0 .533-.081.742-.241.216-.161.383-.416.501-.765.125-.349.188-.8.188-1.351s-.063-1.003-.188-1.352c-.118-.35-.286-.605-.501-.765a1.18 1.18 0 0 0-.742-.241c-.279 0-.526.08-.742.241-.209.16-.376.415-.501.765-.118.349-.178.799-.178 1.352s.059 1.002.178 1.351c.125.349.293.604.501.765.216.16.463.241.742.241zm5.043 1.31v-6.706l.731.733h-2.193v-1.362h3.154v7.335h-1.692zm4.09 0v-6.706l.731.733h-2.194v-1.362h3.155v7.335h-1.692z" fill="url(#E)"/><path d="M70.629 36.73a2.99 2.99 0 0 1-1.609-.44c-.474-.3-.846-.734-1.118-1.299s-.407-1.25-.407-2.054.136-1.488.407-2.054.644-.995 1.118-1.289a2.94 2.94 0 0 1 1.609-.451c.606 0 1.142.15 1.609.451.474.293.846.723 1.118 1.289s.407 1.25.407 2.054-.136 1.488-.407 2.054-.644.999-1.118 1.299c-.466.293-1.003.44-1.609.44zm0-1.435a1.18 1.18 0 0 0 .742-.241c.216-.161.383-.416.501-.765.125-.349.188-.8.188-1.352s-.063-1.002-.188-1.352c-.118-.349-.285-.604-.501-.765a1.18 1.18 0 0 0-.742-.241 1.21 1.21 0 0 0-.742.241c-.209.161-.376.416-.501.765-.118.349-.178.8-.178 1.352s.059 1.003.178 1.352c.125.349.292.604.501.765a1.21 1.21 0 0 0 .742.241zm5.043 1.31v-6.706l.731.733h-2.193v-1.362h3.154v7.335h-1.692zm6.097.126a2.99 2.99 0 0 1-1.609-.44c-.474-.3-.846-.734-1.118-1.299s-.407-1.25-.407-2.054.136-1.488.407-2.054.644-.995 1.118-1.289c.473-.3 1.009-.451 1.609-.451.606 0 1.141.15 1.609.451.473.293.846.723 1.118 1.289s.407 1.25.407 2.054-.136 1.488-.407 2.054-.645.999-1.118 1.299c-.467.293-1.003.44-1.609.44zm0-1.435c.285 0 .533-.08.742-.241.216-.161.383-.416.501-.765.125-.349.188-.8.188-1.352s-.063-1.002-.188-1.352c-.119-.349-.286-.604-.501-.765-.209-.161-.457-.241-.742-.241a1.21 1.21 0 0 0-.742.241c-.209.161-.376.416-.501.765-.119.349-.178.8-.178 1.352s.059 1.003.178 1.352c.125.349.292.604.501.765.216.161.463.241.742.241zm5.043 1.31v-6.706l.731.733h-2.193v-1.362h3.155v7.335h-1.692zM68.623 51.574v-6.706l.731.733h-2.194v-1.362h3.155v7.335h-1.692zm4.09 0v-6.706l.731.733h-2.194v-1.362h3.155v7.335h-1.692zm6.096.126c-.599 0-1.135-.147-1.609-.44-.474-.3-.846-.733-1.118-1.299s-.407-1.25-.407-2.054.136-1.488.407-2.054.644-.995 1.118-1.289c.474-.3 1.01-.451 1.609-.451.606 0 1.142.15 1.609.451.474.293.846.723 1.118 1.289s.407 1.251.407 2.054-.136 1.488-.407 2.054-.644.999-1.118 1.299c-.466.293-1.003.44-1.609.44zm0-1.435a1.18 1.18 0 0 0 .742-.241c.216-.161.383-.416.501-.765.125-.349.188-.8.188-1.352s-.063-1.002-.188-1.352c-.119-.349-.286-.604-.501-.765a1.18 1.18 0 0 0-.742-.241 1.21 1.21 0 0 0-.742.241c-.209.161-.376.416-.501.765-.119.349-.178.8-.178 1.352s.059 1.002.178 1.352c.125.349.293.604.501.765a1.21 1.21 0 0 0 .742.241zm5.043 1.31v-6.706l.731.733H82.39v-1.362h3.155v7.335h-1.692zm4.091 0v-6.706l.731.733h-2.193v-1.362h3.154v7.335h-1.692zM70.629 66.669a2.99 2.99 0 0 1-1.609-.44c-.474-.3-.846-.734-1.118-1.299s-.407-1.25-.407-2.054.136-1.488.407-2.054.644-.995 1.118-1.289c.474-.3 1.01-.451 1.609-.451.606 0 1.142.15 1.609.451.474.293.846.723 1.118 1.289s.407 1.251.407 2.054-.136 1.488-.407 2.054-.644.999-1.118 1.299c-.466.293-1.003.44-1.609.44zm0-1.436a1.18 1.18 0 0 0 .742-.241c.216-.161.383-.416.501-.765.125-.349.188-.8.188-1.352s-.063-1.002-.188-1.352c-.118-.349-.285-.604-.501-.765a1.18 1.18 0 0 0-.742-.241 1.21 1.21 0 0 0-.742.241c-.209.161-.376.416-.501.765-.118.349-.178.8-.178 1.352s.059 1.002.178 1.352c.125.349.292.604.501.765a1.21 1.21 0 0 0 .742.241zm7.09 1.436c-.599 0-1.135-.147-1.609-.44-.474-.3-.846-.734-1.118-1.299s-.407-1.25-.407-2.054.136-1.488.407-2.054.644-.995 1.118-1.289c.474-.3 1.01-.451 1.609-.451.606 0 1.142.15 1.609.451.474.293.846.723 1.118 1.289s.407 1.251.407 2.054-.136 1.488-.407 2.054-.644.999-1.118 1.299c-.466.293-1.003.44-1.609.44zm0-1.436a1.18 1.18 0 0 0 .742-.241c.216-.161.383-.416.501-.765.125-.349.188-.8.188-1.352s-.063-1.002-.188-1.352c-.119-.349-.286-.604-.501-.765a1.18 1.18 0 0 0-.742-.241 1.21 1.21 0 0 0-.742.241c-.209.161-.376.416-.501.765-.119.349-.177.8-.177 1.352s.059 1.002.177 1.352c.125.349.293.604.501.765a1.21 1.21 0 0 0 .742.241zm5.043 1.31v-6.706l.731.733h-2.193v-1.362h3.154v7.335h-1.692zm4.091 0v-6.706l.731.733H85.39v-1.362h3.155v7.335h-1.692z" class="B"/><path d="M70.629 77.896a2.99 2.99 0 0 1-1.609-.44c-.474-.301-.846-.734-1.118-1.299s-.407-1.251-.407-2.054.136-1.488.407-2.054.644-.996 1.118-1.289c.474-.3 1.01-.451 1.609-.451.606 0 1.142.15 1.609.451.474.293.846.723 1.118 1.289s.407 1.25.407 2.054-.136 1.488-.407 2.054-.644.999-1.118 1.299c-.466.293-1.003.44-1.609.44zm0-1.436c.285 0 .533-.081.742-.241.216-.161.383-.416.501-.765.125-.35.188-.8.188-1.352s-.063-1.002-.188-1.352c-.118-.349-.285-.604-.501-.765a1.18 1.18 0 0 0-.742-.241 1.21 1.21 0 0 0-.742.241c-.209.161-.376.416-.501.765-.118.349-.178.8-.178 1.352s.059 1.002.178 1.352c.125.349.292.604.501.765.216.16.463.241.742.241zm5.043 1.31v-6.707l.731.734h-2.193v-1.362h3.154v7.335h-1.692zm6.097.126a2.99 2.99 0 0 1-1.609-.44c-.474-.301-.846-.734-1.118-1.299s-.407-1.251-.407-2.054.136-1.488.407-2.054.644-.996 1.118-1.289c.473-.3 1.009-.451 1.609-.451.606 0 1.141.15 1.609.451.473.293.846.723 1.118 1.289s.407 1.25.407 2.054-.136 1.488-.407 2.054-.645.999-1.118 1.299c-.467.293-1.003.44-1.609.44zm0-1.436c.285 0 .533-.081.742-.241.216-.161.383-.416.501-.765.125-.35.188-.8.188-1.352s-.063-1.002-.188-1.352c-.119-.349-.286-.604-.501-.765-.209-.161-.457-.241-.742-.241a1.21 1.21 0 0 0-.742.241c-.209.161-.376.416-.501.765-.119.349-.178.8-.178 1.352s.059 1.002.178 1.352c.125.349.292.604.501.765a1.21 1.21 0 0 0 .742.241zm5.043 1.31v-6.707l.731.734h-2.193v-1.362h3.155v7.335h-1.692zM68.623 92.74v-6.706l.731.734h-2.194v-1.362h3.155v7.335h-1.692zm4.09 0v-6.706l.731.734h-2.194v-1.362h3.155v7.335h-1.692zm6.096.126c-.599 0-1.135-.147-1.609-.44-.474-.301-.846-.733-1.118-1.299s-.407-1.251-.407-2.054.136-1.488.407-2.054.644-.995 1.118-1.289c.474-.301 1.01-.451 1.609-.451.606 0 1.142.15 1.609.451.474.293.846.723 1.118 1.289s.407 1.25.407 2.054-.136 1.488-.407 2.054-.644.998-1.118 1.299c-.466.293-1.003.44-1.609.44zm0-1.436c.286 0 .533-.081.742-.241.216-.161.383-.416.501-.765.125-.35.188-.8.188-1.352s-.063-1.003-.188-1.352c-.119-.35-.286-.605-.501-.765a1.18 1.18 0 0 0-.742-.241c-.278 0-.526.08-.742.241-.209.16-.376.415-.501.765-.119.349-.178.799-.178 1.352s.059 1.002.178 1.352c.125.349.293.604.501.765a1.21 1.21 0 0 0 .742.241zm5.043 1.31v-6.706l.731.734H82.39v-1.362h3.155v7.335h-1.692zm4.091 0v-6.706l.731.734h-2.193v-1.362h3.154v7.335h-1.692zm-17.315 15.095c-.599 0-1.135-.147-1.609-.44-.474-.301-.846-.734-1.118-1.3s-.407-1.25-.407-2.053.136-1.488.407-2.054.644-.996 1.118-1.289c.474-.301 1.01-.451 1.609-.451.606 0 1.142.15 1.609.451.474.293.846.723 1.118 1.289s.407 1.25.407 2.054-.136 1.487-.407 2.053-.644.999-1.118 1.3c-.466.293-1.003.44-1.609.44zm0-1.436c.285 0 .533-.081.742-.241.216-.161.383-.416.501-.765.125-.349.188-.8.188-1.351s-.063-1.003-.188-1.352c-.118-.35-.285-.605-.501-.765a1.18 1.18 0 0 0-.742-.241c-.279 0-.526.08-.742.241-.209.16-.376.415-.501.765-.118.349-.178.799-.178 1.352s.059 1.002.178 1.351c.125.349.292.604.501.765.216.16.463.241.742.241zm7.09 1.436c-.599 0-1.135-.147-1.609-.44-.474-.301-.846-.734-1.118-1.3s-.407-1.25-.407-2.053.136-1.488.407-2.054.644-.996 1.118-1.289c.474-.301 1.01-.451 1.609-.451a2.9 2.9 0 0 1 1.609.451c.474.293.846.723 1.118 1.289s.407 1.25.407 2.054-.136 1.487-.407 2.053-.644.999-1.118 1.3a2.96 2.96 0 0 1-1.609.44zm0-1.436c.286 0 .533-.081.742-.241.216-.161.383-.416.501-.765.125-.349.188-.8.188-1.351s-.063-1.003-.188-1.352c-.119-.35-.286-.605-.501-.765-.209-.161-.456-.241-.742-.241-.278 0-.526.08-.742.241-.209.16-.376.415-.501.765-.119.349-.177.799-.177 1.352s.059 1.002.177 1.351c.125.349.293.604.501.765.216.16.463.241.742.241zm5.043 1.31v-6.706l.731.733h-2.193v-1.362h3.154v7.335h-1.692zm4.091 0v-6.706l.731.733H85.39v-1.362h3.155v7.335h-1.692z" fill="url(#F)"/><g filter="url(#B)"><mask id="A" maskUnits="userSpaceOnUse" x="48" y="31" width="53" height="75" mask-type="alpha"><path d="M48.732 38.961c0-4.134 3.34-7.485 7.461-7.485H92.8c4.121 0 7.461 3.351 7.461 7.485v58.726c0 4.134-3.34 7.485-7.461 7.485H56.194c-4.121 0-7.461-3.351-7.461-7.485V87.113h21.079c.685 1.715 2.357 2.926 4.311 2.926a4.65 4.65 0 1 0 0-9.314c-1.954 0-3.626 1.212-4.311 2.926H48.732V72.006h19.09v-3.462-.441h1.989c.685 1.715 2.357 2.926 4.311 2.926a4.65 4.65 0 1 0 0-9.314c-1.954 0-3.626 1.211-4.311 2.926h-1.989-3.454v3.462.441H48.732V52.997h21.079c.685 1.715 2.357 2.926 4.311 2.926a4.65 4.65 0 1 0 0-9.314c-1.954 0-3.626 1.211-4.311 2.926H48.732V38.961z" fill="#fff" class="E"/></mask><g mask="url(#A)"><path d="M48.732 38.961c0-4.134 3.34-7.485 7.461-7.485H92.8c4.121 0 7.461 3.351 7.461 7.485v58.726c0 4.134-3.34 7.485-7.461 7.485H56.194c-4.121 0-7.461-3.351-7.461-7.485V87.113h21.079c.685 1.715 2.357 2.926 4.311 2.926a4.65 4.65 0 1 0 0-9.314c-1.954 0-3.626 1.212-4.311 2.926H48.732V72.006h19.09v-3.462-.441h1.989c.685 1.715 2.357 2.926 4.311 2.926a4.65 4.65 0 1 0 0-9.314c-1.954 0-3.626 1.211-4.311 2.926h-1.989-3.454v3.462.441H48.732V52.997h21.079c.685 1.715 2.357 2.926 4.311 2.926a4.65 4.65 0 1 0 0-9.314c-1.954 0-3.626 1.211-4.311 2.926H48.732V38.961z" fill="url(#G)" class="E"/><path d="M48.732 87.113v-.748h-.746v.748h.746zm21.079 0l.693-.278-.188-.47h-.505v.748zm0-3.462v.748h.505l.188-.47-.693-.278zm-21.079 0h-.746v.748h.746v-.748zm0-11.645v-.749h-.746v.749h.746zm19.09 0v.748h.746v-.748h-.746zm0-3.462h.746-.746zm0-.441v-.749h-.746v.749h.746zm1.989 0l.693-.278-.188-.47h-.505v.749zm0-3.462v.749h.505l.188-.47-.693-.278zm-5.443 0v-.748h-.746v.748h.746zm0 3.903v.748h.746v-.748h-.746zm-15.636 0h-.746v.748h.746v-.748zm0-15.548v-.748h-.746v.748h.746zm21.079 0l.693-.278-.188-.47h-.505v.748zm0-3.462v.748h.505l.188-.47-.693-.278zm-21.079 0h-.746v.748h.746v-.748zm7.461-18.807c-4.533 0-8.207 3.686-8.207 8.233h1.492c0-3.72 3.006-6.736 6.715-6.736v-1.497zm36.607 0H56.194v1.497H92.8v-1.497zm8.208 8.233c0-4.547-3.675-8.233-8.208-8.233v1.497c3.709 0 6.715 3.016 6.715 6.736h1.493zm0 58.726V38.961h-1.493v58.726h1.493zM92.8 105.92c4.533 0 8.208-3.686 8.208-8.233h-1.493c0 3.72-3.006 6.736-6.715 6.736v1.497zm-36.607 0H92.8v-1.497H56.194v1.497zm-8.207-8.233c0 4.547 3.675 8.233 8.207 8.233v-1.497c-3.709 0-6.715-3.016-6.715-6.736h-1.492zm0-10.574v10.574h1.492V87.113h-1.492zm21.825-.748H48.732v1.497h21.079v-1.497zm4.311 2.926a3.9 3.9 0 0 1-3.618-2.456l-1.385.557a5.39 5.39 0 0 0 5.004 3.396V89.29zm3.896-3.909c0 2.159-1.744 3.909-3.896 3.909v1.497c2.976 0 5.388-2.42 5.388-5.405h-1.492zm-3.896-3.908c2.151 0 3.896 1.75 3.896 3.908h1.492c0-2.986-2.412-5.405-5.388-5.405v1.497zm-3.618 2.456c.575-1.441 1.98-2.456 3.618-2.456v-1.497a5.39 5.39 0 0 0-5.004 3.397l1.385.557zm-21.772.47h21.079v-1.497H48.732v1.497zm-.746-12.393v11.645h1.492V72.006h-1.492zm19.836-.749h-19.09v1.497h19.09v-1.497zm-.746-2.713v3.462h1.492v-3.462h-1.492zm0-.441v.441h1.492v-.441h-1.492zm2.735-.749h-1.989v1.497h1.989v-1.497zm4.311 2.926c-1.639 0-3.043-1.015-3.618-2.456l-1.385.557a5.39 5.39 0 0 0 5.004 3.396v-1.497zm3.896-3.908c0 2.159-1.744 3.908-3.896 3.908v1.497c2.976 0 5.388-2.42 5.388-5.405h-1.492zm-3.896-3.908c2.151 0 3.896 1.75 3.896 3.908h1.492c0-2.985-2.412-5.405-5.388-5.405v1.497zm-3.618 2.456c.575-1.441 1.98-2.456 3.618-2.456v-1.497a5.39 5.39 0 0 0-5.004 3.396l1.385.557zm-2.681.47h1.989v-1.497h-1.989v1.497zm-3.454 0h3.454v-1.497h-3.454v1.497zm.746 2.713v-3.462h-1.492v3.462h1.492zm0 .441v-.441h-1.492v.441h1.492zm-16.382.748h15.636v-1.497H48.732v1.497zm-.746-16.296v15.548h1.492V52.997h-1.492zm21.825-.748H48.732v1.497h21.079v-1.497zm4.311 2.926c-1.639 0-3.043-1.015-3.618-2.456l-1.385.557a5.39 5.39 0 0 0 5.004 3.396v-1.497zm3.896-3.908c0 2.158-1.744 3.908-3.896 3.908v1.497c2.976 0 5.388-2.42 5.388-5.405h-1.492zm-3.896-3.908c2.151 0 3.896 1.75 3.896 3.908h1.492c0-2.985-2.412-5.405-5.388-5.405v1.497zm-3.618 2.456c.575-1.44 1.98-2.456 3.618-2.456v-1.497a5.39 5.39 0 0 0-5.004 3.396l1.385.557zm-21.772.47h21.079v-1.497H48.732v1.497zm-.746-11.323v10.574h1.492V38.961h-1.492z" fill="#fff"/></g></g><g filter="url(#C)" class="B"><path d="M109.933 77.363l-5.191 2.428 11.363 24.446 5.191-2.428-11.363-24.446z"/></g><g filter="url(#D)"><path d="M96.941 81.324c13.722 0 24.846-11.159 24.846-24.924s-11.124-24.924-24.845-24.924S72.095 42.635 72.095 56.4s11.124 24.924 24.845 24.924z" fill="#41ccdb" fill-opacity=".1"/><path d="M96.941 80.201c13.103 0 23.727-10.656 23.727-23.801s-10.623-23.801-23.726-23.801S73.214 43.255 73.214 56.4s10.623 23.801 23.726 23.801z" stroke="#00b8cc" stroke-width="3"/></g><defs><filter id="B" x="36.732" y="21.476" width="71.529" height="93.695" filterUnits="userSpaceOnUse" class="C"><feFlood result="A" class="D"/><feColorMatrix in="SourceAlpha" values="0 0 0 0 0 0 0 0 0 0 0 0 0 0 0 0 0 0 127 0"/><feOffset dx="-2"/><feGaussianBlur stdDeviation="5"/><feColorMatrix values="0 0 0 0 0.258824 0 0 0 0 0.298039 0 0 0 0 0.407843 0 0 0 0.3 0"/><feBlend in2="A"/><feBlend in="SourceGraphic"/></filter><filter id="C" x="104.742" y="77.363" width="16.555" height="26.874" filterUnits="userSpaceOnUse" class="C"><feFlood class="D"/><feBlend in="SourceGraphic" result="B"/><feColorMatrix in="SourceAlpha" values="0 0 0 0 0 0 0 0 0 0 0 0 0 0 0 0 0 0 127 0" result="C"/><feOffset/><feGaussianBlur stdDeviation="2"/><feComposite in2="C" operator="arithmetic" k2="-1" k3="1"/><feColorMatrix values="0 0 0 0 0 0 0 0 0 0 0 0 0 0 0 0 0 0 0.25 0"/><feBlend in2="B"/></filter><filter id="D" x="69.714" y="29.099" width="54.452" height="54.602" filterUnits="userSpaceOnUse" class="C"><feFlood class="D"/><feGaussianBlur stdDeviation="1"/><feComposite in2="SourceAlpha" operator="in"/><feBlend in="SourceGraphic"/></filter><linearGradient id="E" x1="55.719" y1="66.543" x2="55.719" y2="111.451" gradientUnits="userSpaceOnUse"><stop stop-color="#00b8cc"/><stop offset="1" stop-color="#00b8cc" stop-opacity="0"/></linearGradient><linearGradient id="F" x1="79.025" y1="66.543" x2="79.025" y2="111.451" gradientUnits="userSpaceOnUse"><stop stop-color="#00b8cc"/><stop offset="1" stop-color="#00b8cc" stop-opacity="0"/></linearGradient><linearGradient id="G" x1="74.497" y1="31.476" x2="74.497" y2="105.172" gradientUnits="userSpaceOnUse"><stop stop-color="#fff"/><stop offset="1" stop-color="#eef5fc"/></linearGradient></defs></svg>