<svg xmlns="http://www.w3.org/2000/svg" width="436" height="100" fill="none" xmlns:v="https://vecta.io/nano"><path d="M125.23 76.902c-3.63 0-6.905-.8-9.828-2.4-2.875-1.647-5.138-3.906-6.787-6.776s-2.475-6.259-2.475-10.165.825-7.294 2.475-10.165 3.912-5.106 6.787-6.706c2.923-1.6 6.198-2.4 9.828-2.4 3.158 0 5.986.706 8.484 2.118 2.498 1.365 4.478 3.459 5.939 6.282s2.192 6.447 2.192 10.871c0 4.377-.707 8-2.121 10.871-1.414 2.824-3.37 4.941-5.868 6.353s-5.374 2.118-8.626 2.118zm1.06-7.553c2.121 0 4.007-.471 5.657-1.412 1.696-.941 3.04-2.306 4.03-4.094 1.037-1.788 1.555-3.882 1.555-6.282 0-2.447-.518-4.541-1.555-6.282-.99-1.788-2.334-3.153-4.03-4.094-1.65-.941-3.536-1.412-5.657-1.412s-4.03.471-5.727 1.412c-1.649.941-2.993 2.306-4.03 4.094-.989 1.741-1.484 3.835-1.484 6.282 0 2.4.495 4.494 1.484 6.282 1.037 1.788 2.381 3.153 4.03 4.094 1.697.941 3.606 1.412 5.727 1.412zm11.454 7.059v-8.894l.354-10.023-.707-10.024V24.032h8.767v52.376h-8.414zm37.086.494c-4.195 0-7.872-.824-11.03-2.471-3.111-1.694-5.538-4-7.282-6.918-1.697-2.918-2.546-6.235-2.546-9.953 0-3.765.825-7.082 2.475-9.953 1.697-2.918 4.006-5.2 6.929-6.847 2.969-1.647 6.339-2.471 10.11-2.471 3.677 0 6.953.8 9.828 2.4s5.138 3.859 6.787 6.776 2.475 6.353 2.475 10.306a12.92 12.92 0 0 1-.071 1.271c0 .471-.023.918-.07 1.341h-31.463v-5.859h26.796l-3.464 1.835c.047-2.165-.401-4.071-1.344-5.718a10.26 10.26 0 0 0-3.888-3.882c-1.603-.941-3.465-1.412-5.586-1.412-2.168 0-4.077.47-5.727 1.412-1.602.941-2.875 2.259-3.818 3.953-.895 1.647-1.343 3.6-1.343 5.859v1.412c0 2.259.519 4.259 1.555 6s2.499 3.082 4.384 4.024 4.054 1.412 6.505 1.412c2.121 0 4.03-.329 5.727-.988s3.205-1.694 4.525-3.106l4.737 5.435c-1.697 1.976-3.842 3.506-6.434 4.588-2.546 1.035-5.468 1.553-8.767 1.553z" fill="#586b80"/><path d="M93.128 34.469c-1.151 0-2.255.457-3.069 1.269l.035.035-.035-.035a4.33 4.33 0 0 0 0 6.128l.035-.035-.035.035c.814.812 1.918 1.269 3.068 1.269 1.148.028 2.261-.395 3.099-1.178a4.37 4.37 0 0 0 1.385-3.009v-.001a4.38 4.38 0 0 0-.311-1.689 4.39 4.39 0 0 0-.935-1.441h0c-.421-.431-.924-.773-1.481-1.005a4.47 4.47 0 0 0-1.757-.343zm0 0v.05-.05zM57.454 70.986c-1.151 0-2.255.457-3.068 1.269l.035.035-.035-.035a4.33 4.33 0 0 0 0 6.128 4.34 4.34 0 0 0 3.068 1.269c1.142.034 2.252-.382 3.091-1.157l-.034-.037.034.037c.839-.775 1.339-1.849 1.393-2.989v-.001a4.41 4.41 0 0 0-.312-1.735c-.22-.552-.549-1.054-.967-1.476h0a4.43 4.43 0 0 0-1.469-.98h0c-.551-.224-1.141-.336-1.736-.327zm0 0v.05-.05zm7.754-6.923l.028-.029-.022-.034c-1.322-2.015-2.032-4.368-2.045-6.777h0a12.22 12.22 0 0 1 .883-4.727h0a12.24 12.24 0 0 1 2.637-4.023c1.137-1.154 2.492-2.071 3.986-2.699s3.098-.954 4.719-.959a11.91 11.91 0 0 1 6.54 2.041l.035.023.029-.03 4.721-4.836.039-.04-.044-.034c-3.259-2.553-7.28-3.942-11.423-3.945h-.001c-2.506.029-4.982.552-7.285 1.538s-4.39 2.416-6.139 4.208h0a19.03 19.03 0 0 0-4.054 6.236 19 19 0 0 0-1.352 7.31c-.018 4.206 1.341 8.304 3.869 11.67l.035.047.041-.041 4.803-4.898zm20.454-13.698l-.028.029.022.034c1.324 2.021 2.034 4.382 2.044 6.797v.001a12.22 12.22 0 0 1-.874 4.749c-.604 1.509-1.503 2.883-2.645 4.042s-2.503 2.079-4.005 2.707-3.113.951-4.741.951a12.01 12.01 0 0 1-6.623-2.04l-.035-.023-.029.03-4.721 4.836-.039.04.044.034a18.54 18.54 0 0 0 11.401 3.966h.001a19.3 19.3 0 0 0 13.479-5.794c1.758-1.781 3.141-3.894 4.07-6.216a18.76 18.76 0 0 0 1.342-7.304 19.33 19.33 0 0 0-3.869-11.669l-.035-.047-.041.042-4.721 4.836z" fill="#00b8cc" stroke="#00b8cc" stroke-width=".1"/><g fill="#586b80"><path fill-rule="evenodd" d="M.462 26.997v49.412h9.121V42.955l27.291 33.454h7.565V44.397h-9.121V60.45L8.027 26.997H.462zm34.856 11.376h9.121V26.997h-9.121v11.376z"/><path d="M281.656 75.726c-3.205 0-6.033-.588-8.484-1.765-2.451-1.224-4.36-3.059-5.727-5.506-1.367-2.494-2.051-5.623-2.051-9.388v-21.53h8.838v20.33c0 3.388.754 5.929 2.263 7.624 1.555 1.647 3.747 2.471 6.575 2.471 2.074 0 3.865-.424 5.374-1.271 1.555-.847 2.757-2.118 3.605-3.812.896-1.694 1.344-3.788 1.344-6.282V37.538h8.838v37.694h-8.414V65.067l1.485 3.106c-1.273 2.447-3.135 4.329-5.586 5.647-2.451 1.271-5.138 1.906-8.06 1.906zm45.65 0c-4.147 0-7.353-1.059-9.615-3.176-2.263-2.165-3.394-5.341-3.394-9.529V29.208h8.838v33.6c0 1.788.448 3.177 1.343 4.165.943.988 2.239 1.482 3.889 1.482 1.98 0 3.629-.518 4.949-1.553l2.475 6.282c-1.037.847-2.31 1.482-3.818 1.906s-3.064.635-4.667.635zm-19.231-30.847V37.82h25.17v7.059h-25.17zm34.279 30.353V22.855h8.838v52.377h-8.838zm37.477.494c-4.195 0-7.872-.824-11.03-2.471-3.111-1.694-5.538-4-7.282-6.918-1.697-2.918-2.545-6.235-2.545-9.953 0-3.765.824-7.082 2.474-9.953 1.697-2.918 4.007-5.2 6.929-6.847 2.97-1.647 6.34-2.471 10.111-2.471 3.676 0 6.952.8 9.827 2.4s5.138 3.859 6.788 6.776 2.474 6.353 2.474 10.306c0 .376-.023.8-.07 1.271 0 .471-.024.918-.071 1.341h-31.463v-5.859h26.796l-3.464 1.835c.047-2.165-.401-4.071-1.343-5.718a10.26 10.26 0 0 0-3.889-3.882c-1.603-.941-3.464-1.412-5.585-1.412-2.169 0-4.078.471-5.727 1.412-1.603.941-2.876 2.259-3.818 3.953-.896 1.647-1.344 3.6-1.344 5.859v1.412c0 2.259.519 4.259 1.556 6s2.498 3.082 4.383 4.024 4.054 1.412 6.505 1.412c2.121 0 4.03-.329 5.727-.988s3.205-1.694 4.525-3.106l4.737 5.435c-1.697 1.977-3.842 3.506-6.434 4.588-2.545 1.035-5.468 1.553-8.767 1.553zm25.528-.494V37.538h8.414v10.377l-.99-3.035c1.131-2.541 2.899-4.471 5.303-5.788 2.451-1.318 5.491-1.977 9.12-1.977v8.4c-.377-.094-.73-.141-1.06-.141-.33-.047-.66-.071-.99-.071-3.347 0-6.01.988-7.989 2.965-1.98 1.929-2.97 4.824-2.97 8.682v18.282h-8.838z"/><path fill-rule="evenodd" d="M213.826 63.809v11.422h24.605c6.41 0 11.241-1.177 14.494-3.529s4.878-5.647 4.878-9.882c0-2.871-.66-5.271-1.979-7.2-1.273-1.929-3.017-3.388-5.232-4.376-.564-.263-1.145-.493-1.744-.689 1.897-1.018 3.422-2.388 4.572-4.111 1.225-1.882 1.838-4.141 1.838-6.776 0-3.906-1.555-7.012-4.666-9.318-3.111-2.353-7.636-3.529-13.575-3.529h-23.191v31.966h9.192v-4.013h14.847c3.441 0 6.081.588 7.919 1.765 1.838 1.129 2.757 2.918 2.757 5.365 0 2.494-.919 4.306-2.757 5.435s-4.478 1.694-7.919 1.694h-14.847v-4.222h-9.192zm9.192-17.166h13.009c3.205 0 5.656-.565 7.353-1.694 1.744-1.129 2.616-2.823 2.616-5.082 0-2.306-.872-4.024-2.616-5.153-1.697-1.129-4.148-1.694-7.353-1.694h-13.009v13.624z"/></g></svg>