<svg xmlns="http://www.w3.org/2000/svg" xmlns:xlink="http://www.w3.org/1999/xlink" width="150" height="125" fill="none" xmlns:v="https://vecta.io/nano"><path d="M90.373 27.744H52.69c-4.242 0-7.68 3.406-7.68 7.607V95.04c0 4.201 3.439 7.607 7.68 7.607h37.683c4.242 0 7.68-3.406 7.68-7.607V35.351c0-4.202-3.439-7.607-7.68-7.607z" fill="url(#D)"/><path d="M90.372 28.124H52.69c-4.03 0-7.296 3.236-7.296 7.227V95.04c0 3.991 3.267 7.227 7.296 7.227h37.683c4.03 0 7.296-3.236 7.296-7.227V35.351c0-3.991-3.267-7.227-7.296-7.227z" stroke="#41ccdb"/><path d="M50.892 41.916c-.616 0-1.168-.149-1.656-.447-.487-.305-.871-.745-1.151-1.321s-.419-1.271-.419-2.088.14-1.512.419-2.087.663-1.012 1.151-1.31c.487-.305 1.039-.458 1.656-.458.624 0 1.176.153 1.656.458.487.298.871.735 1.151 1.31s.419 1.271.419 2.087-.14 1.512-.419 2.088-.663 1.015-1.151 1.321c-.48.298-1.032.447-1.656.447zm0-1.459c.294 0 .548-.082.764-.245.222-.163.394-.422.516-.777.129-.355.194-.813.194-1.374s-.065-1.019-.194-1.374c-.122-.355-.294-.614-.516-.777-.215-.163-.469-.245-.764-.245-.287 0-.541.082-.763.245-.215.163-.387.422-.516.777-.122.355-.183.813-.183 1.374s.061 1.019.183 1.374c.129.355.301.614.516.777.222.163.477.245.763.245zm5.192 1.331v-6.816l.753.746h-2.258v-1.385h3.247v7.455h-1.742zm6.275.128c-.617 0-1.169-.149-1.656-.447-.487-.305-.871-.745-1.151-1.321s-.419-1.271-.419-2.088.14-1.512.419-2.087.663-1.012 1.151-1.31c.487-.305 1.039-.458 1.656-.458.624 0 1.176.153 1.656.458.487.298.871.735 1.15 1.31s.419 1.271.419 2.087-.14 1.512-.419 2.088-.663 1.015-1.15 1.321c-.48.298-1.032.447-1.656.447zm0-1.459c.294 0 .548-.082.763-.245.222-.163.394-.422.516-.777.129-.355.194-.813.194-1.374s-.065-1.019-.194-1.374c-.122-.355-.294-.614-.516-.777-.215-.163-.469-.245-.763-.245-.287 0-.541.082-.764.245-.215.163-.387.422-.516.777-.122.355-.183.813-.183 1.374s.061 1.019.183 1.374c.129.355.301.614.516.777.222.163.477.245.764.245zm5.191 1.331v-6.816l.753.746h-2.258v-1.385h3.247v7.455H67.55zM48.827 57.003v-6.816l.753.745h-2.258v-1.385h3.247v7.455h-1.742zm4.211 0v-6.816l.753.745h-2.258v-1.385h3.247v7.455h-1.742zm6.275.128c-.617 0-1.169-.149-1.656-.447-.487-.305-.871-.746-1.151-1.321s-.419-1.271-.419-2.087.14-1.512.419-2.087.663-1.012 1.151-1.31c.487-.305 1.039-.458 1.656-.458.624 0 1.176.153 1.656.458.487.298.871.735 1.151 1.31s.419 1.271.419 2.087-.14 1.512-.419 2.087-.663 1.015-1.151 1.321c-.48.298-1.032.447-1.656.447zm0-1.459c.294 0 .548-.082.764-.245.222-.163.394-.422.516-.778.129-.355.194-.813.194-1.374s-.065-1.019-.194-1.374c-.122-.355-.294-.614-.516-.778-.215-.163-.47-.245-.764-.245-.287 0-.541.082-.763.245-.215.163-.387.422-.516.778-.122.355-.183.813-.183 1.374s.061 1.019.183 1.374c.129.355.301.614.516.778.222.163.477.245.763.245zm5.191 1.331v-6.816l.753.745h-2.258v-1.385h3.247v7.455h-1.742zm4.211 0v-6.816l.753.745H67.21v-1.385h3.247v7.455h-1.742zM50.892 72.346c-.616 0-1.168-.149-1.656-.447-.487-.305-.871-.746-1.151-1.321s-.419-1.271-.419-2.087.14-1.512.419-2.088.663-1.012 1.151-1.31c.487-.305 1.039-.458 1.656-.458.624 0 1.176.153 1.656.458.487.298.871.735 1.151 1.31s.419 1.271.419 2.088-.14 1.512-.419 2.087-.663 1.015-1.151 1.321c-.48.298-1.032.447-1.656.447zm0-1.459c.294 0 .548-.082.764-.245.222-.163.394-.422.516-.777.129-.355.194-.813.194-1.374s-.065-1.019-.194-1.374c-.122-.355-.294-.614-.516-.777-.215-.163-.469-.245-.764-.245-.287 0-.541.082-.763.245-.215.163-.387.422-.516.777-.122.355-.183.813-.183 1.374s.061 1.019.183 1.374c.129.355.301.614.516.777.222.163.477.245.763.245zm7.298 1.459c-.617 0-1.169-.149-1.656-.447-.488-.305-.871-.746-1.151-1.321s-.419-1.271-.419-2.087.14-1.512.419-2.088.663-1.012 1.151-1.31c.487-.305 1.039-.458 1.656-.458a3.02 3.02 0 0 1 1.656.458c.487.298.871.735 1.151 1.31s.419 1.271.419 2.088-.14 1.512-.419 2.087-.663 1.015-1.151 1.321c-.48.298-1.032.447-1.656.447zm0-1.459c.294 0 .548-.082.763-.245.222-.163.394-.422.516-.777.129-.355.194-.813.194-1.374s-.065-1.019-.194-1.374c-.122-.355-.294-.614-.516-.777-.215-.163-.47-.245-.763-.245-.287 0-.541.082-.764.245-.215.163-.387.422-.516.777-.122.355-.183.813-.183 1.374s.061 1.019.183 1.374c.129.355.301.614.516.777.222.163.477.245.764.245zm5.191 1.331v-6.816l.753.745h-2.258v-1.384h3.247v7.455h-1.742zm4.211 0v-6.816l.753.745h-2.258v-1.384h3.247v7.455h-1.742z" fill="#00b8cc"/><path d="M50.892 83.756c-.616 0-1.168-.149-1.656-.447-.487-.305-.871-.746-1.151-1.321s-.419-1.27-.419-2.087.14-1.512.419-2.088.663-1.012 1.151-1.31c.487-.305 1.039-.458 1.656-.458.624 0 1.176.153 1.656.458.487.298.871.735 1.151 1.31s.419 1.271.419 2.088-.14 1.512-.419 2.087-.663 1.016-1.151 1.321c-.48.298-1.032.447-1.656.447zm0-1.459c.294 0 .548-.081.764-.245.222-.163.394-.422.516-.777.129-.355.194-.812.194-1.374s-.065-1.019-.194-1.374c-.122-.355-.294-.614-.516-.778a1.23 1.23 0 0 0-.764-.245 1.26 1.26 0 0 0-.763.245c-.215.164-.387.423-.516.778-.122.355-.183.813-.183 1.374s.061 1.019.183 1.374c.129.355.301.615.516.777.222.164.477.245.763.245zm5.192 1.331v-6.816l.753.745h-2.258v-1.384h3.247v7.455h-1.742zm6.275.128c-.617 0-1.169-.149-1.656-.447-.487-.305-.871-.746-1.151-1.321s-.419-1.27-.419-2.087.14-1.512.419-2.088.663-1.012 1.151-1.31c.487-.305 1.039-.458 1.656-.458.624 0 1.176.153 1.656.458.487.298.871.735 1.15 1.31s.419 1.271.419 2.088-.14 1.512-.419 2.087-.663 1.016-1.15 1.321c-.48.298-1.032.447-1.656.447zm0-1.459c.294 0 .548-.081.763-.245.222-.163.394-.422.516-.777.129-.355.194-.812.194-1.374s-.065-1.019-.194-1.374c-.122-.355-.294-.614-.516-.778a1.23 1.23 0 0 0-.763-.245 1.26 1.26 0 0 0-.764.245c-.215.164-.387.423-.516.778-.122.355-.183.813-.183 1.374s.061 1.019.183 1.374c.129.355.301.615.516.777.222.164.477.245.764.245zm5.191 1.331v-6.816l.753.745h-2.258v-1.384h3.247v7.455H67.55zM48.827 98.843v-6.816l.753.746h-2.258v-1.385h3.247v7.455h-1.742zm4.211 0v-6.816l.753.746h-2.258v-1.385h3.247v7.455h-1.742zm6.275.128c-.617 0-1.169-.149-1.656-.447-.487-.305-.871-.746-1.151-1.321s-.419-1.27-.419-2.087.14-1.512.419-2.087.663-1.012 1.151-1.31c.487-.305 1.039-.458 1.656-.458.624 0 1.176.153 1.656.458.487.298.871.735 1.151 1.31s.419 1.271.419 2.087-.14 1.512-.419 2.087-.663 1.016-1.151 1.321c-.48.298-1.032.447-1.656.447zm0-1.459c.294 0 .548-.081.764-.245.222-.163.394-.422.516-.777.129-.355.194-.812.194-1.374s-.065-1.019-.194-1.374c-.122-.355-.294-.614-.516-.778a1.23 1.23 0 0 0-.764-.245 1.26 1.26 0 0 0-.763.245c-.215.164-.387.423-.516.778-.122.355-.183.813-.183 1.374s.061 1.019.183 1.374c.129.355.301.615.516.777.222.164.477.245.763.245zm5.191 1.331v-6.816l.753.746h-2.258v-1.385h3.247v7.455h-1.742zm4.211 0v-6.816l.753.746H67.21v-1.385h3.247v7.455h-1.742zm-17.824 15.343c-.616 0-1.168-.149-1.656-.448-.487-.305-.871-.745-1.151-1.32s-.419-1.271-.419-2.088.14-1.512.419-2.087.663-1.012 1.151-1.31c.487-.305 1.039-.458 1.656-.458.624 0 1.176.153 1.656.458.487.298.871.735 1.151 1.31s.419 1.271.419 2.087-.14 1.513-.419 2.088-.663 1.015-1.151 1.32c-.48.299-1.032.448-1.656.448zm0-1.459c.294 0 .548-.082.764-.245.222-.163.394-.423.516-.778.129-.354.194-.812.194-1.374s-.065-1.018-.194-1.374c-.122-.354-.294-.614-.516-.777-.215-.163-.469-.245-.764-.245-.287 0-.541.082-.763.245-.215.163-.387.423-.516.777-.122.356-.183.814-.183 1.374s.061 1.02.183 1.374c.129.355.301.615.516.778.222.163.477.245.763.245zm7.298 1.459c-.617 0-1.169-.149-1.656-.448-.488-.305-.871-.745-1.151-1.32s-.419-1.271-.419-2.088.14-1.512.419-2.087.663-1.012 1.151-1.31c.487-.305 1.039-.458 1.656-.458.624 0 1.175.153 1.656.458.487.298.871.735 1.151 1.31s.419 1.271.419 2.087-.14 1.513-.419 2.088-.663 1.015-1.151 1.32c-.48.299-1.032.448-1.656.448zm0-1.459c.294 0 .548-.082.763-.245.222-.163.394-.423.516-.778.129-.354.194-.812.194-1.374s-.065-1.018-.194-1.374c-.122-.354-.294-.614-.516-.777-.215-.163-.47-.245-.763-.245-.287 0-.541.082-.764.245-.215.163-.387.423-.516.777-.122.356-.183.814-.183 1.374s.061 1.02.183 1.374c.129.355.301.615.516.778.222.163.477.245.764.245zm5.191 1.331v-6.816l.753.745h-2.258v-1.384h3.247v7.455h-1.742zm4.211 0v-6.816l.753.745h-2.258v-1.384h3.247v7.455h-1.742z" fill="url(#E)"/><path d="M74.883 41.916c-.617 0-1.169-.149-1.656-.447-.487-.305-.871-.745-1.151-1.321s-.419-1.271-.419-2.088.14-1.512.419-2.087.663-1.012 1.151-1.31c.487-.305 1.039-.458 1.656-.458.624 0 1.176.153 1.656.458.487.298.871.735 1.151 1.31s.419 1.271.419 2.087-.14 1.512-.419 2.088-.663 1.015-1.151 1.321c-.48.298-1.032.447-1.656.447zm0-1.459c.294 0 .548-.082.763-.245.222-.163.394-.422.516-.777.129-.355.194-.813.194-1.374s-.064-1.019-.194-1.374c-.122-.355-.294-.614-.516-.777-.215-.163-.47-.245-.763-.245-.287 0-.541.082-.763.245-.215.163-.387.422-.516.777-.122.355-.183.813-.183 1.374s.061 1.019.183 1.374c.129.355.301.614.516.777.222.163.477.245.763.245zm5.191 1.331v-6.816l.753.746h-2.258v-1.385h3.247v7.455h-1.742zm6.275.128a3.11 3.11 0 0 1-1.656-.447c-.487-.305-.871-.745-1.151-1.321s-.419-1.271-.419-2.088.14-1.512.419-2.087.664-1.012 1.151-1.31c.488-.305 1.04-.458 1.656-.458.624 0 1.176.153 1.656.458.488.298.871.735 1.151 1.31s.419 1.271.419 2.087-.14 1.512-.419 2.088-.663 1.015-1.151 1.321c-.48.298-1.032.447-1.656.447zm0-1.459c.294 0 .548-.082.763-.245.223-.163.395-.422.516-.777.129-.355.194-.813.194-1.374s-.065-1.019-.194-1.374c-.121-.355-.293-.614-.516-.777-.215-.163-.469-.245-.763-.245-.287 0-.541.082-.763.245-.215.163-.387.422-.516.777-.121.355-.183.813-.183 1.374s.061 1.019.183 1.374c.129.355.301.614.516.777.223.163.477.245.763.245zm5.192 1.331v-6.816l.753.746h-2.258v-1.385h3.247v7.455h-1.742zM72.819 57.003v-6.816l.753.745h-2.258v-1.385h3.247v7.455h-1.742zm4.211 0v-6.816l.753.745h-2.258v-1.385h3.247v7.455H77.03zm6.275.128c-.617 0-1.169-.149-1.656-.447-.488-.305-.871-.746-1.15-1.321s-.419-1.271-.419-2.087.14-1.512.419-2.087.663-1.012 1.15-1.31c.487-.305 1.039-.458 1.656-.458.624 0 1.175.153 1.656.458.487.298.871.735 1.151 1.31s.419 1.271.419 2.087-.14 1.512-.419 2.087-.664 1.015-1.151 1.321c-.481.298-1.032.447-1.656.447zm0-1.459c.293 0 .548-.082.764-.245.222-.163.394-.422.516-.778.129-.355.194-.813.194-1.374s-.064-1.019-.194-1.374c-.122-.355-.294-.614-.516-.778-.215-.163-.47-.245-.764-.245-.287 0-.541.082-.763.245-.215.163-.387.422-.516.778-.122.355-.183.813-.183 1.374s.061 1.019.183 1.374c.129.355.301.614.516.778.222.163.476.245.763.245zm5.191 1.331v-6.816l.753.745h-2.258v-1.385h3.247v7.455h-1.742zm4.21 0v-6.816l.753.745h-2.258v-1.385h3.247v7.455h-1.742zM74.883 72.346c-.617 0-1.169-.149-1.656-.447-.487-.305-.871-.746-1.151-1.321s-.419-1.271-.419-2.087.14-1.512.419-2.088.663-1.012 1.151-1.31c.487-.305 1.039-.458 1.656-.458.624 0 1.176.153 1.656.458.487.298.871.735 1.151 1.31s.419 1.271.419 2.088-.14 1.512-.419 2.087-.663 1.015-1.151 1.321c-.48.298-1.032.447-1.656.447zm0-1.459c.294 0 .548-.082.763-.245.222-.163.394-.422.516-.777.129-.355.194-.813.194-1.374s-.064-1.019-.194-1.374c-.122-.355-.294-.614-.516-.777-.215-.163-.47-.245-.763-.245-.287 0-.541.082-.763.245-.215.163-.387.422-.516.777-.122.355-.183.813-.183 1.374s.061 1.019.183 1.374c.129.355.301.614.516.777.222.163.477.245.763.245zm7.298 1.459c-.617 0-1.169-.149-1.656-.447-.488-.305-.871-.746-1.15-1.321s-.419-1.271-.419-2.087.14-1.512.419-2.088.663-1.012 1.15-1.31c.487-.305 1.039-.458 1.656-.458.624 0 1.175.153 1.656.458.487.298.871.735 1.15 1.31s.419 1.271.419 2.088-.14 1.512-.419 2.087-.664 1.015-1.15 1.321c-.481.298-1.032.447-1.656.447zm0-1.459c.293 0 .548-.082.763-.245.222-.163.394-.422.516-.777.129-.355.194-.813.194-1.374s-.064-1.019-.194-1.374c-.122-.355-.294-.614-.516-.777-.215-.163-.47-.245-.763-.245-.287 0-.541.082-.763.245-.215.163-.387.422-.516.777-.122.355-.183.813-.183 1.374s.061 1.019.183 1.374c.129.355.301.614.516.777.222.163.476.245.763.245zm5.191 1.331v-6.816l.753.745h-2.258v-1.384h3.247v7.455h-1.742zm4.21 0v-6.816l.753.745h-2.258v-1.384h3.247v7.455h-1.742z" fill="#00b8cc"/><path d="M74.883 83.756c-.617 0-1.169-.149-1.656-.447-.487-.305-.871-.746-1.151-1.321s-.419-1.27-.419-2.087.14-1.512.419-2.088.663-1.012 1.151-1.31c.487-.305 1.039-.458 1.656-.458.624 0 1.176.153 1.656.458.487.298.871.735 1.151 1.31s.419 1.271.419 2.088-.14 1.512-.419 2.087-.663 1.016-1.151 1.321c-.48.298-1.032.447-1.656.447zm0-1.459c.294 0 .548-.081.763-.245.222-.163.394-.422.516-.777.129-.355.194-.812.194-1.374s-.064-1.019-.194-1.374c-.122-.355-.294-.614-.516-.778a1.23 1.23 0 0 0-.763-.245 1.26 1.26 0 0 0-.763.245c-.215.164-.387.423-.516.778-.122.355-.183.813-.183 1.374s.061 1.019.183 1.374c.129.355.301.615.516.777.222.164.477.245.763.245zm5.191 1.331v-6.816l.753.745h-2.258v-1.384h3.247v7.455h-1.742zm6.275.128a3.11 3.11 0 0 1-1.656-.447c-.487-.305-.871-.746-1.151-1.321s-.419-1.27-.419-2.087.14-1.512.419-2.088.664-1.012 1.151-1.31c.488-.305 1.04-.458 1.656-.458.624 0 1.176.153 1.656.458.488.298.871.735 1.151 1.31s.419 1.271.419 2.088-.14 1.512-.419 2.087-.663 1.016-1.151 1.321c-.48.298-1.032.447-1.656.447zm0-1.459c.294 0 .548-.081.763-.245.223-.163.395-.422.516-.777.129-.355.194-.812.194-1.374s-.065-1.019-.194-1.374c-.121-.355-.293-.614-.516-.778a1.23 1.23 0 0 0-.763-.245 1.26 1.26 0 0 0-.763.245c-.215.164-.387.423-.516.778-.121.355-.183.813-.183 1.374s.061 1.019.183 1.374c.129.355.301.615.516.777.223.164.477.245.763.245zm5.192 1.331v-6.816l.753.745h-2.258v-1.384h3.247v7.455h-1.742zM72.819 98.843v-6.816l.753.746h-2.258v-1.385h3.247v7.455h-1.742zm4.211 0v-6.816l.753.746h-2.258v-1.385h3.247v7.455H77.03zm6.275.128c-.617 0-1.169-.149-1.656-.447-.488-.305-.871-.746-1.15-1.321s-.419-1.27-.419-2.087.14-1.512.419-2.087.663-1.012 1.15-1.31c.487-.305 1.039-.458 1.656-.458.624 0 1.175.153 1.656.458.487.298.871.735 1.151 1.31s.419 1.271.419 2.087-.14 1.512-.419 2.087-.664 1.016-1.151 1.321c-.481.298-1.032.447-1.656.447zm0-1.459c.293 0 .548-.081.764-.245.222-.163.394-.422.516-.777.129-.355.194-.812.194-1.374s-.064-1.019-.194-1.374c-.122-.355-.294-.614-.516-.778a1.23 1.23 0 0 0-.764-.245c-.287 0-.541.082-.763.245-.215.164-.387.423-.516.778-.122.355-.183.813-.183 1.374s.061 1.019.183 1.374c.129.355.301.615.516.777.222.164.476.245.763.245zm5.191 1.331v-6.816l.753.746h-2.258v-1.385h3.247v7.455h-1.742zm4.21 0v-6.816l.753.746h-2.258v-1.385h3.247v7.455h-1.742zm-17.823 15.343c-.617 0-1.169-.149-1.656-.448-.487-.305-.871-.745-1.151-1.32s-.419-1.271-.419-2.088.14-1.512.419-2.087.663-1.012 1.151-1.31c.487-.305 1.039-.458 1.656-.458.624 0 1.176.153 1.656.458.487.298.871.735 1.151 1.31s.419 1.271.419 2.087-.14 1.513-.419 2.088-.663 1.015-1.151 1.32c-.48.299-1.032.448-1.656.448zm0-1.459c.294 0 .548-.082.763-.245.222-.163.394-.423.516-.778.129-.354.194-.812.194-1.374s-.064-1.018-.194-1.374c-.122-.354-.294-.614-.516-.777-.215-.163-.47-.245-.763-.245-.287 0-.541.082-.763.245-.215.163-.387.423-.516.777-.122.356-.183.814-.183 1.374s.061 1.02.183 1.374c.129.355.301.615.516.778.222.163.477.245.763.245zm7.298 1.459a3.1 3.1 0 0 1-1.656-.448c-.488-.305-.871-.745-1.15-1.32s-.419-1.271-.419-2.088.14-1.512.419-2.087.663-1.012 1.15-1.31c.487-.305 1.039-.458 1.656-.458.624 0 1.175.153 1.656.458.487.298.871.735 1.15 1.31s.419 1.271.419 2.087-.14 1.513-.419 2.088-.664 1.015-1.15 1.32c-.481.299-1.032.448-1.656.448zm0-1.459c.293 0 .548-.082.763-.245.222-.163.394-.423.516-.778.129-.354.194-.812.194-1.374s-.064-1.018-.194-1.374c-.122-.354-.294-.614-.516-.777-.215-.163-.47-.245-.763-.245-.287 0-.541.082-.763.245-.215.163-.387.423-.516.777-.122.356-.183.814-.183 1.374s.061 1.02.183 1.374c.129.355.301.615.516.778.222.163.476.245.763.245zm5.191 1.331v-6.816l.753.745h-2.258v-1.384h3.247v7.455h-1.742zm4.21 0v-6.816l.753.745h-2.258v-1.384h3.247v7.455h-1.742z" fill="url(#F)"/><g filter="url(#C)"><mask id="A" maskUnits="userSpaceOnUse" x="51" y="32" width="54" height="75" mask-type="alpha"><path fill-rule="evenodd" d="M51.061 39.683c0-4.201 3.439-7.607 7.68-7.607h37.683c4.242 0 7.68 3.406 7.68 7.607v59.689c0 4.201-3.438 7.607-7.68 7.607H58.741c-4.242 0-7.68-3.406-7.68-7.607V39.683zm34.918 4.221l.382.47 5.111 6.282 3.188-4.971c.227-.355.702-.459 1.06-.234s.464.696.237 1.05l-3.763 5.866-.575.895-.672-.826-5.401-6.639-12.201 5.812-.328.156-.33-.152-6.865-3.174-5.808 4.967c-.321.275-.806.239-1.083-.079s-.242-.798.08-1.073l6.184-5.289.376-.322.45.208 6.986 3.229 12.422-5.917.549-.261zM59.512 78.672c-.424 0-.768.341-.768.761s.344.761.768.761h27.896c.33 1.1 1.359 1.903 2.577 1.903s2.247-.803 2.578-1.903h3.091c.424 0 .768-.34.768-.761s-.344-.761-.768-.761h-3.091c-.331-1.1-1.359-1.902-2.578-1.902s-2.246.802-2.577 1.902H59.512zm-.768-16.974c0-.42.344-.761.768-.761h25.443c.33-1.1 1.359-1.902 2.578-1.902s2.246.802 2.577 1.902h5.544c.424 0 .768.341.768.761s-.344.761-.768.761H90.11c-.33 1.1-1.359 1.902-2.577 1.902s-2.247-.802-2.578-1.902H59.512c-.424 0-.768-.34-.768-.761zm.768 8.107c-.424 0-.768.341-.768.761s.344.761.768.761h6.747c.33 1.1 1.359 1.902 2.577 1.902s2.247-.802 2.577-1.902h24.24c.424 0 .768-.341.768-.761s-.344-.761-.768-.761h-24.24c-.331-1.1-1.359-1.902-2.577-1.902s-2.247.802-2.577 1.902h-6.747zm.027 24.669c.412.256.873.383 1.383.383.516 0 .977-.128 1.383-.383s.725-.627.959-1.114c.24-.493.359-1.089.359-1.789s-.12-1.293-.359-1.78c-.233-.493-.553-.867-.959-1.123s-.866-.383-1.383-.383c-.51 0-.971.128-1.383.383-.406.256-.725.63-.959 1.123-.233.487-.35 1.08-.35 1.78s.117 1.296.35 1.789c.233.487.553.858.959 1.114zm2.166-.885a1.31 1.31 0 0 1-.783.237 1.32 1.32 0 0 1-.774-.237c-.221-.164-.396-.414-.525-.749-.123-.335-.184-.758-.184-1.269 0-.517.061-.94.184-1.269.129-.335.304-.581.525-.739a1.29 1.29 0 0 1 .774-.246c.301 0 .562.082.783.246.221.158.393.405.516.739.129.329.194.752.194 1.269 0 .511-.065.934-.194 1.269-.123.335-.295.584-.516.749zm3.75-4.218v5.395h1.198v-6.39h-2.562v.995h1.364zm3.787 5.103c.412.256.873.383 1.383.383.516 0 .977-.128 1.382-.383s.725-.627.959-1.114c.24-.493.359-1.089.359-1.789s-.12-1.293-.359-1.78c-.233-.493-.553-.867-.959-1.123s-.866-.383-1.382-.383c-.51 0-.971.128-1.383.383-.405.256-.725.63-.959 1.123-.233.487-.35 1.08-.35 1.78s.117 1.296.35 1.789c.234.487.553.858.959 1.114zm2.166-.885a1.31 1.31 0 0 1-.783.237c-.289 0-.547-.079-.774-.237-.221-.164-.396-.414-.525-.749-.123-.335-.184-.758-.184-1.269 0-.517.062-.94.184-1.269.129-.335.304-.581.525-.739a1.29 1.29 0 0 1 .774-.246c.301 0 .562.082.783.246.221.158.393.405.516.739.129.329.194.752.194 1.269 0 .511-.064.934-.194 1.269-.123.335-.295.584-.516.749zm3.75-4.218v5.395h1.198v-6.39h-2.562v.995h1.364zm3.787 5.103c.412.256.872.383 1.382.383.516 0 .977-.128 1.382-.383s.725-.627.959-1.114c.24-.493.359-1.089.359-1.789s-.12-1.293-.359-1.78c-.233-.493-.553-.867-.959-1.123s-.866-.383-1.382-.383c-.51 0-.971.128-1.382.383-.406.256-.725.63-.959 1.123-.234.487-.35 1.08-.35 1.78s.117 1.296.35 1.789c.233.487.553.858.959 1.114zm2.166-.885a1.31 1.31 0 0 1-.783.237 1.32 1.32 0 0 1-.774-.237c-.221-.164-.396-.414-.525-.749-.123-.335-.184-.758-.184-1.269 0-.517.061-.94.184-1.269.129-.335.304-.581.525-.739a1.29 1.29 0 0 1 .774-.246c.301 0 .562.082.783.246.221.158.393.405.516.739.129.329.194.752.194 1.269 0 .511-.064.934-.194 1.269-.123.335-.295.584-.516.749zm4.035.885c.412.256.873.383 1.382.383.516 0 .977-.128 1.383-.383s.725-.627.959-1.114c.24-.493.359-1.089.359-1.789s-.12-1.293-.359-1.78c-.234-.493-.553-.867-.959-1.123s-.866-.383-1.383-.383c-.51 0-.971.128-1.382.383-.406.256-.725.63-.959 1.123-.234.487-.35 1.08-.35 1.78s.117 1.296.35 1.789c.233.487.553.858.959 1.114zm2.166-.885a1.31 1.31 0 0 1-.783.237c-.289 0-.547-.079-.774-.237-.221-.164-.396-.414-.525-.749-.123-.335-.184-.758-.184-1.269 0-.517.061-.94.184-1.269.129-.335.304-.581.525-.739a1.29 1.29 0 0 1 .774-.246c.301 0 .562.082.783.246.221.158.393.405.516.739.129.329.194.752.194 1.269 0 .511-.064.934-.194 1.269-.123.335-.295.584-.516.749zm3.75-4.218v5.395h1.198v-6.39h-2.562v.995h1.364zm3.51 0v5.395h1.198v-6.39h-2.562v.995h1.364z" fill="#fff"/></mask><g mask="url(#A)"><path fill-rule="evenodd" d="M51.061 39.683c0-4.201 3.439-7.607 7.68-7.607h37.683c4.242 0 7.68 3.406 7.68 7.607v59.689c0 4.201-3.438 7.607-7.68 7.607H58.741c-4.242 0-7.68-3.406-7.68-7.607V39.683zm34.918 4.221l.382.47 5.111 6.282 3.188-4.971c.227-.355.702-.459 1.06-.234s.464.696.237 1.05l-3.763 5.866-.575.895-.672-.826-5.401-6.639-12.201 5.812-.328.156-.33-.152-6.865-3.174-5.808 4.967c-.321.275-.806.239-1.083-.079s-.242-.798.08-1.073l6.184-5.289.376-.322.45.208 6.986 3.229 12.422-5.917.549-.261zM59.512 78.672c-.424 0-.768.341-.768.761s.344.761.768.761h27.896c.33 1.1 1.359 1.903 2.577 1.903s2.247-.803 2.578-1.903h3.091c.424 0 .768-.34.768-.761s-.344-.761-.768-.761h-3.091c-.331-1.1-1.359-1.902-2.578-1.902s-2.246.802-2.577 1.902H59.512zm-.768-16.974c0-.42.344-.761.768-.761h25.443c.33-1.1 1.359-1.902 2.578-1.902s2.246.802 2.577 1.902h5.544c.424 0 .768.341.768.761s-.344.761-.768.761H90.11c-.33 1.1-1.359 1.902-2.577 1.902s-2.247-.802-2.578-1.902H59.512c-.424 0-.768-.34-.768-.761zm.768 8.107c-.424 0-.768.341-.768.761s.344.761.768.761h6.747c.33 1.1 1.359 1.902 2.577 1.902s2.247-.802 2.577-1.902h24.24c.424 0 .768-.341.768-.761s-.344-.761-.768-.761h-24.24c-.331-1.1-1.359-1.902-2.577-1.902s-2.247.802-2.577 1.902h-6.747zm.027 24.669c.412.256.873.383 1.383.383.516 0 .977-.128 1.383-.383s.725-.627.959-1.114c.24-.493.359-1.089.359-1.789s-.12-1.293-.359-1.78c-.233-.493-.553-.867-.959-1.123s-.866-.383-1.383-.383c-.51 0-.971.128-1.383.383-.406.256-.725.63-.959 1.123-.233.487-.35 1.08-.35 1.78s.117 1.296.35 1.789c.233.487.553.858.959 1.114zm2.166-.885a1.31 1.31 0 0 1-.783.237 1.32 1.32 0 0 1-.774-.237c-.221-.164-.396-.414-.525-.749-.123-.335-.184-.758-.184-1.269 0-.517.061-.94.184-1.269.129-.335.304-.581.525-.739a1.29 1.29 0 0 1 .774-.246c.301 0 .562.082.783.246.221.158.393.405.516.739.129.329.194.752.194 1.269 0 .511-.065.934-.194 1.269-.123.335-.295.584-.516.749zm3.75-4.218v5.395h1.198v-6.39h-2.562v.995h1.364zm3.787 5.103c.412.256.873.383 1.383.383.516 0 .977-.128 1.382-.383s.725-.627.959-1.114c.24-.493.359-1.089.359-1.789s-.12-1.293-.359-1.78c-.233-.493-.553-.867-.959-1.123s-.866-.383-1.382-.383c-.51 0-.971.128-1.383.383-.405.256-.725.63-.959 1.123-.233.487-.35 1.08-.35 1.78s.117 1.296.35 1.789c.234.487.553.858.959 1.114zm2.166-.885a1.31 1.31 0 0 1-.783.237c-.289 0-.547-.079-.774-.237-.221-.164-.396-.414-.525-.749-.123-.335-.184-.758-.184-1.269 0-.517.062-.94.184-1.269.129-.335.304-.581.525-.739a1.29 1.29 0 0 1 .774-.246c.301 0 .562.082.783.246.221.158.393.405.516.739.129.329.194.752.194 1.269 0 .511-.064.934-.194 1.269-.123.335-.295.584-.516.749zm3.75-4.218v5.395h1.198v-6.39h-2.562v.995h1.364zm3.787 5.103c.412.256.872.383 1.382.383.516 0 .977-.128 1.382-.383s.725-.627.959-1.114c.24-.493.359-1.089.359-1.789s-.12-1.293-.359-1.78c-.233-.493-.553-.867-.959-1.123s-.866-.383-1.382-.383c-.51 0-.971.128-1.382.383-.406.256-.725.63-.959 1.123-.234.487-.35 1.08-.35 1.78s.117 1.296.35 1.789c.233.487.553.858.959 1.114zm2.166-.885a1.31 1.31 0 0 1-.783.237 1.32 1.32 0 0 1-.774-.237c-.221-.164-.396-.414-.525-.749-.123-.335-.184-.758-.184-1.269 0-.517.061-.94.184-1.269.129-.335.304-.581.525-.739a1.29 1.29 0 0 1 .774-.246c.301 0 .562.082.783.246.221.158.393.405.516.739.129.329.194.752.194 1.269 0 .511-.064.934-.194 1.269-.123.335-.295.584-.516.749zm4.035.885c.412.256.873.383 1.382.383.516 0 .977-.128 1.383-.383s.725-.627.959-1.114c.24-.493.359-1.089.359-1.789s-.12-1.293-.359-1.78c-.234-.493-.553-.867-.959-1.123s-.866-.383-1.383-.383c-.51 0-.971.128-1.382.383-.406.256-.725.63-.959 1.123-.234.487-.35 1.08-.35 1.78s.117 1.296.35 1.789c.233.487.553.858.959 1.114zm2.166-.885a1.31 1.31 0 0 1-.783.237c-.289 0-.547-.079-.774-.237-.221-.164-.396-.414-.525-.749-.123-.335-.184-.758-.184-1.269 0-.517.061-.94.184-1.269.129-.335.304-.581.525-.739a1.29 1.29 0 0 1 .774-.246c.301 0 .562.082.783.246.221.158.393.405.516.739.129.329.194.752.194 1.269 0 .511-.064.934-.194 1.269-.123.335-.295.584-.516.749zm3.75-4.218v5.395h1.198v-6.39h-2.562v.995h1.364zm3.51 0v5.395h1.198v-6.39h-2.562v.995h1.364z" fill="url(#G)"/><path d="M86.36 44.374l.598-.477-.598.477zm-.382-.47l.598-.477-.382-.47-.549.261.333.686zm5.493 6.752l-.598.477.672.826.575-.895-.648-.408zm3.188-4.971l-.648-.408.648.408zm1.296.816l-.648-.408.648.408zm-3.763 5.866l-.648-.408.648.408zm-.575.895l-.597.477.672.826.574-.895-.648-.408zm-.672-.826l-.597.477.597-.477zm-5.401-6.639l.598-.477-.382-.47-.549.261.332.685zM73.345 51.61l.333.686-.333-.686zm-.328.156l-.325.689.33.153.328-.156-.333-.686zm-.33-.152l.325-.689-.325.689zm-6.865-3.174l.325-.689-.451-.208-.376.322.502.576zm-5.808 4.967l-.502-.576.502.576zm-1.004-1.152l.502.576-.502-.576zm6.184-5.289l-.502-.576.502.576zm.376-.322l.325-.689-.451-.208-.376.322.502.576zm.45.208l.325-.689-.325.689zm6.986 3.229l-.325.689.33.152.328-.156-.333-.686zm12.422-5.917l.333.686-.333-.686zm1.979 36.028l.736-.217-.164-.544h-.572v.761zm5.154 0v-.761h-.573l-.164.544.737.217zm0-1.521l-.737.217.164.544h.573v-.761zm-5.154 0v.761h.572l.164-.544-.736-.217zm-2.453-17.734v.761h.573l.164-.544-.737-.217zm5.154 0l-.736.217.163.544h.572v-.761zm0 1.521v-.761h-.572l-.163.544.736.217zm-5.154 0l.737-.217-.164-.544h-.573v.761zm-18.697 8.867l.736-.217-.163-.544h-.573v.761zm5.154 0v-.761h-.573l-.163.544.736.217zm0-1.521l-.736.217.163.544h.573v-.761zm-5.154 0v.761h.573l.163-.544-.736-.217zm-6.72 24.669l-.412.641.004.003.408-.644zm2.765 0l-.412-.642.412.642zm.959-1.114l-.692-.33-.002.004.694.326zm0-3.569l-.695.323.002.005.003.005.69-.333zm-.959-1.123l.412-.642-.412.642zm-2.765 0l-.408-.645-.004.003.412.642zm-.959 1.123l.694.326.002-.003-.695-.323zm0 3.569l-.695.323.002.003.694-.326zm3.124.228l.45.616.006-.004.005-.004-.461-.609zm-1.558 0l-.461.609.01.007.01.007.442-.622zm-.525-.749l-.722.26.002.005.002.005.718-.271zm0-2.538l-.718-.272-.003.007.72.265zm.525-.739l.45.616.003-.001-.453-.615zm1.558 0l-.461.609.006.004.006.004.45-.616zm.516.739l-.722.26.003.008.003.008.716-.275zm0 2.538l-.718-.272-.002.006-.002.005.722.26zm3.234 1.926h-.768v.761h.768v-.761zm0-5.395h.768v-.761h-.768v.761zm1.198 5.395v.761h.768v-.761h-.768zm0-6.39h.768v-.761h-.768v.761zm-2.562 0v-.761h-.768v.761h.768zm0 .995h-.768v.761h.768v-.761zm5.151 5.103l-.412.641.004.003.408-.644zm2.765 0l-.412-.642.412.642zm.959-1.114l-.692-.33-.002.004.694.326zm0-3.569l-.695.323.002.005.003.005.69-.333zm-3.724-1.123l-.408-.645-.004.003.412.642zm-.959 1.123l.694.326.001-.003-.695-.323zm0 3.569l-.695.323.002.003.694-.326zm3.124.228l.45.616.006-.004.005-.004-.461-.609zm-1.558 0l-.461.609.01.007.01.007.442-.622zm-.525-.749l-.722.26.002.005.002.005.718-.271zm0-2.538l-.718-.272-.003.007.72.265zm.525-.739l.45.616.003-.001-.453-.615zm1.558 0l-.461.609.005.004.006.004.45-.616zm.516.739l-.722.26.003.008.003.008.716-.275zm0 2.538l-.718-.272-.002.006-.002.005.722.26zm3.234 1.926h-.768v.761h.768v-.761zm0-5.395h.768v-.761h-.768v.761zm1.198 5.395v.761h.768v-.761h-.768zm0-6.39h.768v-.761h-.768v.761zm-2.562 0v-.761h-.768v.761h.768zm0 .995h-.768v.761h.768v-.761zm5.151 5.103l-.413.641.005.003.408-.644zm2.765 0l-.412-.642.412.642zm.959-1.114l-.692-.33-.001.004.694.326zm0-3.569l-.695.323.002.005.002.005.691-.333zm-3.723-1.123l-.408-.645-.005.003.413.642zm-.959 1.123l.694.326.002-.003-.696-.323zm0 3.569l-.695.323.002.003.694-.326zm3.124.228l.45.616.005-.004.005-.004-.461-.609zm-1.558 0l-.461.609.01.007.009.007.442-.622zm-.525-.749l-.722.26.002.005.002.005.717-.271zm0-2.538l-.717-.272-.003.007.72.265zm.525-.739l.45.616.003-.001-.453-.615zm1.558 0l-.461.609.005.004.006.004.449-.616zm.516.739l-.722.26.003.008.003.008.716-.275zm0 2.538l-.717-.272-.002.006-.002.005.722.26zm3.519 1.634l-.412.641.004.003.408-.644zm2.765 0l-.412-.642.412.642zm.959-1.114l-.692-.33-.002.004.694.326zm0-3.569l-.695.323.002.005.003.005.69-.333zm-3.724-1.123l-.408-.645-.004.003.412.642zm-.959 1.123l.694.326.002-.003-.696-.323zm0 3.569l-.695.323.002.003.694-.326zm3.124.228l.45.616.005-.004.005-.004-.461-.609zm-1.558 0l-.461.609.01.007.009.007.442-.622zm-.525-.749l-.721.26.001.005.002.005.717-.271zm0-2.538l-.717-.272-.002.007.72.265zm.525-.739l.45.616.003-.001-.453-.615zm1.558 0l-.461.609.006.004.005.004.449-.616zm.516.739l-.721.26.002.008.003.008.716-.275zm0 2.538l-.717-.272-.002.006-.002.005.721.26zm3.234 1.926h-.768v.761h.768v-.761zm0-5.395h.768v-.761h-.768v.761zm1.198 5.395v.761h.768v-.761h-.768zm0-6.39h.768v-.761h-.768v.761zm-2.562 0v-.761h-.768v.761h.768zm0 .995h-.768v.761h.768v-.761zm4.874 5.395h-.768v.761h.768v-.761zm0-5.395h.768v-.761h-.768v.761zm1.198 5.395v.761h.768v-.761h-.768zm0-6.39h.768v-.761h-.768v.761zm-2.562 0v-.761h-.768v.761h.768zm0 .995h-.768v.761h.768v-.761zM58.741 31.315c-4.666 0-8.448 3.747-8.448 8.368h1.536c0-3.781 3.095-6.847 6.912-6.847v-1.521zm37.683 0H58.741v1.521h37.683v-1.521zm8.448 8.368c0-4.622-3.781-8.368-8.448-8.368v1.521c3.818 0 6.912 3.065 6.912 6.847h1.536zm0 59.689V39.683h-1.536v59.689h1.536zm-8.448 8.368c4.667 0 8.448-3.747 8.448-8.368h-1.536c0 3.781-3.094 6.847-6.912 6.847v1.521zm-37.683 0h37.683v-1.521H58.741v1.521zm-8.448-8.368c0 4.621 3.782 8.368 8.448 8.368v-1.521c-3.817 0-6.912-3.066-6.912-6.847h-1.536zm0-59.689v59.689h1.536V39.683h-1.536zm36.666 4.213l-.383-.47-1.196.955.382.47 1.196-.955zm5.111 6.282l-5.111-6.282-1.196.955 5.111 6.282 1.196-.955zm1.942-4.901l-3.188 4.971 1.296.816 3.188-4.971-1.296-.816zm2.12-.468c-.716-.451-1.665-.241-2.12.468l1.296.816.823-1.284zm.473 2.1c.455-.709.243-1.649-.473-2.1l-.823 1.284 1.296.816zm-3.763 5.866l3.763-5.866-1.296-.816-3.763 5.866 1.297.816zm-.575.895l.575-.895-1.297-.816-.575.895 1.297.816zm-1.918-.757l.672.826 1.196-.955-.672-.826-1.196.955zm-5.401-6.639l5.401 6.639 1.196-.955-5.401-6.639-1.196.955zm-11.271 6.02l12.202-5.812-.666-1.371-12.201 5.812.666 1.371zm-.328.156l.328-.156-.666-1.371-.328.156.666 1.371zm-.987-.149l.33.152.65-1.379-.33-.152-.65 1.379zm-6.865-3.173l6.865 3.173.65-1.379-6.865-3.173-.65 1.379zm-4.981 4.853l5.808-4.967-1.004-1.152-5.808 4.967 1.004 1.152zm-2.166-.157c.554.636 1.524.706 2.166.157l-1.004-1.152-1.163.994zm.159-2.146a1.51 1.51 0 0 0-.159 2.146l1.163-.994-1.004-1.152zm6.184-5.289l-6.184 5.289 1.004 1.152 6.184-5.289-1.004-1.152zm.376-.322l-.376.322 1.004 1.152.376-.322-1.004-1.152zm1.277.095l-.45-.208-.65 1.379.45.208.65-1.379zm6.986 3.229l-6.986-3.229-.65 1.379 6.986 3.229.65-1.379zm11.765-5.913l-12.422 5.917.666 1.371 12.423-5.917-.666-1.371zm.548-.261l-.548.261.666 1.371.548-.261-.666-1.371zM59.512 79.433v-1.521a1.53 1.53 0 0 0-1.536 1.521h1.536zm0 0h-1.536a1.53 1.53 0 0 0 1.536 1.521v-1.521zm27.896 0H59.512v1.521h27.896v-1.521zm2.577 1.903a1.92 1.92 0 0 1-1.841-1.359l-1.472.434c.425 1.414 1.746 2.447 3.313 2.447v-1.522zm1.841-1.359a1.92 1.92 0 0 1-1.841 1.359v1.522c1.567 0 2.889-1.032 3.313-2.447l-1.472-.434zm3.827-.544h-3.091v1.521h3.091v-1.521zm0 0v1.521a1.53 1.53 0 0 0 1.536-1.521h-1.536zm0 0h1.536a1.53 1.53 0 0 0-1.536-1.521v1.521zm-3.091 0h3.091v-1.521h-3.091v1.521zm-2.578-1.902a1.92 1.92 0 0 1 1.841 1.358l1.472-.434c-.425-1.413-1.746-2.446-3.313-2.446v1.522zm-1.841 1.358a1.92 1.92 0 0 1 1.841-1.358V76.01c-1.567 0-2.889 1.032-3.313 2.446l1.472.434zm-28.632.544h27.896v-1.521H59.512v1.521zm0-19.256a1.53 1.53 0 0 0-1.536 1.521h1.536v-1.521zm25.443 0H59.512v1.521h25.443v-1.521zm2.578-1.902c-1.568 0-2.889 1.032-3.313 2.446l1.472.434a1.92 1.92 0 0 1 1.841-1.358v-1.521zm3.313 2.446c-.425-1.414-1.746-2.446-3.313-2.446v1.521a1.92 1.92 0 0 1 1.841 1.358l1.472-.434zm4.807-.544H90.11v1.521h5.544v-1.521zm1.536 1.521a1.53 1.53 0 0 0-1.536-1.521v1.521h1.536zm-1.536 1.522a1.53 1.53 0 0 0 1.536-1.522h-1.536v1.522zm-5.544 0h5.544v-1.522H90.11v1.522zm-2.577 1.902c1.567 0 2.889-1.032 3.313-2.446l-1.472-.434a1.92 1.92 0 0 1-1.841 1.358v1.521zm-3.313-2.446c.425 1.414 1.746 2.446 3.313 2.446v-1.521a1.92 1.92 0 0 1-1.841-1.358l-1.472.434zm-24.708.544h25.443v-1.522H59.512v1.522zm-1.536-1.522a1.53 1.53 0 0 0 1.536 1.522v-1.522h-1.536zm1.536 8.867v-1.522a1.53 1.53 0 0 0-1.536 1.522h1.536zm0 0h-1.536a1.53 1.53 0 0 0 1.536 1.522v-1.522zm6.747 0h-6.747v1.522h6.747v-1.522zm2.577 1.902a1.92 1.92 0 0 1-1.841-1.358l-1.472.434c.425 1.414 1.746 2.446 3.313 2.446v-1.521zm1.841-1.358a1.92 1.92 0 0 1-1.841 1.358v1.521c1.567 0 2.889-1.032 3.313-2.446l-1.472-.434zm24.976-.544h-24.24v1.522h24.24v-1.522zm0 0v1.522a1.53 1.53 0 0 0 1.536-1.522h-1.536zm0 0h1.536a1.53 1.53 0 0 0-1.536-1.522v1.522zm-24.24 0h24.24v-1.522h-24.24v1.522zm-2.577-1.902a1.92 1.92 0 0 1 1.841 1.358l1.472-.434c-.425-1.414-1.746-2.446-3.313-2.446v1.522zm-1.841 1.358a1.92 1.92 0 0 1 1.841-1.358v-1.522c-1.567 0-2.889 1.032-3.313 2.446l1.472.434zm-7.483.544h6.747v-1.522h-6.747v1.522zm1.41 23.531c-.373 0-.691-.091-.975-.267l-.816 1.289a3.34 3.34 0 0 0 1.791.5v-1.522zm.97-.265c-.273.172-.589.265-.97.265v1.522c.651 0 1.257-.164 1.795-.503l-.825-1.283zm.677-.798c-.18.375-.409.629-.677.798l.825 1.283c.543-.342.953-.83 1.24-1.429l-1.387-.653zm.285-1.463c0 .616-.106 1.094-.284 1.459l1.384.66c.302-.621.435-1.337.435-2.119h-1.536zm-.282-1.447c.176.358.282.83.282 1.447h1.536c0-.783-.134-1.497-.437-2.113l-1.381.666zm-.68-.815c.266.168.495.423.675.805l1.391-.647c-.286-.604-.696-1.098-1.242-1.442l-.825 1.283zm-.97-.264c.381 0 .697.092.97.264l.825-1.283c-.538-.339-1.144-.502-1.795-.502v1.522zm-.975.267c.283-.176.601-.267.975-.267v-1.522a3.34 3.34 0 0 0-1.791.5l.816 1.289zm-.671.802c.181-.382.41-.637.675-.805l-.825-1.283c-.545.344-.955.838-1.242 1.442l1.391.647zm-.278 1.457c0-.619.104-1.095.276-1.454l-1.388-.653c-.295.615-.424 1.326-.424 2.106h1.536zm.278 1.466c-.174-.367-.278-.847-.278-1.466h-1.536c0 .781.13 1.493.423 2.112l1.391-.647zm.675.795c-.268-.169-.497-.423-.677-.798l-1.388.653c.287.599.697 1.087 1.24 1.429l.825-1.283zm.97.755c.445 0 .867-.12 1.233-.382l-.899-1.233c-.077.055-.177.093-.334.093v1.522zm-1.216-.376c.362.252.776.376 1.216.376v-1.522c-.137 0-.24-.035-.333-.099l-.883 1.245zm-.801-1.1c.165.429.414.813.782 1.086l.922-1.217c-.075-.055-.176-.17-.269-.411l-1.435.542zm-.235-1.54c0 .564.067 1.083.23 1.529l1.444-.52c-.082-.224-.138-.551-.138-1.009H58.67zm.232-1.534c-.166.444-.232.965-.232 1.534h1.536c0-.466.056-.791.136-1.005l-1.44-.529zm.796-1.092c-.376.269-.628.656-.793 1.085l1.435.542c.093-.24.191-.346.258-.394l-.899-1.233zm1.224-.39c-.447 0-.864.131-1.227.392l.906 1.229c.092-.067.191-.1.322-.1v-1.521zm1.244.399c-.366-.272-.792-.399-1.244-.399v1.521c.15 0 .246.037.322.094l.922-1.217zm.777 1.088c-.159-.433-.408-.825-.788-1.096l-.899 1.233c.062.045.157.147.244.383l1.444-.52zm.24 1.529c0-.571-.07-1.097-.246-1.545l-1.432.551c.082.21.141.53.141.994h1.536zm-.244 1.54c.173-.45.244-.972.244-1.54h-1.536c0 .455-.058.777-.143.997l1.435.542zm-.773 1.086c.371-.276.618-.665.777-1.097l-1.444-.52c-.087.237-.184.348-.255.4l.922 1.217zm4.057.569v-5.395h-1.536v5.395h1.536zm.43-.761h-1.198v1.521h1.198v-1.521zm-.768-5.629v6.39h1.536v-6.39h-1.536zm-1.794.761h2.562v-1.522h-2.562v1.522zm.768.234v-.995h-1.536v.995h1.536zm.596-.761h-1.364v1.521h1.364v-1.521zm5.169 5.486c-.373 0-.691-.091-.975-.267l-.816 1.289a3.34 3.34 0 0 0 1.791.5v-1.522zm.97-.265c-.273.172-.589.265-.97.265v1.522c.651 0 1.257-.164 1.795-.503l-.825-1.283zm.677-.798c-.18.375-.409.629-.677.798l.825 1.283c.543-.342.953-.83 1.24-1.429l-1.388-.653zm.285-1.463c0 .616-.106 1.094-.283 1.459l1.384.66c.302-.621.435-1.337.435-2.119h-1.536zm-.282-1.447c.176.358.282.83.282 1.447h1.536c0-.783-.134-1.497-.437-2.113l-1.381.666zm-.68-.815c.266.168.495.423.675.805l1.391-.647c-.286-.604-.696-1.098-1.242-1.442l-.825 1.283zm-.97-.264c.381 0 .697.092.97.264l.825-1.283c-.538-.339-1.144-.502-1.795-.502v1.522zm-.975.267c.283-.176.601-.267.975-.267v-1.522a3.34 3.34 0 0 0-1.791.5l.816 1.289zm-.671.802c.181-.382.41-.637.675-.805l-.825-1.283c-.545.344-.955.838-1.242 1.442l1.391.647zm-.278 1.457c0-.619.104-1.095.276-1.454l-1.388-.653c-.295.615-.424 1.326-.424 2.106h1.536zm.278 1.466c-.174-.367-.278-.847-.278-1.466h-1.536c0 .781.13 1.493.423 2.112l1.391-.647zm.675.795c-.268-.169-.497-.423-.677-.798l-1.388.653c.287.599.697 1.087 1.24 1.429l.825-1.283zm.97.755c.445 0 .867-.12 1.233-.382l-.899-1.233c-.077.055-.177.093-.334.093v1.522zm-1.216-.376c.362.252.775.376 1.216.376v-1.522c-.137 0-.24-.035-.333-.099l-.883 1.245zm-.801-1.1c.165.429.414.813.782 1.086l.922-1.217c-.075-.055-.176-.17-.269-.411l-1.435.542zm-.235-1.54c0 .564.067 1.083.231 1.529l1.444-.52c-.082-.224-.138-.551-.138-1.009h-1.536zm.232-1.534c-.166.444-.232.965-.232 1.534h1.536c0-.466.056-.791.136-1.005l-1.44-.529zm.796-1.092c-.376.269-.628.656-.793 1.085l1.435.542c.093-.24.191-.346.258-.394l-.899-1.233zm1.224-.39c-.447 0-.865.131-1.227.392l.906 1.229c.092-.067.191-.1.322-.1v-1.521zm1.244.399c-.366-.272-.793-.399-1.244-.399v1.521c.15 0 .246.037.323.094l.922-1.217zm.777 1.088c-.159-.433-.408-.825-.788-1.096l-.899 1.233c.062.045.157.147.244.383l1.444-.52zm.24 1.529c0-.571-.07-1.097-.246-1.545l-1.432.551c.082.21.141.53.141.994h1.536zm-.244 1.54c.173-.45.244-.972.244-1.54h-1.536c0 .455-.058.777-.143.997l1.435.542zm-.773 1.086c.372-.276.618-.665.777-1.097l-1.444-.52c-.087.237-.184.348-.255.4l.922 1.217zm4.057.569v-5.395H74.39v5.395h1.536zm.43-.761h-1.198v1.521h1.198v-1.521zm-.768-5.629v6.39h1.536v-6.39h-1.536zm-1.794.761h2.562v-1.522h-2.562v1.522zm.768.234v-.995h-1.536v.995h1.536zm.596-.761h-1.364v1.521h1.364v-1.521zm5.169 5.486c-.373 0-.691-.091-.975-.267l-.816 1.289a3.34 3.34 0 0 0 1.79.5v-1.522zm.97-.265c-.273.172-.588.265-.97.265v1.522c.651 0 1.257-.164 1.795-.503l-.825-1.283zm.677-.798c-.18.375-.409.629-.677.798l.825 1.283c.543-.342.953-.83 1.24-1.429l-1.387-.653zm.285-1.463c0 .616-.106 1.094-.283 1.459l1.384.66c.302-.621.436-1.337.436-2.119h-1.536zm-.282-1.447c.176.358.282.83.282 1.447h1.536c0-.783-.134-1.497-.437-2.113l-1.381.666zm-.68-.815c.266.168.495.423.676.805l1.391-.647c-.287-.604-.697-1.098-1.242-1.442l-.825 1.283zm-.97-.264c.382 0 .697.092.97.264l.825-1.283c-.538-.339-1.144-.502-1.795-.502v1.522zm-.975.267c.283-.176.601-.267.975-.267v-1.522a3.34 3.34 0 0 0-1.79.5l.816 1.289zm-.671.802c.181-.382.409-.637.675-.805l-.825-1.283c-.545.344-.955.838-1.241 1.442l1.391.647zm-.278 1.457c0-.619.104-1.095.276-1.454l-1.387-.653c-.295.615-.424 1.326-.424 2.106h1.536zm.278 1.466c-.174-.367-.278-.847-.278-1.466h-1.536c0 .781.13 1.493.423 2.112l1.391-.647zm.675.795c-.268-.169-.497-.423-.677-.798l-1.387.653c.287.599.697 1.087 1.24 1.429l.825-1.283zm.97.755c.446 0 .868-.12 1.234-.382l-.899-1.233c-.077.055-.177.093-.334.093v1.522zm-1.216-.376c.363.252.776.376 1.216.376v-1.522c-.137 0-.24-.035-.332-.099l-.883 1.245zm-.801-1.1c.165.429.414.813.782 1.086l.922-1.217c-.075-.055-.176-.17-.269-.411l-1.435.542zm-.235-1.54c0 .564.067 1.083.23 1.529l1.444-.52c-.082-.224-.138-.551-.138-1.009h-1.536zm.232-1.534c-.165.444-.232.965-.232 1.534h1.536c0-.466.057-.791.137-1.005l-1.441-.529zm.796-1.092c-.376.269-.628.656-.793 1.085l1.435.542c.093-.24.192-.346.258-.394l-.899-1.233zm1.224-.39a2.06 2.06 0 0 0-1.227.392l.906 1.229c.092-.067.191-.1.321-.1v-1.521zm1.244.399c-.366-.272-.793-.399-1.244-.399v1.521c.151 0 .247.037.323.094l.922-1.217zm.777 1.088c-.159-.433-.409-.825-.788-1.096l-.899 1.233c.062.045.157.147.243.383l1.444-.52zm.24 1.529c0-.571-.07-1.097-.246-1.545l-1.432.551c.082.21.141.53.141.994h1.536zm-.244 1.54c.174-.45.244-.972.244-1.54h-1.536c0 .455-.058.777-.143.997l1.435.542zm-.773 1.086c.372-.276.618-.665.777-1.097l-1.444-.52c-.087.237-.184.348-.255.4l.922 1.217zm4.957-.1c-.373 0-.691-.091-.974-.267l-.816 1.289a3.34 3.34 0 0 0 1.79.5v-1.522zm.971-.265a1.77 1.77 0 0 1-.971.265v1.522c.651 0 1.257-.164 1.795-.503l-.824-1.283zm.677-.798c-.18.375-.409.629-.677.798l.824 1.283c.543-.342.953-.83 1.24-1.429l-1.388-.653zm.285-1.463c0 .616-.105 1.094-.283 1.459l1.384.66c.302-.621.436-1.337.436-2.119H88.46zm-.281-1.447c.175.358.281.83.281 1.447h1.536c0-.783-.134-1.497-.437-2.113l-1.38.666zm-.68-.815c.265.168.495.423.675.805l1.391-.647c-.286-.604-.697-1.098-1.242-1.442l-.824 1.283zm-.971-.264c.382 0 .697.092.971.264l.824-1.283c-.538-.339-1.144-.502-1.795-.502v1.522zm-.974.267c.283-.176.601-.267.974-.267v-1.522a3.34 3.34 0 0 0-1.79.5l.816 1.289zm-.671.802c.18-.382.409-.637.675-.805l-.824-1.283c-.546.344-.956.838-1.242 1.442l1.391.647zm-.278 1.457c0-.619.104-1.095.276-1.454l-1.388-.653c-.295.615-.425 1.326-.425 2.106h1.536zm.278 1.466c-.174-.367-.278-.847-.278-1.466h-1.536c0 .781.131 1.493.423 2.112l1.391-.647zm.675.795c-.268-.169-.497-.423-.677-.798l-1.388.653c.287.599.697 1.087 1.24 1.429l.824-1.283zm.97.755c.446 0 .868-.12 1.234-.382l-.899-1.233c-.077.055-.177.093-.334.093v1.522zm-1.216-.376c.363.252.776.376 1.216.376v-1.522c-.137 0-.24-.035-.333-.099l-.883 1.245zm-.801-1.1c.165.429.414.813.782 1.086l.922-1.217c-.075-.055-.175-.17-.268-.411l-1.435.542zm-.235-1.54c0 .564.068 1.083.231 1.529l1.443-.52c-.082-.224-.138-.551-.138-1.009h-1.536zm.233-1.534c-.166.444-.233.965-.233 1.534h1.536c0-.466.057-.791.137-1.005l-1.44-.529zm.796-1.092c-.376.269-.628.656-.793 1.085l1.435.542c.092-.24.191-.346.257-.394l-.899-1.233zm1.224-.39a2.06 2.06 0 0 0-1.227.392l.906 1.229c.092-.067.19-.1.321-.1v-1.521zm1.244.399c-.366-.272-.793-.399-1.244-.399v1.521c.151 0 .246.037.323.094l.922-1.217zm.777 1.088c-.159-.433-.408-.825-.788-1.096l-.899 1.233c.062.045.157.147.244.383l1.443-.52zm.24 1.529c0-.571-.07-1.097-.246-1.545l-1.432.551c.083.21.141.53.141.994h1.536zm-.243 1.54c.173-.45.243-.972.243-1.54h-1.536c0 .455-.058.777-.143.997l1.435.542zm-.773 1.086c.372-.276.619-.665.777-1.097l-1.443-.52c-.087.237-.184.348-.256.4l.922 1.217zm4.058.569v-5.395h-1.536v5.395h1.536zm.43-.761h-1.198v1.521h1.198v-1.521zm-.768-5.629v6.39h1.536v-6.39h-1.536zm-1.794.761h2.562v-1.522h-2.562v1.522zm.768.234v-.995h-1.536v.995h1.536zm.596-.761h-1.364v1.521h1.364v-1.521zm4.278 6.156v-5.395h-1.536v5.395h1.536zm.43-.761h-1.198v1.521h1.198v-1.521zm-.768-5.629v6.39h1.536v-6.39h-1.536zm-1.794.761h2.562v-1.522h-2.562v1.522zm.768.234v-.995h-1.536v.995h1.536zm.596-.761h-1.364v1.521h1.364v-1.521z" fill="#fff"/></g></g><mask id="B" maskUnits="userSpaceOnUse" x="94" y="87" width="32" height="31" mask-type="alpha"><path fill-rule="evenodd" d="M112.564 87.432h-5.659v3.747a11.93 11.93 0 0 0-3.355 1.378l-2.676-2.65-4.001 3.964 2.676 2.65c-.625 1.017-1.099 2.135-1.391 3.324h-3.783v5.606h3.783c.292 1.188.766 2.306 1.39 3.323l-2.675 2.65 4.001 3.964 2.676-2.65a11.92 11.92 0 0 0 3.355 1.378v3.747h5.659v-3.747c1.2-.29 2.329-.759 3.356-1.378l2.676 2.651 4.001-3.964-2.676-2.65a11.64 11.64 0 0 0 1.391-3.324h3.784v-5.606h-3.784c-.292-1.188-.765-2.307-1.391-3.324l2.676-2.65-4.001-3.963-2.676 2.65c-1.027-.618-2.156-1.088-3.356-1.378v-3.747zm-2.829 20.87c3.153 0 5.709-2.532 5.709-5.655s-2.556-5.655-5.709-5.655-5.71 2.532-5.71 5.655 2.556 5.655 5.71 5.655z" fill="#fff"/></mask><g mask="url(#B)"><path fill-rule="evenodd" d="M112.564 87.432h-5.659v3.747a11.93 11.93 0 0 0-3.355 1.378l-2.676-2.65-4.001 3.964 2.676 2.65c-.625 1.017-1.099 2.135-1.391 3.324h-3.783v5.606h3.783c.292 1.188.766 2.306 1.39 3.323l-2.675 2.65 4.001 3.964 2.676-2.65a11.92 11.92 0 0 0 3.355 1.378v3.747h5.659v-3.747c1.2-.29 2.329-.759 3.356-1.378l2.676 2.651 4.001-3.964-2.676-2.65a11.64 11.64 0 0 0 1.391-3.324h3.784v-5.606h-3.784c-.292-1.188-.765-2.307-1.391-3.324l2.676-2.65-4.001-3.963-2.676 2.65c-1.027-.618-2.156-1.088-3.356-1.378v-3.747zm-2.829 20.87c3.153 0 5.709-2.532 5.709-5.655s-2.556-5.655-5.709-5.655-5.71 2.532-5.71 5.655 2.556 5.655 5.71 5.655z" fill="url(#H)"/><path d="M106.905 87.432v-.761h-.768v.761h.768zm5.659 0h.768v-.761h-.768v.761zm-5.659 3.747l.182.739.586-.141v-.598h-.768zm-3.355 1.378l-.543.538.426.423.516-.31-.399-.65zm-2.676-2.65l.543-.538-.543-.538-.543.538.543.538zm-4.002 3.964l-.543-.539-.544.539.544.538.543-.538zm2.676 2.65l.656.396.314-.51-.427-.423-.543.538zm-1.391 3.324v.761h.603l.143-.58-.746-.181zm-3.783 0v-.761h-.768v.761h.768zm0 5.606h-.768v.761h.768v-.761zm3.783 0l.746-.18-.143-.581h-.603v.761zm1.39 3.323l.543.538.427-.422-.314-.511-.656.395zm-2.675 2.65l-.543-.537-.544.537.544.538.543-.538zm4.002 3.964l-.543.538.543.538.543-.538-.543-.538zm2.676-2.65l.398-.649-.515-.312-.427.423.544.538zm3.355 1.378h.768v-.598l-.586-.141-.182.739zm0 3.747h-.768v.76h.768v-.76zm5.659 0v.76h.768v-.76h-.768zm0-3.747l-.182-.739-.586.141v.598h.768zm3.356-1.378l.543-.538-.427-.423-.516.312.4.649zm2.676 2.651l-.543.537.543.538.543-.538-.543-.537zm4.001-3.964l.543.538.543-.538-.543-.538-.543.538zm-2.676-2.65l-.656-.396-.314.511.427.423.543-.538zm1.391-3.324v-.761h-.603l-.142.581.745.18zm3.784 0v.761h.768v-.761h-.768zm0-5.606h.768v-.761h-.768v.761zm-3.784 0l-.745.181.142.58h.603v-.761zm-1.391-3.324l-.543-.538-.427.423.314.51.656-.396zm2.676-2.65l.543.538.543-.538-.543-.538-.543.538zm-4.001-3.963l.543-.538-.543-.538-.543.538.543.538zm-2.676 2.65l-.4.65.516.31.427-.423-.543-.538zm-3.356-1.378h-.768v.598l.586.141.182-.739zm-5.659-2.987h5.659v-1.521h-5.659v1.521zm.768 2.987v-3.747h-1.536v3.747h1.536zm-3.724 2.028c.96-.579 2.016-1.018 3.138-1.289l-.364-1.478a12.67 12.67 0 0 0-3.573 1.467l.799 1.3zm-3.618-2.763l2.676 2.65 1.086-1.076-2.676-2.65-1.086 1.076zm-2.916 3.964l4.002-3.964-1.086-1.076-4.002 3.963 1.086 1.076zm2.676 1.574l-2.676-2.65-1.086 1.076 2.675 2.65 1.087-1.076zm-1.188 4.042c.273-1.112.717-2.157 1.301-3.109l-1.312-.79a12.42 12.42 0 0 0-1.481 3.539l1.492.36zm-4.529.58h3.783v-1.521h-3.783v1.521zm.768 4.845v-5.606h-1.536v5.606h1.536zm3.015-.761h-3.783v1.522h3.783v-1.522zm2.047 3.689c-.584-.951-1.027-1.997-1.301-3.108l-1.492.36c.311 1.266.816 2.456 1.481 3.539l1.312-.791zm-2.789 3.583l2.676-2.65-1.087-1.076-2.675 2.651 1.086 1.075zm4.002 2.888l-4.002-3.963-1.086 1.075 4.002 3.964 1.086-1.076zm1.589-2.65l-2.675 2.65 1.086 1.076 2.676-2.65-1.087-1.076zm4.081 1.177c-1.122-.271-2.178-.709-3.139-1.288l-.798 1.299c1.093.659 2.295 1.159 3.573 1.467l.364-1.478zm.586 4.486v-3.747h-1.536v3.747h1.536zm4.891-.761h-5.659v1.521h5.659v-1.521zm-.768-2.986v3.747h1.536v-3.747h-1.536zm3.724-2.027c-.96.579-2.016 1.017-3.138 1.288l.364 1.478c1.278-.308 2.48-.808 3.573-1.467l-.799-1.299zm3.619 2.762l-2.676-2.651-1.086 1.076 2.676 2.65 1.086-1.075zm2.915-3.964l-4.001 3.964 1.086 1.075 4.001-3.963-1.086-1.076zm-2.676-1.574l2.676 2.65 1.086-1.076-2.676-2.65-1.086 1.076zm1.189-4.042a10.92 10.92 0 0 1-1.302 3.108l1.312.791c.665-1.083 1.171-2.273 1.482-3.539l-1.492-.36zm4.529-.581h-3.784v1.522h3.784v-1.522zm-.768-4.845v5.606h1.536v-5.606h-1.536zm-3.016.761h3.784v-1.521h-3.784v1.521zm-2.047-3.689c.585.952 1.028 1.997 1.302 3.109l1.492-.36a12.45 12.45 0 0 0-1.482-3.539l-1.312.79zm2.789-3.584l-2.676 2.65 1.086 1.076 2.676-2.651-1.086-1.076zm-4.001-2.888l4.001 3.964 1.086-1.076-4.001-3.963-1.086 1.076zm-1.59 2.65l2.676-2.65-1.086-1.076-2.676 2.65 1.086 1.076zm-4.081-1.176c1.122.271 2.178.71 3.138 1.289l.799-1.3a12.67 12.67 0 0 0-3.573-1.467l-.364 1.478zm-.586-4.487v3.747h1.536v-3.747h-1.536zm2.88 15.215c0 2.703-2.212 4.894-4.941 4.894v1.522c3.577 0 6.477-2.873 6.477-6.416h-1.536zm-4.941-4.894c2.729 0 4.941 2.191 4.941 4.894h1.536c0-3.543-2.9-6.415-6.477-6.415v1.521zm-4.942 4.894c0-2.703 2.213-4.894 4.942-4.894v-1.521c-3.578 0-6.478 2.873-6.478 6.415h1.536zm4.942 4.894c-2.729 0-4.942-2.191-4.942-4.894h-1.536c0 3.543 2.9 6.416 6.478 6.416v-1.522z" fill="#41ccdb"/></g><defs><filter id="C" x="39.061" y="22.076" width="73.044" height="94.903" filterUnits="userSpaceOnUse" color-interpolation-filters="sRGB"><feFlood flood-opacity="0" result="A"/><feColorMatrix in="SourceAlpha" values="0 0 0 0 0 0 0 0 0 0 0 0 0 0 0 0 0 0 127 0"/><feOffset dx="-2"/><feGaussianBlur stdDeviation="5"/><feColorMatrix values="0 0 0 0 0.258824 0 0 0 0 0.298039 0 0 0 0 0.407843 0 0 0 0.3 0"/><feBlend in2="A"/><feBlend in="SourceGraphic"/></filter><linearGradient id="D" x1="71.531" y1="27.744" x2="71.531" y2="102.647" xlink:href="#I"><stop stop-color="#41ccdb"/><stop offset="1" stop-color="#00b8cc"/></linearGradient><linearGradient id="E" x1="59.535" y1="72.218" x2="59.535" y2="117.861" xlink:href="#I"><stop stop-color="#00b8cc"/><stop offset="1" stop-color="#00b8cc" stop-opacity="0"/></linearGradient><linearGradient id="F" x1="83.527" y1="72.218" x2="83.527" y2="117.861" xlink:href="#I"><stop stop-color="#00b8cc"/><stop offset="1" stop-color="#00b8cc" stop-opacity="0"/></linearGradient><linearGradient id="G" x1="77.583" y1="32.076" x2="77.583" y2="106.979" xlink:href="#I"><stop stop-color="#fff"/><stop offset="1" stop-color="#eef5fc"/></linearGradient><linearGradient id="H" x1="109.735" y1="87.432" x2="109.735" y2="117.862" xlink:href="#I"><stop stop-color="#41ccdb"/><stop offset="1" stop-color="#00b8cc"/></linearGradient><linearGradient id="I" gradientUnits="userSpaceOnUse"/></defs></svg>