<svg xmlns="http://www.w3.org/2000/svg" xmlns:xlink="http://www.w3.org/1999/xlink" width="132" height="101" fill="none" xmlns:v="https://vecta.io/nano"><style><![CDATA[.B{color-interpolation-filters:sRGB}.C{flood-opacity:0}.D{stroke:#41ccdb}.E{fill:#00b8cc}.F{stroke-width:2}.G{stroke-linecap:round}.H{fill-opacity:.99}.I{fill:#41ccdb}]]></style><g clip-path="url(#f)"><g class="D F G"><path d="M104.436 66.522l-13.859-12.6-2.351-1.49-5.568-5.276m20.23 21.042L91.01 76.639l-2.227 2.483-7.548 9.186-3.835-1.8-12.374-8.814"/></g><path d="M88.4121 75.1494L72.7598 68.4459L62.6757 54.1701L61.6237 57.4597L54.3237 69.3151L38.3003 75.1494H33.5366L19.3691 63.7911L35.2688 55.1633L34.5883 52.2461L28.1542 44.2393" stroke="url(#Z)" class="F G"/><path d="M89.464 56.094L73.44 68.011" class="D F G"/><path d="M99.0601 28.219L94.4745 31.2005L88.0516 30.7584L69.5783 15.6238L63.366 32.6224L60.1827 30.4589L52.1732 23.3505L50.7356 22.0112L48.1171 23.3505L38.1567 31.2005L38.6188 35.61L49.5034 47.1997L61.3122 35.0433H65.7787L80.617 45.6029L90.372 34.0131L94.0684 34.7342L102.643 39.5247" stroke="url(#a)" class="F G"/><g filter="url(#A)" class="E"><path d="M80.424 51.634c-3.487 0-6.313-2.836-6.313-6.334s2.826-6.334 6.313-6.334 6.313 2.836 6.313 6.334-2.826 6.334-6.313 6.334z"/></g><path d="M80.424 51.349a6.04 6.04 0 1 1 0-12.096 6.04 6.04 0 1 1 0 12.096z" class="D"/><g filter="url(#B)" class="E"><path d="M69.269 20.593a4.85 4.85 0 0 1-4.841-4.857 4.85 4.85 0 0 1 4.841-4.857 4.85 4.85 0 0 1 4.841 4.857 4.85 4.85 0 0 1-4.841 4.857z"/></g><path d="M69.27 20.307c-2.517 0-4.557-2.047-4.557-4.572s2.04-4.571 4.557-4.571 4.557 2.047 4.557 4.572-2.04 4.572-4.557 4.572z" class="D"/><g filter="url(#C)" class="E"><path d="M104.774 71.812a4.85 4.85 0 1 1 0-9.714 4.85 4.85 0 1 1 0 9.714z"/></g><path d="M104.774 71.527c-2.517 0-4.557-2.047-4.557-4.571s2.04-4.572 4.557-4.572 4.557 2.047 4.557 4.572-2.04 4.572-4.557 4.572z" class="D"/><g filter="url(#D)" class="E"><path d="M80.424 93.323a4.85 4.85 0 1 1 0-9.714 4.85 4.85 0 1 1 0 9.714z"/></g><path d="M80.424 93.037c-2.517 0-4.557-2.047-4.557-4.571s2.04-4.571 4.557-4.571 4.557 2.047 4.557 4.572-2.04 4.572-4.557 4.572z" class="D"/><g filter="url(#E)" class="E"><path d="M49.277 52.512c-2.837 0-5.136-2.307-5.136-5.153s2.299-5.153 5.136-5.153 5.136 2.307 5.136 5.153-2.3 5.153-5.136 5.153z"/></g><path d="M49.277 52.226a4.86 4.86 0 1 1 0-9.734 4.86 4.86 0 1 1 0 9.734z" class="D"/><g filter="url(#F)" class="E"><use xlink:href="#g"/></g><use xlink:href="#h" class="D"/><g filter="url(#G)" class="E"><path d="M63.219 80.717c-2.451 0-4.438-1.993-4.438-4.453s1.987-4.453 4.438-4.453 4.438 1.993 4.438 4.453-1.987 4.453-4.438 4.453z"/></g><path d="M63.219 80.432a4.16 4.16 0 1 1 0-8.334 4.16 4.16 0 1 1 0 8.334z" class="D"/><g filter="url(#H)" class="E"><path d="M63.219 59.206c-2.451 0-4.438-1.993-4.438-4.453s1.987-4.453 4.438-4.453 4.438 1.993 4.438 4.453-1.987 4.453-4.438 4.453z"/></g><path d="M63.219 58.92a4.16 4.16 0 1 1 0-8.334 4.16 4.16 0 1 1 0 8.334z" class="D"/><g filter="url(#I)" class="E"><path d="M63.219 37.696c-2.451 0-4.438-1.993-4.438-4.453s1.987-4.453 4.438-4.453 4.438 1.993 4.438 4.453-1.987 4.453-4.438 4.453z"/></g><path d="M63.219 37.41a4.16 4.16 0 1 1 0-8.334 4.16 4.16 0 1 1 0 8.334z" class="D"/><g filter="url(#J)" class="E"><path d="M91.175 59.206c-2.451 0-4.438-1.993-4.438-4.453s1.987-4.453 4.438-4.453 4.438 1.993 4.438 4.453-1.987 4.453-4.438 4.453z"/></g><path d="M91.175 58.92a4.16 4.16 0 1 1 0-8.334 4.16 4.16 0 1 1 0 8.334z" class="D"/><g filter="url(#K)" class="E"><use xlink:href="#i"/></g><path d="M72.924 71.526c-1.688 0-3.057-1.373-3.057-3.067s1.368-3.066 3.057-3.066 3.057 1.373 3.057 3.066-1.368 3.067-3.057 3.067z" class="D"/><g filter="url(#L)" class="E"><path d="M103.748 43.528c-1.845 0-3.341-1.501-3.341-3.352s1.496-3.352 3.341-3.352 3.342 1.501 3.342 3.352-1.496 3.352-3.342 3.352z"/></g><path d="M103.749 43.242c-1.689 0-3.057-1.373-3.057-3.067s1.368-3.067 3.057-3.067 3.056 1.373 3.056 3.067-1.368 3.067-3.056 3.067z" class="D"/><g filter="url(#M)" class="E"><path d="M53.988 73.175c-1.845 0-3.341-1.501-3.341-3.352s1.496-3.352 3.341-3.352 3.341 1.501 3.341 3.352-1.496 3.352-3.341 3.352z"/></g><path d="M53.988 72.889c-1.688 0-3.056-1.373-3.056-3.067s1.368-3.067 3.057-3.067 3.057 1.373 3.057 3.067-1.368 3.067-3.057 3.067z" class="D"/><g filter="url(#N)" class="E"><path d="M28.089 47.359c-1.845 0-3.341-1.501-3.341-3.352s1.496-3.352 3.341-3.352 3.341 1.501 3.341 3.352-1.496 3.352-3.341 3.352z"/></g><path d="M28.089 47.073c-1.688 0-3.057-1.373-3.057-3.067s1.368-3.067 3.057-3.067 3.057 1.373 3.057 3.067-1.369 3.067-3.057 3.067z" class="D"/><g filter="url(#O)" class="E"><path d="M50.647 25.209c-1.845 0-3.341-1.501-3.341-3.352s1.496-3.352 3.341-3.352 3.341 1.501 3.341 3.352-1.496 3.352-3.341 3.352z"/></g><path d="M50.647 24.923c-1.688 0-3.056-1.373-3.056-3.067s1.368-3.067 3.057-3.067 3.057 1.373 3.057 3.067-1.369 3.067-3.057 3.067z" class="D"/><g filter="url(#P)" class="E"><path d="M19.823 66.955c-1.845 0-3.341-1.501-3.341-3.352s1.496-3.352 3.341-3.352 3.341 1.501 3.341 3.352-1.496 3.352-3.341 3.352z"/></g><path d="M19.823 66.669c-1.688 0-3.057-1.373-3.057-3.066s1.369-3.067 3.057-3.067 3.057 1.373 3.057 3.067-1.369 3.066-3.057 3.066z" class="D"/><g filter="url(#Q)" class="E"><path d="M101.771 30.322c-2.032 0-3.68-1.653-3.68-3.692s1.648-3.692 3.68-3.692 3.681 1.653 3.681 3.692-1.648 3.692-3.681 3.692z"/></g><path d="M101.771 30.037c-1.875 0-3.396-1.525-3.396-3.407s1.52-3.407 3.396-3.407 3.396 1.525 3.396 3.407-1.521 3.407-3.396 3.407z" class="D"/><g filter="url(#R)" class="E"><path d="M91.175 80.717c-2.451 0-4.438-1.993-4.438-4.453s1.987-4.453 4.438-4.453 4.438 1.993 4.438 4.453-1.987 4.453-4.438 4.453z"/></g><path d="M91.175 80.432a4.16 4.16 0 1 1 0-8.334 4.16 4.16 0 1 1 0 8.334z" class="D"/><g filter="url(#S)" class="E"><path d="M91.175 37.696c-2.451 0-4.438-1.993-4.438-4.453s1.987-4.453 4.438-4.453 4.438 1.993 4.438 4.453-1.987 4.453-4.438 4.453z"/></g><path d="M91.175 37.41a4.16 4.16 0 1 1 0-8.334 4.16 4.16 0 1 1 0 8.334z" class="D"/><g filter="url(#T)" class="E"><path d="M36.36 37.696c-2.451 0-4.438-1.993-4.438-4.453s1.987-4.453 4.438-4.453 4.438 1.993 4.438 4.453-1.987 4.453-4.438 4.453z"/></g><path d="M36.36 37.41a4.16 4.16 0 1 1 0-8.334 4.16 4.16 0 1 1 0 8.334z" class="D"/><g filter="url(#U)" class="E"><path d="M36.36 59.206c-2.451 0-4.438-1.993-4.438-4.453s1.987-4.453 4.438-4.453 4.438 1.993 4.438 4.453-1.987 4.453-4.438 4.453z"/></g><path d="M36.36 58.92a4.16 4.16 0 1 1 0-8.334 4.16 4.16 0 1 1 0 8.334z" class="D"/><g filter="url(#V)"><path d="M98.053 20.593H33.346c-3.146 0-5.696 2.558-5.696 5.714v44.835c0 3.156 2.55 5.714 5.696 5.714h64.707c3.145 0 5.695-2.558 5.695-5.714V26.307c0-3.156-2.55-5.714-5.695-5.714z" fill="url(#b)" fill-opacity=".3"/><path d="M98.053 20.878H33.345c-2.988 0-5.411 2.43-5.411 5.429v44.835c0 2.998 2.422 5.429 5.411 5.429h64.707a5.42 5.42 0 0 0 5.41-5.429V26.307a5.42 5.42 0 0 0-5.41-5.428z" stroke-opacity=".3" class="D"/></g><g filter="url(#W)"><path d="M56.408 6.68H12.782c-3.146 0-5.696 2.558-5.696 5.714v24.849c0 3.156 2.55 5.714 5.696 5.714h43.627c3.146 0 5.696-2.558 5.696-5.714V12.394c0-3.156-2.55-5.714-5.696-5.714z" fill="url(#c)" class="H"/><path d="M56.408 6.966H12.782c-2.988 0-5.411 2.43-5.411 5.429v24.849c0 2.998 2.423 5.429 5.411 5.429h43.627c2.988 0 5.411-2.43 5.411-5.428V12.394c0-2.998-2.422-5.429-5.411-5.429z" stroke="#fff"/></g><path d="M26.424 29.39v-3.595l.464 1.232-3.859-6.437h2.155l2.957 4.941H26.9l2.97-4.941h1.992l-3.859 6.437.451-1.232v3.595h-2.03zm8.749.101c-.768 0-1.445-.151-2.03-.453-.576-.302-1.023-.712-1.341-1.232a3.42 3.42 0 0 1-.476-1.798c0-.679.155-1.278.464-1.798a3.32 3.32 0 0 1 1.291-1.232c.543-.302 1.157-.453 1.842-.453.66 0 1.253.143 1.779.427a3.08 3.08 0 0 1 1.266 1.207c.309.52.464 1.144.464 1.873l-.012.264-.025.264h-5.476v-1.144h4.448l-.752.339c0-.352-.071-.658-.213-.918s-.338-.461-.589-.603c-.251-.151-.543-.226-.877-.226s-.631.075-.89.226c-.251.142-.447.348-.589.616-.142.26-.213.57-.213.93v.302a1.98 1.98 0 0 0 .238.981 1.7 1.7 0 0 0 .689.641c.301.142.652.214 1.053.214.359 0 .672-.054.94-.163.276-.109.526-.272.752-.49l1.04 1.131a3.09 3.09 0 0 1-1.165.817c-.468.184-1.007.277-1.617.277zm6.827 0c-.576 0-1.132-.067-1.667-.201-.526-.142-.944-.318-1.253-.528l.651-1.408c.309.193.672.352 1.09.478.426.117.844.176 1.253.176.451 0 .769-.054.952-.163.192-.109.288-.26.288-.453a.37.37 0 0 0-.225-.352c-.142-.084-.334-.147-.576-.189l-.802-.126-.865-.163a3.1 3.1 0 0 1-.802-.327c-.242-.143-.439-.335-.589-.578-.142-.243-.213-.557-.213-.943a1.85 1.85 0 0 1 .363-1.131c.251-.327.61-.582 1.078-.767.468-.193 1.027-.289 1.679-.289.459 0 .927.05 1.403.151s.873.247 1.19.44l-.651 1.395a3.16 3.16 0 0 0-.99-.39 4.21 4.21 0 0 0-.952-.113c-.434 0-.752.059-.952.176s-.301.268-.301.453a.41.41 0 0 0 .213.377c.15.084.347.151.589.201l.789.138a6.45 6.45 0 0 1 .877.163 2.9 2.9 0 0 1 .789.327 1.59 1.59 0 0 1 .589.566c.15.235.226.545.226.93a1.79 1.79 0 0 1-.376 1.119c-.251.319-.614.57-1.09.754-.468.184-1.04.277-1.717.277z" class="I"/><g filter="url(#X)"><path d="M119.301 6.68H75.675c-3.146 0-5.696 2.558-5.696 5.714v24.849c0 3.156 2.55 5.714 5.696 5.714h43.626c3.146 0 5.696-2.558 5.696-5.714V12.394c0-3.156-2.55-5.714-5.696-5.714z" fill="url(#d)" class="H"/><path d="M119.301 6.966H75.675c-2.988 0-5.411 2.43-5.411 5.429v24.849c0 2.998 2.422 5.429 5.411 5.429h43.627a5.42 5.42 0 0 0 5.411-5.428V12.394a5.42 5.42 0 0 0-5.411-5.429z" stroke="#fff"/></g><path d="M89.318 29.39v-3.595l.464 1.232-3.859-6.437h2.155l2.957 4.941h-1.24l2.97-4.941h1.992l-3.859 6.437.451-1.232v3.595h-2.03zm8.749.101c-.768 0-1.445-.151-2.03-.453-.576-.302-1.023-.712-1.341-1.232-.317-.528-.476-1.127-.476-1.798 0-.679.155-1.278.464-1.798.318-.528.748-.939 1.291-1.232.543-.302 1.157-.453 1.842-.453.66 0 1.253.143 1.779.427a3.07 3.07 0 0 1 1.265 1.207c.31.52.464 1.144.464 1.873l-.012.264-.026.264h-5.475v-1.144h4.448l-.752.339a1.88 1.88 0 0 0-.213-.918c-.142-.26-.338-.461-.589-.603-.251-.151-.543-.226-.877-.226s-.631.075-.89.226c-.251.142-.447.348-.589.616-.142.26-.213.57-.213.93v.302c0 .369.08.696.238.981a1.7 1.7 0 0 0 .689.641c.301.142.652.214 1.053.214.359 0 .673-.054.94-.163.276-.109.526-.272.752-.49l1.04 1.131c-.309.352-.697.624-1.165.817-.468.184-1.006.277-1.616.277zm6.828 0c-.577 0-1.132-.067-1.667-.201-.526-.142-.944-.318-1.253-.528l.652-1.408c.309.193.672.352 1.09.478.426.117.844.176 1.253.176.451 0 .769-.054.952-.163.193-.109.288-.26.288-.453a.37.37 0 0 0-.225-.352c-.142-.084-.334-.147-.577-.189l-.802-.126-.864-.163a3.1 3.1 0 0 1-.802-.327c-.242-.143-.439-.335-.589-.578-.142-.243-.213-.557-.213-.943a1.85 1.85 0 0 1 .363-1.131c.251-.327.61-.582 1.078-.767.468-.193 1.027-.289 1.679-.289.46 0 .927.05 1.403.151s.873.247 1.191.44l-.652 1.395c-.326-.193-.655-.323-.99-.39a4.21 4.21 0 0 0-.952-.113c-.434 0-.752.059-.952.176s-.301.268-.301.453a.41.41 0 0 0 .213.377c.15.084.347.151.589.201l.789.138a6.42 6.42 0 0 1 .877.163 2.9 2.9 0 0 1 .79.327c.242.134.438.323.589.566.15.235.225.545.225.93 0 .419-.125.792-.376 1.119-.25.319-.614.57-1.09.754-.467.184-1.04.277-1.716.277z" class="I"/><g filter="url(#Y)"><path d="M87.943 33.962H44.316c-3.146 0-5.696 2.558-5.696 5.714v24.849c0 3.156 2.55 5.714 5.696 5.714h43.627c3.146 0 5.696-2.558 5.696-5.714V39.676c0-3.156-2.55-5.714-5.696-5.714z" fill="url(#e)" class="H"/><path d="M87.943 34.247H44.316c-2.988 0-5.411 2.43-5.411 5.429v24.849c0 2.998 2.423 5.429 5.411 5.429h43.627c2.988 0 5.411-2.431 5.411-5.429V39.676c0-2.998-2.423-5.429-5.411-5.429z" stroke="#fff"/></g><path d="M57.959 56.672v-3.595l.464 1.232-3.859-6.437h2.155l2.957 4.941h-1.24l2.97-4.941h1.992l-3.859 6.437.451-1.232v3.595h-2.03zm8.749.101c-.768 0-1.445-.151-2.03-.453-.576-.302-1.023-.712-1.341-1.232-.317-.528-.476-1.127-.476-1.798 0-.679.155-1.278.464-1.798.318-.528.748-.939 1.291-1.232.543-.302 1.157-.453 1.842-.453.66 0 1.253.142 1.779.428a3.08 3.08 0 0 1 1.266 1.207c.309.52.464 1.144.464 1.873l-.013.264-.025.264h-5.476v-1.144H68.9l-.752.339c0-.352-.071-.658-.213-.918s-.338-.461-.589-.604c-.251-.151-.543-.226-.877-.226s-.63.075-.89.226a1.5 1.5 0 0 0-.589.616c-.142.26-.213.57-.213.93v.302c0 .369.08.696.238.981a1.7 1.7 0 0 0 .689.641c.301.143.652.214 1.053.214.359 0 .673-.054.94-.163.276-.109.526-.272.752-.49l1.04 1.131c-.309.352-.697.624-1.165.817-.468.184-1.006.277-1.616.277zm6.827 0c-.576 0-1.132-.067-1.667-.201-.526-.142-.944-.319-1.253-.528l.651-1.408c.309.193.673.352 1.09.478a4.71 4.71 0 0 0 1.253.176c.451 0 .769-.055.952-.163.193-.109.288-.26.288-.453a.37.37 0 0 0-.225-.352c-.142-.084-.334-.147-.576-.189l-.802-.126-.864-.163a3.11 3.11 0 0 1-.802-.327c-.242-.142-.439-.335-.589-.578-.142-.243-.213-.557-.213-.943a1.85 1.85 0 0 1 .363-1.132c.251-.327.61-.582 1.078-.767.468-.193 1.028-.289 1.679-.289.46 0 .927.05 1.403.151s.873.247 1.19.44l-.652 1.395c-.326-.193-.656-.323-.99-.39-.326-.075-.643-.113-.952-.113-.434 0-.752.059-.952.176s-.301.268-.301.453a.41.41 0 0 0 .213.377 2.1 2.1 0 0 0 .589.201l.79.138c.293.033.585.088.877.163s.556.184.789.327c.243.134.439.323.589.566.15.235.226.545.226.93a1.79 1.79 0 0 1-.376 1.119c-.251.319-.614.57-1.09.754-.468.184-1.04.277-1.717.277z" class="I"/></g><defs><filter id="A" x="74.111" y="38.967" width="12.626" height="12.667" filterUnits="userSpaceOnUse" class="B"><feFlood class="C"/><feBlend in="SourceGraphic" result="B"/><feColorMatrix in="SourceAlpha" values="0 0 0 0 0 0 0 0 0 0 0 0 0 0 0 0 0 0 127 0" result="C"/><feOffset/><feGaussianBlur stdDeviation="1"/><feComposite in2="C" operator="arithmetic" k2="-1" k3="1"/><feColorMatrix values="0 0 0 0 0.258824 0 0 0 0 0.298039 0 0 0 0 0.407843 0 0 0 0.46 0"/><feBlend in2="B"/></filter><filter id="B" x="64.428" y="10.878" width="9.683" height="9.714" filterUnits="userSpaceOnUse" class="B"><feFlood class="C"/><feBlend in="SourceGraphic" result="B"/><feColorMatrix in="SourceAlpha" values="0 0 0 0 0 0 0 0 0 0 0 0 0 0 0 0 0 0 127 0" result="C"/><feOffset/><feGaussianBlur stdDeviation="1"/><feComposite in2="C" operator="arithmetic" k2="-1" k3="1"/><feColorMatrix values="0 0 0 0 0.258824 0 0 0 0 0.298039 0 0 0 0 0.407843 0 0 0 0.46 0"/><feBlend in2="B"/></filter><filter id="C" x="99.933" y="62.098" width="9.683" height="9.714" filterUnits="userSpaceOnUse" class="B"><feFlood class="C"/><feBlend in="SourceGraphic" result="B"/><feColorMatrix in="SourceAlpha" values="0 0 0 0 0 0 0 0 0 0 0 0 0 0 0 0 0 0 127 0" result="C"/><feOffset/><feGaussianBlur stdDeviation="1"/><feComposite in2="C" operator="arithmetic" k2="-1" k3="1"/><feColorMatrix values="0 0 0 0 0.258824 0 0 0 0 0.298039 0 0 0 0 0.407843 0 0 0 0.46 0"/><feBlend in2="B"/></filter><filter id="D" x="75.583" y="83.608" width="9.683" height="9.714" filterUnits="userSpaceOnUse" class="B"><feFlood class="C"/><feBlend in="SourceGraphic" result="B"/><feColorMatrix in="SourceAlpha" values="0 0 0 0 0 0 0 0 0 0 0 0 0 0 0 0 0 0 127 0" result="C"/><feOffset/><feGaussianBlur stdDeviation="1"/><feComposite in2="C" operator="arithmetic" k2="-1" k3="1"/><feColorMatrix values="0 0 0 0 0.258824 0 0 0 0 0.298039 0 0 0 0 0.407843 0 0 0 0.46 0"/><feBlend in2="B"/></filter><filter id="E" x="44.141" y="42.206" width="10.272" height="10.306" filterUnits="userSpaceOnUse" class="B"><feFlood class="C"/><feBlend in="SourceGraphic" result="B"/><feColorMatrix in="SourceAlpha" values="0 0 0 0 0 0 0 0 0 0 0 0 0 0 0 0 0 0 127 0" result="C"/><feOffset/><feGaussianBlur stdDeviation="1"/><feComposite in2="C" operator="arithmetic" k2="-1" k3="1"/><feColorMatrix values="0 0 0 0 0.258824 0 0 0 0 0.298039 0 0 0 0 0.407843 0 0 0 0.46 0"/><feBlend in2="B"/></filter><filter id="F" x="31.922" y="71.812" width="8.876" height="8.905" filterUnits="userSpaceOnUse" class="B"><feFlood class="C"/><feBlend in="SourceGraphic" result="B"/><feColorMatrix in="SourceAlpha" values="0 0 0 0 0 0 0 0 0 0 0 0 0 0 0 0 0 0 127 0" result="C"/><feOffset/><feGaussianBlur stdDeviation="1"/><feComposite in2="C" operator="arithmetic" k2="-1" k3="1"/><feColorMatrix values="0 0 0 0 0.258824 0 0 0 0 0.298039 0 0 0 0 0.407843 0 0 0 0.46 0"/><feBlend in2="B"/></filter><filter id="G" x="58.781" y="71.812" width="8.876" height="8.905" filterUnits="userSpaceOnUse" class="B"><feFlood class="C"/><feBlend in="SourceGraphic" result="B"/><feColorMatrix in="SourceAlpha" values="0 0 0 0 0 0 0 0 0 0 0 0 0 0 0 0 0 0 127 0" result="C"/><feOffset/><feGaussianBlur stdDeviation="1"/><feComposite in2="C" operator="arithmetic" k2="-1" k3="1"/><feColorMatrix values="0 0 0 0 0.258824 0 0 0 0 0.298039 0 0 0 0 0.407843 0 0 0 0.46 0"/><feBlend in2="B"/></filter><filter id="H" x="58.781" y="50.301" width="8.876" height="8.905" filterUnits="userSpaceOnUse" class="B"><feFlood class="C"/><feBlend in="SourceGraphic" result="B"/><feColorMatrix in="SourceAlpha" values="0 0 0 0 0 0 0 0 0 0 0 0 0 0 0 0 0 0 127 0" result="C"/><feOffset/><feGaussianBlur stdDeviation="1"/><feComposite in2="C" operator="arithmetic" k2="-1" k3="1"/><feColorMatrix values="0 0 0 0 0.258824 0 0 0 0 0.298039 0 0 0 0 0.407843 0 0 0 0.46 0"/><feBlend in2="B"/></filter><filter id="I" x="58.781" y="28.791" width="8.876" height="8.905" filterUnits="userSpaceOnUse" class="B"><feFlood class="C"/><feBlend in="SourceGraphic" result="B"/><feColorMatrix in="SourceAlpha" values="0 0 0 0 0 0 0 0 0 0 0 0 0 0 0 0 0 0 127 0" result="C"/><feOffset/><feGaussianBlur stdDeviation="1"/><feComposite in2="C" operator="arithmetic" k2="-1" k3="1"/><feColorMatrix values="0 0 0 0 0.258824 0 0 0 0 0.298039 0 0 0 0 0.407843 0 0 0 0.46 0"/><feBlend in2="B"/></filter><filter id="J" x="86.737" y="50.301" width="8.876" height="8.905" filterUnits="userSpaceOnUse" class="B"><feFlood class="C"/><feBlend in="SourceGraphic" result="B"/><feColorMatrix in="SourceAlpha" values="0 0 0 0 0 0 0 0 0 0 0 0 0 0 0 0 0 0 127 0" result="C"/><feOffset/><feGaussianBlur stdDeviation="1"/><feComposite in2="C" operator="arithmetic" k2="-1" k3="1"/><feColorMatrix values="0 0 0 0 0.258824 0 0 0 0 0.298039 0 0 0 0 0.407843 0 0 0 0.46 0"/><feBlend in2="B"/></filter><filter id="K" x="69.583" y="65.107" width="6.683" height="6.705" filterUnits="userSpaceOnUse" class="B"><feFlood class="C"/><feBlend in="SourceGraphic" result="B"/><feColorMatrix in="SourceAlpha" values="0 0 0 0 0 0 0 0 0 0 0 0 0 0 0 0 0 0 127 0" result="C"/><feOffset/><feGaussianBlur stdDeviation="1"/><feComposite in2="C" operator="arithmetic" k2="-1" k3="1"/><feColorMatrix values="0 0 0 0 0.258824 0 0 0 0 0.298039 0 0 0 0 0.407843 0 0 0 0.46 0"/><feBlend in2="B"/></filter><filter id="L" x="100.407" y="36.824" width="6.683" height="6.705" filterUnits="userSpaceOnUse" class="B"><feFlood class="C"/><feBlend in="SourceGraphic" result="B"/><feColorMatrix in="SourceAlpha" values="0 0 0 0 0 0 0 0 0 0 0 0 0 0 0 0 0 0 127 0" result="C"/><feOffset/><feGaussianBlur stdDeviation="1"/><feComposite in2="C" operator="arithmetic" k2="-1" k3="1"/><feColorMatrix values="0 0 0 0 0.258824 0 0 0 0 0.298039 0 0 0 0 0.407843 0 0 0 0.46 0"/><feBlend in2="B"/></filter><filter id="M" x="50.647" y="66.47" width="6.683" height="6.705" filterUnits="userSpaceOnUse" class="B"><feFlood class="C"/><feBlend in="SourceGraphic" result="B"/><feColorMatrix in="SourceAlpha" values="0 0 0 0 0 0 0 0 0 0 0 0 0 0 0 0 0 0 127 0" result="C"/><feOffset/><feGaussianBlur stdDeviation="1"/><feComposite in2="C" operator="arithmetic" k2="-1" k3="1"/><feColorMatrix values="0 0 0 0 0.258824 0 0 0 0 0.298039 0 0 0 0 0.407843 0 0 0 0.46 0"/><feBlend in2="B"/></filter><filter id="N" x="24.748" y="40.654" width="6.683" height="6.705" filterUnits="userSpaceOnUse" class="B"><feFlood class="C"/><feBlend in="SourceGraphic" result="B"/><feColorMatrix in="SourceAlpha" values="0 0 0 0 0 0 0 0 0 0 0 0 0 0 0 0 0 0 127 0" result="C"/><feOffset/><feGaussianBlur stdDeviation="1"/><feComposite in2="C" operator="arithmetic" k2="-1" k3="1"/><feColorMatrix values="0 0 0 0 0.258824 0 0 0 0 0.298039 0 0 0 0 0.407843 0 0 0 0.46 0"/><feBlend in2="B"/></filter><filter id="O" x="47.306" y="18.505" width="6.683" height="6.705" filterUnits="userSpaceOnUse" class="B"><feFlood class="C"/><feBlend in="SourceGraphic" result="B"/><feColorMatrix in="SourceAlpha" values="0 0 0 0 0 0 0 0 0 0 0 0 0 0 0 0 0 0 127 0" result="C"/><feOffset/><feGaussianBlur stdDeviation="1"/><feComposite in2="C" operator="arithmetic" k2="-1" k3="1"/><feColorMatrix values="0 0 0 0 0.258824 0 0 0 0 0.298039 0 0 0 0 0.407843 0 0 0 0.46 0"/><feBlend in2="B"/></filter><filter id="P" x="16.482" y="60.25" width="6.683" height="6.705" filterUnits="userSpaceOnUse" class="B"><feFlood class="C"/><feBlend in="SourceGraphic" result="B"/><feColorMatrix in="SourceAlpha" values="0 0 0 0 0 0 0 0 0 0 0 0 0 0 0 0 0 0 127 0" result="C"/><feOffset/><feGaussianBlur stdDeviation="1"/><feComposite in2="C" operator="arithmetic" k2="-1" k3="1"/><feColorMatrix values="0 0 0 0 0.258824 0 0 0 0 0.298039 0 0 0 0 0.407843 0 0 0 0.46 0"/><feBlend in2="B"/></filter><filter id="Q" x="98.091" y="22.937" width="7.361" height="7.385" filterUnits="userSpaceOnUse" class="B"><feFlood class="C"/><feBlend in="SourceGraphic" result="B"/><feColorMatrix in="SourceAlpha" values="0 0 0 0 0 0 0 0 0 0 0 0 0 0 0 0 0 0 127 0" result="C"/><feOffset/><feGaussianBlur stdDeviation="1"/><feComposite in2="C" operator="arithmetic" k2="-1" k3="1"/><feColorMatrix values="0 0 0 0 0.258824 0 0 0 0 0.298039 0 0 0 0 0.407843 0 0 0 0.46 0"/><feBlend in2="B"/></filter><filter id="R" x="86.737" y="71.812" width="8.876" height="8.905" filterUnits="userSpaceOnUse" class="B"><feFlood class="C"/><feBlend in="SourceGraphic" result="B"/><feColorMatrix in="SourceAlpha" values="0 0 0 0 0 0 0 0 0 0 0 0 0 0 0 0 0 0 127 0" result="C"/><feOffset/><feGaussianBlur stdDeviation="1"/><feComposite in2="C" operator="arithmetic" k2="-1" k3="1"/><feColorMatrix values="0 0 0 0 0.258824 0 0 0 0 0.298039 0 0 0 0 0.407843 0 0 0 0.46 0"/><feBlend in2="B"/></filter><filter id="S" x="86.737" y="28.791" width="8.876" height="8.905" filterUnits="userSpaceOnUse" class="B"><feFlood class="C"/><feBlend in="SourceGraphic" result="B"/><feColorMatrix in="SourceAlpha" values="0 0 0 0 0 0 0 0 0 0 0 0 0 0 0 0 0 0 127 0" result="C"/><feOffset/><feGaussianBlur stdDeviation="1"/><feComposite in2="C" operator="arithmetic" k2="-1" k3="1"/><feColorMatrix values="0 0 0 0 0.258824 0 0 0 0 0.298039 0 0 0 0 0.407843 0 0 0 0.46 0"/><feBlend in2="B"/></filter><filter id="T" x="31.922" y="28.791" width="8.876" height="8.905" filterUnits="userSpaceOnUse" class="B"><feFlood class="C"/><feBlend in="SourceGraphic" result="B"/><feColorMatrix in="SourceAlpha" values="0 0 0 0 0 0 0 0 0 0 0 0 0 0 0 0 0 0 127 0" result="C"/><feOffset/><feGaussianBlur stdDeviation="1"/><feComposite in2="C" operator="arithmetic" k2="-1" k3="1"/><feColorMatrix values="0 0 0 0 0.258824 0 0 0 0 0.298039 0 0 0 0 0.407843 0 0 0 0.46 0"/><feBlend in2="B"/></filter><filter id="U" x="31.922" y="50.301" width="8.876" height="8.905" filterUnits="userSpaceOnUse" class="B"><feFlood class="C"/><feBlend in="SourceGraphic" result="B"/><feColorMatrix in="SourceAlpha" values="0 0 0 0 0 0 0 0 0 0 0 0 0 0 0 0 0 0 127 0" result="C"/><feOffset/><feGaussianBlur stdDeviation="1"/><feComposite in2="C" operator="arithmetic" k2="-1" k3="1"/><feColorMatrix values="0 0 0 0 0.258824 0 0 0 0 0.298039 0 0 0 0 0.407843 0 0 0 0.46 0"/><feBlend in2="B"/></filter><filter id="V" x="17.435" y="10.378" width="96.529" height="76.692" filterUnits="userSpaceOnUse" class="B"><feFlood class="C"/><feGaussianBlur stdDeviation="5"/><feComposite in2="SourceAlpha" operator="in"/><feBlend in="SourceGraphic"/></filter><filter id="W" x="-3.129" y="-3.534" width="75.449" height="56.706" filterUnits="userSpaceOnUse" class="B"><feFlood result="A" class="C"/><feColorMatrix in="SourceAlpha" values="0 0 0 0 0 0 0 0 0 0 0 0 0 0 0 0 0 0 127 0"/><feOffset/><feGaussianBlur stdDeviation="5"/><feColorMatrix values="0 0 0 0 0.258824 0 0 0 0 0.298039 0 0 0 0 0.407843 0 0 0 0.3 0"/><feBlend in2="A"/><feBlend in="SourceGraphic"/></filter><filter id="X" x="59.764" y="-3.534" width="75.449" height="56.706" filterUnits="userSpaceOnUse" class="B"><feFlood result="A" class="C"/><feColorMatrix in="SourceAlpha" values="0 0 0 0 0 0 0 0 0 0 0 0 0 0 0 0 0 0 127 0"/><feOffset/><feGaussianBlur stdDeviation="5"/><feColorMatrix values="0 0 0 0 0.258824 0 0 0 0 0.298039 0 0 0 0 0.407843 0 0 0 0.3 0"/><feBlend in2="A"/><feBlend in="SourceGraphic"/></filter><filter id="Y" x="28.405" y="23.747" width="75.449" height="56.706" filterUnits="userSpaceOnUse" class="B"><feFlood result="A" class="C"/><feColorMatrix in="SourceAlpha" values="0 0 0 0 0 0 0 0 0 0 0 0 0 0 0 0 0 0 127 0"/><feOffset/><feGaussianBlur stdDeviation="5"/><feColorMatrix values="0 0 0 0 0.258824 0 0 0 0 0.298039 0 0 0 0 0.407843 0 0 0 0.3 0"/><feBlend in2="A"/><feBlend in="SourceGraphic"/></filter><linearGradient id="Z" x1="18.349" y1="53.453" x2="70.262" y2="68.551" xlink:href="#j"><stop stop-color="#41ccdb"/><stop offset="1" stop-color="#00b8cc"/></linearGradient><linearGradient id="a" x1="33.331" y1="33.042" x2="104.936" y2="39.802" xlink:href="#j"><stop stop-color="#41ccdb"/><stop offset="1" stop-color="#00b8cc"/></linearGradient><linearGradient id="b" x1="65.699" y1="20.593" x2="65.699" y2="76.856" xlink:href="#j"><stop stop-color="#41ccdb"/><stop offset="1" stop-color="#00b8cc"/></linearGradient><linearGradient id="c" x1="34.595" y1="6.68" x2="34.595" y2="42.958" xlink:href="#j"><stop stop-color="#fff"/><stop offset="1" stop-color="#eef5fc"/></linearGradient><linearGradient id="d" x1="97.488" y1="6.68" x2="97.488" y2="42.958" xlink:href="#j"><stop stop-color="#fff"/><stop offset="1" stop-color="#eef5fc"/></linearGradient><linearGradient id="e" x1="66.13" y1="33.962" x2="66.13" y2="70.239" xlink:href="#j"><stop stop-color="#fff"/><stop offset="1" stop-color="#eef5fc"/></linearGradient><clipPath id="f"><path fill="#fff" transform="translate(.542 .001)" d="M0 0h131v100H0z"/></clipPath><path id="g" d="M36.36 80.717c-2.451 0-4.438-1.993-4.438-4.453s1.987-4.453 4.438-4.453 4.438 1.993 4.438 4.453-1.987 4.453-4.438 4.453z"/><path id="h" d="M36.36 80.432a4.16 4.16 0 1 1 0-8.334 4.16 4.16 0 1 1 0 8.334z"/><path id="i" d="M72.924 71.812c-1.845 0-3.341-1.501-3.341-3.352s1.496-3.352 3.341-3.352 3.341 1.501 3.341 3.352-1.496 3.352-3.341 3.352z"/><linearGradient id="j" gradientUnits="userSpaceOnUse"/></defs></svg>