<svg xmlns="http://www.w3.org/2000/svg" width="1441" height="306" fill="none" xmlns:v="https://vecta.io/nano"><style><![CDATA[.B{fill:#eef5fc}.C{color-interpolation-filters:sRGB}.D{flood-opacity:0}.E{shape-rendering:crispEdges}]]></style><g filter="url(#A)" class="B E"><path d="M117.726 14.881L.696 109.275v163.13H1442.54V167.459L1334.61 61.502 1269 86.932l-78.3-72.051-110.05 125.029-103.699-89.004-135.444 116.553-84.653-152.578-131.212 72.051-88.885-55.098L344.172 139.91 117.726 14.881z" fill-opacity=".33"/></g><g filter="url(#B)" class="B E"><path d="M117.726 38.965L.696 133.36v100.566H1442.54v-42.383L1334.61 85.586l-65.61 25.43-78.3-72.051-110.05 125.029L976.951 74.99 841.507 191.543 756.854 38.965l-131.212 72.051-88.885-55.098-192.585 108.076L117.726 38.965z" fill-opacity=".58"/></g><g filter="url(#C)" class="B"><path d="M114.26 69.588L-3.076 163.983v100.566H1442.54v-42.383l-108.21-105.957-65.78 25.43-78.51-72.051-110.34 125.03-103.967-89.004-135.799 116.552L755.06 69.588l-131.555 72.051-89.118-55.098-193.089 108.077L114.26 69.588z"/></g><path d="M.696 305.446h1441.84v-56.713H.696z" class="B"/><defs><filter id="A" x="-9.304" y=".881" width="1461.84" height="277.524" filterUnits="userSpaceOnUse" class="C"><feFlood result="A" class="D"/><feColorMatrix in="SourceAlpha" values="0 0 0 0 0 0 0 0 0 0 0 0 0 0 0 0 0 0 127 0" result="B"/><feOffset dy="-4"/><feGaussianBlur stdDeviation="5"/><feComposite in2="B" operator="out"/><feColorMatrix values="0 0 0 0 0.345098 0 0 0 0 0.419608 0 0 0 0 0.501961 0 0 0 0.2 0"/><feBlend in2="A"/><feBlend in="SourceGraphic"/></filter><filter id="B" x="-9.304" y="24.965" width="1461.84" height="214.961" filterUnits="userSpaceOnUse" class="C"><feFlood result="A" class="D"/><feColorMatrix in="SourceAlpha" values="0 0 0 0 0 0 0 0 0 0 0 0 0 0 0 0 0 0 127 0" result="B"/><feOffset dy="-4"/><feGaussianBlur stdDeviation="5"/><feComposite in2="B" operator="out"/><feColorMatrix values="0 0 0 0 0.345098 0 0 0 0 0.419608 0 0 0 0 0.501961 0 0 0 0.2 0"/><feBlend in2="A"/><feBlend in="SourceGraphic"/></filter><filter id="C" x="-13.076" y="55.588" width="1465.62" height="214.961" filterUnits="userSpaceOnUse" class="C"><feFlood result="A" class="D"/><feColorMatrix in="SourceAlpha" values="0 0 0 0 0 0 0 0 0 0 0 0 0 0 0 0 0 0 127 0" result="B"/><feOffset dy="-4"/><feGaussianBlur stdDeviation="5"/><feComposite in2="B" operator="out"/><feColorMatrix values="0 0 0 0 0.345098 0 0 0 0 0.419608 0 0 0 0 0.501961 0 0 0 0.2 0"/><feBlend in2="A"/><feBlend in="SourceGraphic"/></filter></defs></svg>