<svg xmlns="http://www.w3.org/2000/svg" width="46" height="38" fill="none" xmlns:v="https://vecta.io/nano"><g filter="url(#A)"><path d="M42.529 4.435l-9.257 28.389a.98.98 0 0 1-.269.416 1.04 1.04 0 0 1-.445.239 1.06 1.06 0 0 1-.509.002c-.167-.041-.32-.122-.446-.235l-9.416-8.466-4.726-4.251c-.036-.032-.064-.071-.083-.114s-.027-.091-.025-.138.015-.093.038-.135.055-.078.094-.107L34.822 7.207 13.709 17.52c-.063.029-.131.048-.2.058a.69.69 0 0 1-.354-.046l-9.909-3.994a1.01 1.01 0 0 1-.471-.388.95.95 0 0 1-.151-.578.96.96 0 0 1 .225-.555 1.02 1.02 0 0 1 .518-.328L40.046 1.96c.353-.094.726-.095 1.078-.001a2.05 2.05 0 0 1 .928.528c.254.254.432.568.516.911a1.89 1.89 0 0 1-.04 1.037z" fill="url(#B)" stroke="#00b8cc" stroke-miterlimit="10"/><path d="M17.377 20.178l-2.417 8.636" stroke="#41ccdb" stroke-linecap="round" stroke-linejoin="round"/><path d="M17.462 20.53l4.726 4.249-6.465 4.054c-.114.072-.248.109-.385.106s-.269-.046-.379-.123a.64.64 0 0 1-.194-.202c-.048-.08-.078-.169-.086-.262l-1.17-10.773a.72.72 0 0 0 .2-.058L34.822 7.208 17.486 20.036c-.039.028-.071.065-.094.107s-.036.087-.038.135.006.094.025.138.047.083.083.115z" fill="url(#C)" stroke="#00b8cc" stroke-linejoin="round"/></g><defs><filter id="A" x=".123" y=".39" width="45" height="36.622" filterUnits="userSpaceOnUse" color-interpolation-filters="sRGB"><feFlood flood-opacity="0" result="A"/><feColorMatrix in="SourceAlpha" values="0 0 0 0 0 0 0 0 0 0 0 0 0 0 0 0 0 0 127 0"/><feOffset dy="1"/><feGaussianBlur stdDeviation="1"/><feColorMatrix values="0 0 0 0 0.258824 0 0 0 0 0.298039 0 0 0 0 0.407843 0 0 0 0.2 0"/><feBlend in2="A"/><feBlend in="SourceGraphic"/></filter><linearGradient id="B" x1="22.622" y1="1.889" x2="80.577" y2="25.038" gradientUnits="userSpaceOnUse"><stop stop-color="#41ccdb"/><stop offset="1" stop-color="#00b8cc"/></linearGradient><linearGradient id="C" x1="66.081" y1="-14.885" x2="18.736" y2="16.694" gradientUnits="userSpaceOnUse"><stop stop-color="#41ccdb"/><stop offset="1" stop-color="#00b8cc"/></linearGradient></defs></svg>