<svg xmlns="http://www.w3.org/2000/svg" width="46" height="46" fill="none" xmlns:v="https://vecta.io/nano"><g filter="url(#A)"><path d="M23.466 1.692a20.01 20.01 0 0 0-20 20.009c0 11.049 8.954 20.007 20 20.007s20-8.96 20-20.007-8.955-20.009-20-20.009zm12.878 11.776L34 16.3c.016.27.022.54.022.809 0 8.387-6.868 15.185-15.34 15.185-2.43.004-4.827-.567-7-1.667-.042-.023-.076-.057-.098-.099a.24.24 0 0 1-.023-.139c.007-.047.028-.091.061-.126a.22.22 0 0 1 .122-.067 15.31 15.31 0 0 0 5.542-2.206 10.98 10.98 0 0 1-4.468-3.72c-.026-.036-.04-.079-.042-.123s.008-.088.031-.126.055-.069.094-.089.083-.028.127-.022c.526.062 1.055.09 1.584.085-1.483-1.029-2.684-2.422-3.488-4.05-.229-.473-.421-.963-.574-1.467-.014-.043-.014-.09-.001-.134s.038-.082.072-.111.077-.047.123-.051.09.005.129.027l.163.087c.886.468 1.827.818 2.8 1.042a10.27 10.27 0 0 1-2.314-3.844 9.91 9.91 0 0 1-.446-4.141c.024-.053.048-.103.074-.154.017-.036.043-.066.075-.088s.07-.035.108-.038.077.003.113.019.066.04.09.072c.423.568.886 1.104 1.386 1.604a15.36 15.36 0 0 0 10.144 4.566 4.56 4.56 0 0 1-.18-1.145c-.05-1.942 1.186-3.251 1.601-3.678a6.1 6.1 0 0 1 3.854-1.831c.16-.016.318-.022.468-.022.304-.006.608.013.91.055a5.24 5.24 0 0 1 .892.202c.932.306 1.768.852 2.426 1.586 1.026.001 2.012-.405 2.744-1.133.037-.035.085-.057.135-.061s.101.008.144.036a.23.23 0 0 1 .092.117c.017.048.018.101.002.149a3.43 3.43 0 0 1-1.226 1.72l1.2-.233c.046-.007.092-.001.134.019s.076.051.099.092.034.086.031.132a.23.23 0 0 1-.048.127z" fill="url(#B)"/><path d="M23.4658 1.69238C12.4196 1.69238 3.46582 10.6524 3.46582 21.7016C3.46582 32.7509 12.4196 41.7083 23.4658 41.7083C34.5113 41.7083 43.4658 32.7487 43.4658 21.7016C43.4658 10.6538 34.5113 1.69238 23.4658 1.69238ZM36.3436 13.468L33.9996 16.3C34.0152 16.5695 34.0216 16.8404 34.0216 17.1091C34.0216 25.4963 27.1538 32.2937 18.6819 32.2937C16.2519 32.298 13.8546 31.727 11.6819 30.627C11.6399 30.6043 11.6058 30.5702 11.5838 30.5275C11.5625 30.4848 11.5547 30.4365 11.5611 30.3889C11.5682 30.3419 11.5895 30.2979 11.6222 30.263C11.6549 30.2282 11.6968 30.2047 11.7437 30.1962C13.7153 29.8321 15.5973 29.0834 17.2853 27.9906C15.4935 27.1786 13.9505 25.8931 12.8176 24.2705C12.792 24.2343 12.7778 24.1916 12.7757 24.1475C12.7736 24.1034 12.7842 24.0594 12.807 24.0217C12.829 23.9833 12.8617 23.9527 12.9008 23.9328C12.9399 23.9129 12.9839 23.9051 13.0273 23.9108C13.5532 23.9726 14.082 24.0011 14.6115 23.9954C13.1282 22.9665 11.9278 21.5729 11.1232 19.9454C10.8944 19.4726 10.7025 18.9827 10.5497 18.4786C10.5362 18.4352 10.5355 18.389 10.549 18.3449C10.5618 18.3015 10.5866 18.2624 10.6215 18.234C10.6563 18.2048 10.6989 18.187 10.7444 18.1828C10.7892 18.1785 10.834 18.1878 10.8738 18.2098L11.0372 18.2965C11.9228 18.7644 12.8638 19.1142 13.8375 19.3389C12.7942 18.2468 12.0038 16.9342 11.5234 15.4951C11.0834 14.1627 10.9313 12.7506 11.0778 11.3541C11.1019 11.3015 11.1254 11.251 11.1517 11.2006C11.1687 11.165 11.195 11.1352 11.227 11.1131C11.259 11.0911 11.2967 11.0776 11.335 11.0747C11.3741 11.0712 11.4125 11.0776 11.448 11.0939C11.4836 11.1096 11.5141 11.1344 11.5376 11.1657C11.9605 11.7338 12.4239 12.2699 12.9235 12.7698C15.6279 15.5115 19.2434 17.139 23.0678 17.336C22.9591 16.9634 22.8986 16.5787 22.8873 16.1912C22.8375 14.2487 24.0735 12.9397 24.4878 12.5131C25.5149 11.4565 26.8816 10.8074 28.3414 10.6822C28.5014 10.6659 28.6598 10.6602 28.8098 10.6602C29.114 10.6545 29.4182 10.673 29.7195 10.7149C30.0223 10.7562 30.3208 10.8237 30.6115 10.9169C31.5433 11.2226 32.3791 11.7694 33.0372 12.5032C34.0635 12.5046 35.0493 12.0979 35.7814 11.3705C35.8183 11.3357 35.866 11.3136 35.9164 11.3094C35.9669 11.3044 36.0173 11.3172 36.06 11.3449C36.1026 11.3726 36.1346 11.4132 36.1517 11.4615C36.1687 11.5099 36.1694 11.5625 36.1538 11.6108C35.9349 12.3005 35.5056 12.9027 34.9278 13.3308L36.1275 13.0976C36.173 13.0905 36.2192 13.0969 36.2611 13.1168C36.3023 13.136 36.3372 13.168 36.3606 13.2085C36.3841 13.2483 36.3947 13.2945 36.3919 13.3407C36.3891 13.387 36.372 13.4317 36.3436 13.468Z" stroke="url(#C)" stroke-miterlimit="10"/></g><defs><filter id="A" x=".966" y=".192" width="45" height="45.016" filterUnits="userSpaceOnUse" color-interpolation-filters="sRGB"><feFlood flood-opacity="0" result="A"/><feColorMatrix in="SourceAlpha" values="0 0 0 0 0 0 0 0 0 0 0 0 0 0 0 0 0 0 127 0"/><feOffset dy="1"/><feGaussianBlur stdDeviation="1"/><feColorMatrix values="0 0 0 0 0.258824 0 0 0 0 0.298039 0 0 0 0 0.407843 0 0 0 0.2 0"/><feBlend in2="A"/><feBlend in="SourceGraphic"/></filter><linearGradient id="B" x1="23.466" y1="1.692" x2="23.466" y2="41.708" gradientUnits="userSpaceOnUse"><stop stop-color="#00b8cc"/><stop offset="1" stop-color="#41ccdb"/></linearGradient><linearGradient id="C" x1="33.917" y1="28.946" x2="12.508" y2="2.406" gradientUnits="userSpaceOnUse"><stop stop-color="#41ccdb"/><stop offset=".948" stop-color="#00b8cc"/></linearGradient></defs></svg>